STARTFONT 2.1
FONTBOUNDINGBOX 16 16 0 -2
STARTPROPERTIES 2
FONT_ASCENT 13
FONT_DESCENT 3
ENDPROPERTIES
CHARS 7447
STARTCHAR 0000
ENCODING 0
SWIDTH 520 0
DWIDTH 0 0
BBX 0 16 0 -2
BITMAP
80
ENDCHAR
STARTCHAR 00A4
ENCODING 164
SWIDTH 520 0
DWIDTH 16 0
BBX 16 16 0 -2
BITMAP
0000
4002
27e4
1818
1008
2004
2004
2004
2004
2004
2004
1008
1818
27e4
4002
0000
ENDCHAR
STARTCHAR 00A7
ENCODING 167
SWIDTH 520 0
DWIDTH 16 0
BBX 16 16 0 -2
BITMAP
0780
0840
08c0
0400
0200
0300
0480
0840
0840
0580
0200
0100
0480
0840
0840
0780
ENDCHAR
STARTCHAR 00A8
ENCODING 168
SWIDTH 520 0
DWIDTH 16 0
BBX 16 16 0 -2
BITMAP
0000
0000
0000
0c60
0c60
0000
0000
0000
0000
0000
0000
0000
0000
0000
0000
0000
ENDCHAR
STARTCHAR 00B0
ENCODING 176
SWIDTH 520 0
DWIDTH 16 0
BBX 16 16 0 -2
BITMAP
0000
0000
3000
4800
4800
3000
0000
0000
0000
0000
0000
0000
0000
0000
0000
0000
ENDCHAR
STARTCHAR 00B1
ENCODING 177
SWIDTH 520 0
DWIDTH 16 0
BBX 16 16 0 -2
BITMAP
0000
0000
0000
0100
0100
0100
0fe0
0100
0100
0100
0000
0fe0
0000
0000
0000
0000
ENDCHAR
STARTCHAR 00D7
ENCODING 215
SWIDTH 520 0
DWIDTH 16 0
BBX 16 16 0 -2
BITMAP
0000
0000
0000
1010
0820
0440
0280
0100
0280
0440
0820
1010
0000
0000
0000
0000
ENDCHAR
STARTCHAR 00E0
ENCODING 224
SWIDTH 520 0
DWIDTH 8 0
BBX 8 16 0 -2
BITMAP
00
00
00
00
10
00
00
38
44
44
44
44
44
3a
00
00
ENDCHAR
STARTCHAR 00E1
ENCODING 225
SWIDTH 520 0
DWIDTH 8 0
BBX 8 16 0 -2
BITMAP
00
00
00
00
08
18
00
38
44
44
44
44
44
3a
00
00
ENDCHAR
STARTCHAR 00E8
ENCODING 232
SWIDTH 520 0
DWIDTH 8 0
BBX 8 16 0 -2
BITMAP
00
00
00
00
10
10
00
3c
42
42
7c
40
22
1c
00
00
ENDCHAR
STARTCHAR 00E9
ENCODING 233
SWIDTH 520 0
DWIDTH 8 0
BBX 8 16 0 -2
BITMAP
00
00
00
04
08
08
00
3c
42
42
7c
40
22
1c
00
00
ENDCHAR
STARTCHAR 00EA
ENCODING 234
SWIDTH 520 0
DWIDTH 8 0
BBX 8 16 0 -2
BITMAP
00
00
00
18
38
44
00
3c
42
42
7c
40
22
1c
00
00
ENDCHAR
STARTCHAR 00EC
ENCODING 236
SWIDTH 520 0
DWIDTH 8 0
BBX 8 16 0 -2
BITMAP
00
00
00
20
20
10
00
10
10
10
10
10
10
38
00
00
ENDCHAR
STARTCHAR 00ED
ENCODING 237
SWIDTH 520 0
DWIDTH 8 0
BBX 8 16 0 -2
BITMAP
00
00
00
08
10
10
00
10
10
10
10
10
10
38
00
00
ENDCHAR
STARTCHAR 00F2
ENCODING 242
SWIDTH 520 0
DWIDTH 8 0
BBX 8 16 0 -2
BITMAP
00
00
00
00
10
00
00
3c
42
42
42
42
66
3c
00
00
ENDCHAR
STARTCHAR 00F3
ENCODING 243
SWIDTH 520 0
DWIDTH 8 0
BBX 8 16 0 -2
BITMAP
00
00
00
00
0c
08
00
3c
42
42
42
42
66
18
00
00
ENDCHAR
STARTCHAR 00F7
ENCODING 247
SWIDTH 520 0
DWIDTH 16 0
BBX 16 16 0 -2
BITMAP
0000
0000
0000
0000
0000
0100
0000
1ff0
0000
0100
0000
0000
0000
0000
0000
0000
ENDCHAR
STARTCHAR 00F9
ENCODING 249
SWIDTH 520 0
DWIDTH 8 0
BBX 8 16 0 -2
BITMAP
00
00
00
00
10
00
c4
44
44
44
44
44
26
3a
00
00
ENDCHAR
STARTCHAR 00FA
ENCODING 250
SWIDTH 520 0
DWIDTH 8 0
BBX 8 16 0 -2
BITMAP
00
00
00
04
08
18
c4
44
44
44
44
44
26
3a
00
00
ENDCHAR
STARTCHAR 00FC
ENCODING 252
SWIDTH 520 0
DWIDTH 8 0
BBX 8 16 0 -2
BITMAP
00
00
00
00
24
24
c4
44
44
44
44
44
26
3a
00
00
ENDCHAR
STARTCHAR 0101
ENCODING 257
SWIDTH 520 0
DWIDTH 8 0
BBX 8 16 0 -2
BITMAP
00
00
00
00
3c
00
00
38
44
44
44
44
44
3a
00
00
ENDCHAR
STARTCHAR 0113
ENCODING 275
SWIDTH 520 0
DWIDTH 8 0
BBX 8 16 0 -2
BITMAP
00
00
00
00
3c
00
00
3c
42
42
7c
40
22
1c
00
00
ENDCHAR
STARTCHAR 011B
ENCODING 283
SWIDTH 520 0
DWIDTH 8 0
BBX 8 16 0 -2
BITMAP
00
00
00
00
2c
18
00
3c
42
42
7c
40
22
1c
00
00
ENDCHAR
STARTCHAR 012B
ENCODING 299
SWIDTH 520 0
DWIDTH 8 0
BBX 8 16 0 -2
BITMAP
00
00
00
00
78
00
00
10
10
10
10
10
10
38
00
00
ENDCHAR
STARTCHAR 014D
ENCODING 333
SWIDTH 520 0
DWIDTH 8 0
BBX 8 16 0 -2
BITMAP
00
00
00
00
3c
00
00
3c
42
42
42
42
66
3c
00
00
ENDCHAR
STARTCHAR 016B
ENCODING 363
SWIDTH 520 0
DWIDTH 8 0
BBX 8 16 0 -2
BITMAP
00
00
00
00
3c
00
00
44
44
44
44
44
26
3a
00
00
ENDCHAR
STARTCHAR 01CE
ENCODING 462
SWIDTH 520 0
DWIDTH 8 0
BBX 8 16 0 -2
BITMAP
00
00
00
00
24
18
00
38
44
44
44
44
44
3a
00
00
ENDCHAR
STARTCHAR 01D0
ENCODING 464
SWIDTH 520 0
DWIDTH 8 0
BBX 8 16 0 -2
BITMAP
00
00
00
00
28
10
00
10
10
10
10
10
10
38
00
00
ENDCHAR
STARTCHAR 01D2
ENCODING 466
SWIDTH 520 0
DWIDTH 8 0
BBX 8 16 0 -2
BITMAP
00
00
00
00
24
18
00
3c
42
42
42
42
66
3c
00
00
ENDCHAR
STARTCHAR 01D4
ENCODING 468
SWIDTH 520 0
DWIDTH 8 0
BBX 8 16 0 -2
BITMAP
00
00
00
00
34
18
c4
44
44
44
44
44
26
3a
00
00
ENDCHAR
STARTCHAR 01D6
ENCODING 470
SWIDTH 520 0
DWIDTH 8 0
BBX 8 16 0 -2
BITMAP
00
00
00
3c
24
24
c4
44
44
44
44
44
26
3a
00
00
ENDCHAR
STARTCHAR 01D8
ENCODING 472
SWIDTH 520 0
DWIDTH 8 0
BBX 8 16 0 -2
BITMAP
00
00
08
18
24
24
c4
44
44
44
44
44
26
3a
00
00
ENDCHAR
STARTCHAR 01DA
ENCODING 474
SWIDTH 520 0
DWIDTH 8 0
BBX 8 16 0 -2
BITMAP
00
00
24
18
24
24
c4
44
44
44
44
44
26
3a
00
00
ENDCHAR
STARTCHAR 01DC
ENCODING 476
SWIDTH 520 0
DWIDTH 8 0
BBX 8 16 0 -2
BITMAP
00
00
10
10
2c
24
c4
44
44
44
44
44
26
3a
00
00
ENDCHAR
STARTCHAR 02C7
ENCODING 711
SWIDTH 520 0
DWIDTH 16 0
BBX 16 16 0 -2
BITMAP
0000
0820
0820
0440
0440
0280
0280
0100
0000
0000
0000
0000
0000
0000
0000
0000
ENDCHAR
STARTCHAR 02C9
ENCODING 713
SWIDTH 520 0
DWIDTH 16 0
BBX 16 16 0 -2
BITMAP
0000
0000
0000
7ffe
0000
0000
0000
0000
0000
0000
0000
0000
0000
0000
0000
0000
ENDCHAR
STARTCHAR 0391
ENCODING 913
SWIDTH 520 0
DWIDTH 16 0
BBX 16 16 0 -2
BITMAP
0000
0100
0280
0280
0440
0440
0820
0fe0
1010
1010
2008
701c
0000
0000
0000
0000
ENDCHAR
STARTCHAR 0392
ENCODING 914
SWIDTH 520 0
DWIDTH 16 0
BBX 16 16 0 -2
BITMAP
0000
7fe0
2010
2010
2010
2020
3fc0
2020
2010
2010
2010
7fe0
0000
0000
0000
0000
ENDCHAR
STARTCHAR 0393
ENCODING 915
SWIDTH 520 0
DWIDTH 16 0
BBX 16 16 0 -2
BITMAP
0000
7ff8
2008
2008
2000
2000
2000
2000
2000
2000
2000
7000
0000
0000
0000
0000
ENDCHAR
STARTCHAR 0394
ENCODING 916
SWIDTH 520 0
DWIDTH 16 0
BBX 16 16 0 -2
BITMAP
0000
0100
0280
0280
0440
0440
0820
1010
1010
2008
2008
7ffc
0000
0000
0000
0000
ENDCHAR
STARTCHAR 0395
ENCODING 917
SWIDTH 520 0
DWIDTH 16 0
BBX 16 16 0 -2
BITMAP
0000
7ff8
2008
2008
2000
2040
3fc0
2040
2000
2008
2008
7ff8
0000
0000
0000
0000
ENDCHAR
STARTCHAR 0396
ENCODING 918
SWIDTH 520 0
DWIDTH 16 0
BBX 16 16 0 -2
BITMAP
0000
3ff8
2010
2020
0040
0080
0100
0200
0400
0808
1008
3ff8
0000
0000
0000
0000
ENDCHAR
STARTCHAR 0397
ENCODING 919
SWIDTH 520 0
DWIDTH 16 0
BBX 16 16 0 -2
BITMAP
0000
701c
2008
2008
2008
2008
3ff8
2008
2008
2008
2008
701c
0000
0000
0000
0000
ENDCHAR
STARTCHAR 0398
ENCODING 920
SWIDTH 520 0
DWIDTH 16 0
BBX 16 16 0 -2
BITMAP
0000
07c0
0820
1010
2008
2828
2fe8
2828
2008
1010
0820
07c0
0000
0000
0000
0000
ENDCHAR
STARTCHAR 0399
ENCODING 921
SWIDTH 520 0
DWIDTH 16 0
BBX 16 16 0 -2
BITMAP
0000
0380
0100
0100
0100
0100
0100
0100
0100
0100
0100
0380
0000
0000
0000
0000
ENDCHAR
STARTCHAR 039A
ENCODING 922
SWIDTH 520 0
DWIDTH 16 0
BBX 16 16 0 -2
BITMAP
0000
71c0
2100
2200
2400
2800
3800
2400
2200
2100
2080
70e0
0000
0000
0000
0000
ENDCHAR
STARTCHAR 039B
ENCODING 923
SWIDTH 520 0
DWIDTH 16 0
BBX 16 16 0 -2
BITMAP
0000
0100
0280
0280
0440
0440
0820
0820
1010
1010
2008
701c
0000
0000
0000
0000
ENDCHAR
STARTCHAR 039C
ENCODING 924
SWIDTH 520 0
DWIDTH 16 0
BBX 16 16 0 -2
BITMAP
0000
600c
3018
3018
2828
2828
2448
2448
2288
2288
2108
701c
0000
0000
0000
0000
ENDCHAR
STARTCHAR 039D
ENCODING 925
SWIDTH 520 0
DWIDTH 16 0
BBX 16 16 0 -2
BITMAP
0000
601c
3008
2808
2408
2208
2108
2088
2048
2028
2018
700c
0000
0000
0000
0000
ENDCHAR
STARTCHAR 039E
ENCODING 926
SWIDTH 520 0
DWIDTH 16 0
BBX 16 16 0 -2
BITMAP
0000
1ff8
1008
1008
0000
0420
07e0
0420
0000
1008
1008
1ff8
0000
0000
0000
0000
ENDCHAR
STARTCHAR 039F
ENCODING 927
SWIDTH 520 0
DWIDTH 16 0
BBX 16 16 0 -2
BITMAP
0000
07c0
0820
1010
2008
2008
2008
2008
2008
1010
0820
07c0
0000
0000
0000
0000
ENDCHAR
STARTCHAR 03A0
ENCODING 928
SWIDTH 520 0
DWIDTH 16 0
BBX 16 16 0 -2
BITMAP
0000
7ffc
2008
2008
2008
2008
2008
2008
2008
2008
2008
701c
0000
0000
0000
0000
ENDCHAR
STARTCHAR 03A1
ENCODING 929
SWIDTH 520 0
DWIDTH 16 0
BBX 16 16 0 -2
BITMAP
0000
7fe0
2010
2008
2008
2010
3fe0
2000
2000
2000
2000
7000
0000
0000
0000
0000
ENDCHAR
STARTCHAR 03A3
ENCODING 931
SWIDTH 520 0
DWIDTH 16 0
BBX 16 16 0 -2
BITMAP
0000
7ff8
2008
1008
0800
0400
0200
0400
0800
1008
2008
7ff8
0000
0000
0000
0000
ENDCHAR
STARTCHAR 03A4
ENCODING 932
SWIDTH 520 0
DWIDTH 16 0
BBX 16 16 0 -2
BITMAP
0000
7ffc
4104
4104
0100
0100
0100
0100
0100
0100
0100
0380
0000
0000
0000
0000
ENDCHAR
STARTCHAR 03A5
ENCODING 933
SWIDTH 520 0
DWIDTH 16 0
BBX 16 16 0 -2
BITMAP
0000
0040
06a0
0900
0100
0100
0100
0100
0100
0100
0100
0380
0000
0000
0000
0000
ENDCHAR
STARTCHAR 03A6
ENCODING 934
SWIDTH 520 0
DWIDTH 16 0
BBX 16 16 0 -2
BITMAP
0000
0380
0100
0fe0
1110
2108
2108
2108
1110
0fe0
0100
0380
0000
0000
0000
0000
ENDCHAR
STARTCHAR 03A7
ENCODING 935
SWIDTH 520 0
DWIDTH 16 0
BBX 16 16 0 -2
BITMAP
0000
701c
1010
0820
0440
0280
0100
0280
0440
0820
1010
701c
0000
0000
0000
0000
ENDCHAR
STARTCHAR 03A8
ENCODING 936
SWIDTH 520 0
DWIDTH 16 0
BBX 16 16 0 -2
BITMAP
0000
4384
2108
1110
1110
1110
1110
0fe0
0100
0100
0100
0380
0000
0000
0000
0000
ENDCHAR
STARTCHAR 03A9
ENCODING 937
SWIDTH 520 0
DWIDTH 16 0
BBX 16 16 0 -2
BITMAP
0000
07c0
0820
1010
2008
2008
2008
2008
1010
4824
4444
7c7c
0000
0000
0000
0000
ENDCHAR
STARTCHAR 03B1
ENCODING 945
SWIDTH 520 0
DWIDTH 16 0
BBX 16 16 0 -2
BITMAP
0000
0000
0000
0740
08c0
1040
1040
1040
1040
1040
08d0
0720
0000
0000
0000
0000
ENDCHAR
STARTCHAR 03B2
ENCODING 946
SWIDTH 520 0
DWIDTH 16 0
BBX 16 16 0 -2
BITMAP
0000
0780
0840
0840
0880
0f00
08c0
0820
0820
0820
0c40
0b80
0800
0800
0800
0000
ENDCHAR
STARTCHAR 03B3
ENCODING 947
SWIDTH 520 0
DWIDTH 16 0
BBX 16 16 0 -2
BITMAP
0000
0000
0000
0c10
1220
2220
0140
0140
0180
0180
0180
0100
0100
0100
0100
0000
ENDCHAR
STARTCHAR 03B4
ENCODING 948
SWIDTH 520 0
DWIDTH 16 0
BBX 16 16 0 -2
BITMAP
0000
0380
0440
0200
0100
0280
0440
0820
0820
0820
0440
0380
0000
0000
0000
0000
ENDCHAR
STARTCHAR 03B5
ENCODING 949
SWIDTH 520 0
DWIDTH 16 0
BBX 16 16 0 -2
BITMAP
0000
0000
0000
0380
0440
0400
0200
0180
0200
0400
0440
0380
0000
0000
0000
0000
ENDCHAR
STARTCHAR 03B6
ENCODING 950
SWIDTH 520 0
DWIDTH 16 0
BBX 16 16 0 -2
BITMAP
0000
0200
0440
04c0
0300
0200
0400
0800
0800
0800
0400
03c0
0020
0020
03c0
0000
ENDCHAR
STARTCHAR 03B7
ENCODING 951
SWIDTH 520 0
DWIDTH 16 0
BBX 16 16 0 -2
BITMAP
0000
0000
0000
01c0
0a20
1420
0420
0420
0420
0420
0420
0420
0020
0020
0020
0000
ENDCHAR
STARTCHAR 03B8
ENCODING 952
SWIDTH 520 0
DWIDTH 16 0
BBX 16 16 0 -2
BITMAP
0000
0380
0440
0820
0820
0820
0fe0
0820
0820
0820
0440
0380
0000
0000
0000
0000
ENDCHAR
STARTCHAR 03B9
ENCODING 953
SWIDTH 520 0
DWIDTH 16 0
BBX 16 16 0 -2
BITMAP
0000
0000
0000
0300
0100
0100
0100
0100
0100
0100
0100
0140
0180
0000
0000
0000
ENDCHAR
STARTCHAR 03BA
ENCODING 954
SWIDTH 520 0
DWIDTH 16 0
BBX 16 16 0 -2
BITMAP
0000
0000
0000
1830
0840
0880
0d00
0a00
0900
0880
0840
1c70
0000
0000
0000
0000
ENDCHAR
STARTCHAR 03BB
ENCODING 955
SWIDTH 520 0
DWIDTH 16 0
BBX 16 16 0 -2
BITMAP
0400
0a00
0200
0100
0100
0100
0300
0280
0280
0450
0450
0820
0000
0000
0000
0000
ENDCHAR
STARTCHAR 03BC
ENCODING 956
SWIDTH 520 0
DWIDTH 16 0
BBX 16 16 0 -2
BITMAP
0000
0000
0000
0840
0840
0840
0840
0840
0840
0840
0cd0
0b20
0800
0800
0800
0000
ENDCHAR
STARTCHAR 03BD
ENCODING 957
SWIDTH 520 0
DWIDTH 16 0
BBX 16 16 0 -2
BITMAP
0000
0000
0000
1820
0810
0420
0420
0420
0240
0240
0280
0100
0000
0000
0000
0000
ENDCHAR
STARTCHAR 03BE
ENCODING 958
SWIDTH 520 0
DWIDTH 16 0
BBX 16 16 0 -2
BITMAP
0000
0400
0800
0780
0800
0800
0780
0400
0800
0800
0800
07c0
0020
0220
01c0
0000
ENDCHAR
STARTCHAR 03BF
ENCODING 959
SWIDTH 520 0
DWIDTH 16 0
BBX 16 16 0 -2
BITMAP
0000
0000
0000
0780
0840
1020
1020
1020
1020
1020
0840
0780
0000
0000
0000
0000
ENDCHAR
STARTCHAR 03C0
ENCODING 960
SWIDTH 520 0
DWIDTH 16 0
BBX 16 16 0 -2
BITMAP
0000
0000
0000
1ff8
2440
0440
0440
0440
0440
0440
0850
1020
0000
0000
0000
0000
ENDCHAR
STARTCHAR 03C1
ENCODING 961
SWIDTH 520 0
DWIDTH 16 0
BBX 16 16 0 -2
BITMAP
0000
0000
0000
0780
0840
1020
1020
1020
1020
1820
1440
1380
1000
1000
1000
0000
ENDCHAR
STARTCHAR 03C3
ENCODING 963
SWIDTH 520 0
DWIDTH 16 0
BBX 16 16 0 -2
BITMAP
0000
0000
0000
07f0
0840
1020
1020
1020
1020
1020
0840
0780
0000
0000
0000
0000
ENDCHAR
STARTCHAR 03C4
ENCODING 964
SWIDTH 520 0
DWIDTH 16 0
BBX 16 16 0 -2
BITMAP
0000
0000
0000
07c0
0900
0100
0100
0100
0100
0100
0140
0080
0000
0000
0000
0000
ENDCHAR
STARTCHAR 03C5
ENCODING 965
SWIDTH 520 0
DWIDTH 16 0
BBX 16 16 0 -2
BITMAP
0000
0000
0000
0840
1420
0420
0420
0420
0420
0420
0420
03c0
0000
0000
0000
0000
ENDCHAR
STARTCHAR 03C6
ENCODING 966
SWIDTH 520 0
DWIDTH 16 0
BBX 16 16 0 -2
BITMAP
0000
0100
0100
07c0
0920
1110
1110
1110
1110
1110
0920
07c0
0100
0100
0100
0000
ENDCHAR
STARTCHAR 03C7
ENCODING 967
SWIDTH 520 0
DWIDTH 16 0
BBX 16 16 0 -2
BITMAP
0000
0810
1420
0420
0240
0280
0100
0100
0280
0480
0840
0850
1020
0000
0000
0000
ENDCHAR
STARTCHAR 03C8
ENCODING 968
SWIDTH 520 0
DWIDTH 16 0
BBX 16 16 0 -2
BITMAP
0000
0100
0100
1140
2920
0920
0920
0920
0920
0920
0920
07c0
0100
0100
0100
0000
ENDCHAR
STARTCHAR 03C9
ENCODING 969
SWIDTH 520 0
DWIDTH 16 0
BBX 16 16 0 -2
BITMAP
0000
0000
0000
0440
0820
1110
1110
1110
1110
1110
0aa0
0440
0000
0000
0000
0000
ENDCHAR
STARTCHAR 0401
ENCODING 1025
SWIDTH 520 0
DWIDTH 16 0
BBX 16 16 0 -2
BITMAP
0820
0000
7ff8
2008
2008
2020
3fe0
2020
2000
2008
2008
7ff8
0000
0000
0000
0000
ENDCHAR
STARTCHAR 0410
ENCODING 1040
SWIDTH 520 0
DWIDTH 16 0
BBX 16 16 0 -2
BITMAP
0000
0100
0280
0280
0440
0440
0820
0fe0
1010
1010
2008
701c
0000
0000
0000
0000
ENDCHAR
STARTCHAR 0411
ENCODING 1041
SWIDTH 520 0
DWIDTH 16 0
BBX 16 16 0 -2
BITMAP
0000
7ff8
2008
2008
2000
2000
3fe0
2010
2008
2008
2010
7fe0
0000
0000
0000
0000
ENDCHAR
STARTCHAR 0412
ENCODING 1042
SWIDTH 520 0
DWIDTH 16 0
BBX 16 16 0 -2
BITMAP
0000
7fe0
2010
2008
2008
2010
3fe0
2010
2008
2008
2010
7fe0
0000
0000
0000
0000
ENDCHAR
STARTCHAR 0413
ENCODING 1043
SWIDTH 520 0
DWIDTH 16 0
BBX 16 16 0 -2
BITMAP
0000
7ff8
2008
2008
2000
2000
2000
2000
2000
2000
2000
7000
0000
0000
0000
0000
ENDCHAR
STARTCHAR 0414
ENCODING 1044
SWIDTH 520 0
DWIDTH 16 0
BBX 16 16 0 -2
BITMAP
0000
1ff8
0410
0410
0410
0410
0410
0810
0810
1010
3ff8
2008
0000
0000
0000
0000
ENDCHAR
STARTCHAR 0415
ENCODING 1045
SWIDTH 520 0
DWIDTH 16 0
BBX 16 16 0 -2
BITMAP
0000
7ff8
2008
2008
2000
2020
3fe0
2020
2000
2008
2008
7ff8
0000
0000
0000
0000
ENDCHAR
STARTCHAR 0416
ENCODING 1046
SWIDTH 520 0
DWIDTH 16 0
BBX 16 16 0 -2
BITMAP
0000
3398
4924
0920
0540
0380
0540
0920
0920
1110
1110
638c
0000
0000
0000
0000
ENDCHAR
STARTCHAR 0417
ENCODING 1047
SWIDTH 520 0
DWIDTH 16 0
BBX 16 16 0 -2
BITMAP
0000
17e0
1810
1008
0008
0010
01e0
0010
2008
2008
1010
0fe0
0000
0000
0000
0000
ENDCHAR
STARTCHAR 0418
ENCODING 1048
SWIDTH 520 0
DWIDTH 16 0
BBX 16 16 0 -2
BITMAP
0000
700c
2008
2018
2028
20c8
2308
2408
2808
3008
2008
601c
0000
0000
0000
0000
ENDCHAR
STARTCHAR 0419
ENCODING 1049
SWIDTH 520 0
DWIDTH 16 0
BBX 16 16 0 -2
BITMAP
0440
744c
2388
2018
2028
20c8
2308
2408
2808
3008
2008
601c
0000
0000
0000
0000
ENDCHAR
STARTCHAR 041A
ENCODING 1050
SWIDTH 520 0
DWIDTH 16 0
BBX 16 16 0 -2
BITMAP
0000
7060
2080
2100
2200
3c00
2200
2100
2080
2040
2020
7038
0000
0000
0000
0000
ENDCHAR
STARTCHAR 041B
ENCODING 1051
SWIDTH 520 0
DWIDTH 16 0
BBX 16 16 0 -2
BITMAP
0000
1ff0
0820
0820
0820
0820
0820
0820
0820
0820
2820
1070
0000
0000
0000
0000
ENDCHAR
STARTCHAR 041C
ENCODING 1052
SWIDTH 520 0
DWIDTH 16 0
BBX 16 16 0 -2
BITMAP
0000
701c
2008
3018
2828
2828
2448
2448
2288
2108
2008
701c
0000
0000
0000
0000
ENDCHAR
STARTCHAR 041D
ENCODING 1053
SWIDTH 520 0
DWIDTH 16 0
BBX 16 16 0 -2
BITMAP
0000
701c
2008
2008
2008
3ff8
2008
2008
2008
2008
701c
0000
0000
0000
0000
0000
ENDCHAR
STARTCHAR 041E
ENCODING 1054
SWIDTH 520 0
DWIDTH 16 0
BBX 16 16 0 -2
BITMAP
0000
07c0
0820
1010
2008
2008
2008
2008
2008
1010
0820
07c0
0000
0000
0000
0000
ENDCHAR
STARTCHAR 041F
ENCODING 1055
SWIDTH 520 0
DWIDTH 16 0
BBX 16 16 0 -2
BITMAP
0000
7ff0
2020
2020
2020
2020
2020
2020
2020
2020
2020
7070
0000
0000
0000
0000
ENDCHAR
STARTCHAR 0420
ENCODING 1056
SWIDTH 520 0
DWIDTH 16 0
BBX 16 16 0 -2
BITMAP
0000
7fe0
2010
2008
2008
2010
3fe0
2000
2000
2000
2000
7000
0000
0000
0000
0000
ENDCHAR
STARTCHAR 0421
ENCODING 1057
SWIDTH 520 0
DWIDTH 16 0
BBX 16 16 0 -2
BITMAP
0000
0fd0
1030
2010
2000
2000
2000
2000
2000
2008
1010
0fe0
0000
0000
0000
0000
ENDCHAR
STARTCHAR 0422
ENCODING 1058
SWIDTH 520 0
DWIDTH 16 0
BBX 16 16 0 -2
BITMAP
0000
7ffc
4104
4104
0100
0100
0100
0100
0100
0100
0100
0380
0000
0000
0000
0000
ENDCHAR
STARTCHAR 0423
ENCODING 1059
SWIDTH 520 0
DWIDTH 16 0
BBX 16 16 0 -2
BITMAP
0000
1c1c
0808
0808
0410
0410
0220
0140
0080
0100
1200
0c00
0000
0000
0000
0000
ENDCHAR
STARTCHAR 0424
ENCODING 1060
SWIDTH 520 0
DWIDTH 16 0
BBX 16 16 0 -2
BITMAP
0000
0380
0100
1ff0
2108
4104
4104
4104
2108
1ff0
0100
0380
0000
0000
0000
0000
ENDCHAR
STARTCHAR 0425
ENCODING 1061
SWIDTH 520 0
DWIDTH 16 0
BBX 16 16 0 -2
BITMAP
0000
701c
1010
0820
0440
0280
0100
0280
0440
0820
1010
701c
0000
0000
0000
0000
ENDCHAR
STARTCHAR 0426
ENCODING 1062
SWIDTH 520 0
DWIDTH 16 0
BBX 16 16 0 -2
BITMAP
0000
3838
1010
1010
1010
1010
1010
1010
1010
1010
1010
3ff8
0004
0004
0000
0000
ENDCHAR
STARTCHAR 0427
ENCODING 1063
SWIDTH 520 0
DWIDTH 16 0
BBX 16 16 0 -2
BITMAP
0000
3838
1010
1010
1010
1010
0830
07d0
0010
0010
0010
0038
0000
0000
0000
0000
ENDCHAR
STARTCHAR 0428
ENCODING 1064
SWIDTH 520 0
DWIDTH 16 0
BBX 16 16 0 -2
BITMAP
0000
739c
2108
2108
2108
2108
2108
2108
2108
2108
2108
7ffc
0000
0000
0000
0000
ENDCHAR
STARTCHAR 0429
ENCODING 1065
SWIDTH 520 0
DWIDTH 16 0
BBX 16 16 0 -2
BITMAP
0000
739c
2108
2108
2108
2108
2108
2108
2108
2108
2108
7ffc
0004
0004
0000
0000
ENDCHAR
STARTCHAR 042A
ENCODING 1066
SWIDTH 520 0
DWIDTH 16 0
BBX 16 16 0 -2
BITMAP
0000
3e00
2400
0400
0400
07f0
0408
0404
0404
0404
0408
0ff0
0000
0000
0000
0000
ENDCHAR
STARTCHAR 042B
ENCODING 1067
SWIDTH 520 0
DWIDTH 16 0
BBX 16 16 0 -2
BITMAP
0000
701c
2008
2008
2008
3f08
2088
2048
2048
2048
2088
7f1c
0000
0000
0000
0000
ENDCHAR
STARTCHAR 042C
ENCODING 1068
SWIDTH 520 0
DWIDTH 16 0
BBX 16 16 0 -2
BITMAP
0000
1c00
0800
0800
0800
0fe0
0810
0808
0808
0808
0810
1fe0
0000
0000
0000
0000
ENDCHAR
STARTCHAR 042D
ENCODING 1069
SWIDTH 520 0
DWIDTH 16 0
BBX 16 16 0 -2
BITMAP
0000
2fe0
3010
2008
0004
0004
01fc
0004
0004
1008
0810
07e0
0000
0000
0000
0000
ENDCHAR
STARTCHAR 042E
ENCODING 1070
SWIDTH 520 0
DWIDTH 16 0
BBX 16 16 0 -2
BITMAP
0000
71f0
2208
2404
2404
2404
3c04
2404
2404
2404
2208
71f0
0000
0000
0000
0000
ENDCHAR
STARTCHAR 042F
ENCODING 1071
SWIDTH 520 0
DWIDTH 16 0
BBX 16 16 0 -2
BITMAP
0000
03fc
0408
0808
0808
0408
03f8
0088
0308
0408
0808
381c
0000
0000
0000
0000
ENDCHAR
STARTCHAR 0430
ENCODING 1072
SWIDTH 520 0
DWIDTH 16 0
BBX 16 16 0 -2
BITMAP
0000
0000
0000
0780
0840
0040
0f40
10c0
1040
1040
08d0
0720
0000
0000
0000
0000
ENDCHAR
STARTCHAR 0431
ENCODING 1073
SWIDTH 520 0
DWIDTH 16 0
BBX 16 16 0 -2
BITMAP
0020
07c0
0800
1000
1780
1840
1020
1020
1020
1020
0840
0780
0000
0000
0000
0000
ENDCHAR
STARTCHAR 0432
ENCODING 1074
SWIDTH 520 0
DWIDTH 16 0
BBX 16 16 0 -2
BITMAP
0000
0000
0000
1f80
0840
0840
0840
0f80
0840
0840
0840
1f80
0000
0000
0000
0000
ENDCHAR
STARTCHAR 0433
ENCODING 1075
SWIDTH 520 0
DWIDTH 16 0
BBX 16 16 0 -2
BITMAP
0000
0000
0000
1fe0
0820
0800
0800
0800
0800
0800
0800
1c00
0000
0000
0000
0000
ENDCHAR
STARTCHAR 0434
ENCODING 1076
SWIDTH 520 0
DWIDTH 16 0
BBX 16 16 0 -2
BITMAP
0000
0000
0000
07f0
0220
0220
0220
0220
0420
0420
0820
1ff0
1010
0000
0000
0000
ENDCHAR
STARTCHAR 0435
ENCODING 1077
SWIDTH 520 0
DWIDTH 16 0
BBX 16 16 0 -2
BITMAP
0000
0000
0000
0780
0840
1020
1020
1fe0
1000
1000
0820
07c0
0000
0000
0000
0000
ENDCHAR
STARTCHAR 0436
ENCODING 1078
SWIDTH 520 0
DWIDTH 16 0
BBX 16 16 0 -2
BITMAP
0000
0000
0000
3398
0920
0920
0540
07c0
0920
0920
1110
2388
0000
0000
0000
0000
ENDCHAR
STARTCHAR 0437
ENCODING 1079
SWIDTH 520 0
DWIDTH 16 0
BBX 16 16 0 -2
BITMAP
0000
0000
0000
0bc0
0c20
0820
0020
01c0
0020
0020
0820
07c0
0000
0000
0000
0000
ENDCHAR
STARTCHAR 0438
ENCODING 1080
SWIDTH 520 0
DWIDTH 16 0
BBX 16 16 0 -2
BITMAP
0000
0000
0000
3870
1020
1060
10a0
1120
1220
1420
1820
3070
0000
0000
0000
0000
ENDCHAR
STARTCHAR 0439
ENCODING 1081
SWIDTH 520 0
DWIDTH 16 0
BBX 16 16 0 -2
BITMAP
0000
0480
0300
3870
1020
1060
10a0
1120
1220
1420
1820
3070
0000
0000
0000
0000
ENDCHAR
STARTCHAR 043A
ENCODING 1082
SWIDTH 520 0
DWIDTH 16 0
BBX 16 16 0 -2
BITMAP
0000
0000
0000
1c60
0880
0880
0900
0e00
0900
0880
0890
1c60
0000
0000
0000
0000
ENDCHAR
STARTCHAR 043B
ENCODING 1083
SWIDTH 520 0
DWIDTH 16 0
BBX 16 16 0 -2
BITMAP
0000
0000
0000
0ff0
0420
0420
0420
0420
0420
1420
0870
0000
0000
0000
0000
0000
ENDCHAR
STARTCHAR 043C
ENCODING 1084
SWIDTH 520 0
DWIDTH 16 0
BBX 16 16 0 -2
BITMAP
0000
0000
0000
3838
1010
1830
1450
1290
1290
1110
1010
3838
0000
0000
0000
0000
ENDCHAR
STARTCHAR 043D
ENCODING 1085
SWIDTH 520 0
DWIDTH 16 0
BBX 16 16 0 -2
BITMAP
0000
0000
0000
1c70
0820
0820
0820
0fe0
0820
0820
0820
1c70
0000
0000
0000
0000
ENDCHAR
STARTCHAR 043E
ENCODING 1086
SWIDTH 520 0
DWIDTH 16 0
BBX 16 16 0 -2
BITMAP
0000
0000
0000
0380
0440
0820
0820
0820
0820
0820
0440
0380
0000
0000
0000
0000
ENDCHAR
STARTCHAR 043F
ENCODING 1087
SWIDTH 520 0
DWIDTH 16 0
BBX 16 16 0 -2
BITMAP
0000
0000
0000
1fe0
0840
0840
0840
0840
0840
0840
0840
1ce0
0000
0000
0000
0000
ENDCHAR
STARTCHAR 0440
ENCODING 1088
SWIDTH 520 0
DWIDTH 16 0
BBX 16 16 0 -2
BITMAP
0000
0000
0000
0b80
1c40
0820
0820
0820
0820
0c40
0b80
0800
0800
0800
1c00
0000
ENDCHAR
STARTCHAR 0441
ENCODING 1089
SWIDTH 520 0
DWIDTH 16 0
BBX 16 16 0 -2
BITMAP
0000
0000
0000
0780
0840
1040
1000
1000
1000
1020
0840
0780
0000
0000
0000
0000
ENDCHAR
STARTCHAR 0442
ENCODING 1090
SWIDTH 520 0
DWIDTH 16 0
BBX 16 16 0 -2
BITMAP
0000
0000
0000
1ff0
1110
0100
0100
0100
0100
0100
0100
0380
0000
0000
0000
0000
ENDCHAR
STARTCHAR 0443
ENCODING 1091
SWIDTH 520 0
DWIDTH 16 0
BBX 16 16 0 -2
BITMAP
0000
0000
0000
1c70
0820
0820
0440
0440
0480
0280
0100
0100
0200
1400
0800
0000
ENDCHAR
STARTCHAR 0444
ENCODING 1092
SWIDTH 520 0
DWIDTH 16 0
BBX 16 16 0 -2
BITMAP
0000
0100
0100
0100
0d60
1390
1110
1110
1110
1110
1390
0d60
0100
0100
0380
0000
ENDCHAR
STARTCHAR 0445
ENCODING 1093
SWIDTH 520 0
DWIDTH 16 0
BBX 16 16 0 -2
BITMAP
0000
0000
0000
1c70
0820
0440
0280
0100
0280
0440
0820
1c70
0000
0000
0000
0000
ENDCHAR
STARTCHAR 0446
ENCODING 1094
SWIDTH 520 0
DWIDTH 16 0
BBX 16 16 0 -2
BITMAP
0000
0000
0000
1c70
0820
0820
0820
0820
0820
0820
0820
1ff0
0010
0000
0000
0000
ENDCHAR
STARTCHAR 0447
ENCODING 1095
SWIDTH 520 0
DWIDTH 16 0
BBX 16 16 0 -2
BITMAP
0000
0000
0000
1ce0
0840
0840
0840
07c0
0040
0040
0040
00e0
0000
0000
0000
0000
ENDCHAR
STARTCHAR 0448
ENCODING 1096
SWIDTH 520 0
DWIDTH 16 0
BBX 16 16 0 -2
BITMAP
0000
0000
0000
3bb8
1110
1110
1110
1110
1110
1110
1110
3ff8
0000
0000
0000
0000
ENDCHAR
STARTCHAR 0449
ENCODING 1097
SWIDTH 520 0
DWIDTH 16 0
BBX 16 16 0 -2
BITMAP
0000
0000
0000
3bb8
1110
1110
1110
1110
1110
1110
1110
3ff8
0008
0000
0000
0000
ENDCHAR
STARTCHAR 044A
ENCODING 1098
SWIDTH 520 0
DWIDTH 16 0
BBX 16 16 0 -2
BITMAP
0000
0000
0000
3c00
2800
0800
0800
0fc0
0820
0820
0820
1fc0
0000
0000
0000
0000
ENDCHAR
STARTCHAR 044B
ENCODING 1099
SWIDTH 520 0
DWIDTH 16 0
BBX 16 16 0 -2
BITMAP
0000
0000
0000
3838
1010
1010
1010
1f10
1090
1090
1090
3f38
0000
0000
0000
0000
ENDCHAR
STARTCHAR 044C
ENCODING 1100
SWIDTH 520 0
DWIDTH 16 0
BBX 16 16 0 -2
BITMAP
0000
0000
0000
1c00
0800
0800
0800
0fc0
0820
0820
0820
1fc0
0000
0000
0000
0000
ENDCHAR
STARTCHAR 044D
ENCODING 1101
SWIDTH 520 0
DWIDTH 16 0
BBX 16 16 0 -2
BITMAP
0000
0000
0000
0780
0840
0020
0020
01e0
0020
0820
0840
0780
0000
0000
0000
0000
ENDCHAR
STARTCHAR 044E
ENCODING 1102
SWIDTH 520 0
DWIDTH 16 0
BBX 16 16 0 -2
BITMAP
0000
0000
0000
38c0
1120
1210
1210
1e10
1210
1210
1120
38c0
0000
0000
0000
0000
ENDCHAR
STARTCHAR 044F
ENCODING 1103
SWIDTH 520 0
DWIDTH 16 0
BBX 16 16 0 -2
BITMAP
0000
0000
0000
03f0
0420
0420
0420
03e0
0120
0220
0a20
0470
0000
0000
0000
0000
ENDCHAR
STARTCHAR 0451
ENCODING 1105
SWIDTH 520 0
DWIDTH 16 0
BBX 16 16 0 -2
BITMAP
0000
0480
0000
0780
0840
1020
1020
1fe0
1000
1000
0820
07c0
0000
0000
0000
0000
ENDCHAR
STARTCHAR 2015
ENCODING 8213
SWIDTH 520 0
DWIDTH 16 0
BBX 16 16 0 -2
BITMAP
0000
0000
0000
0000
0000
0000
0000
3ff8
0000
0000
0000
0000
0000
0000
0000
0000
ENDCHAR
STARTCHAR 2016
ENCODING 8214
SWIDTH 520 0
DWIDTH 16 0
BBX 16 16 0 -2
BITMAP
0280
0280
0280
0280
0280
0280
0280
0280
0280
0280
0280
0280
0280
0280
0280
0280
ENDCHAR
STARTCHAR 2018
ENCODING 8216
SWIDTH 520 0
DWIDTH 16 0
BBX 16 16 0 -2
BITMAP
0000
0002
0004
0008
000c
000c
0000
0000
0000
0000
0000
0000
0000
0000
0000
0000
ENDCHAR
STARTCHAR 2019
ENCODING 8217
SWIDTH 520 0
DWIDTH 16 0
BBX 16 16 0 -2
BITMAP
0000
6000
6000
2000
4000
8000
0000
0000
0000
0000
0000
0000
0000
0000
0000
0000
ENDCHAR
STARTCHAR 201C
ENCODING 8220
SWIDTH 520 0
DWIDTH 16 0
BBX 16 16 0 -2
BITMAP
0000
0044
0088
0110
0198
0198
0000
0000
0000
0000
0000
0000
0000
0000
0000
0000
ENDCHAR
STARTCHAR 201D
ENCODING 8221
SWIDTH 520 0
DWIDTH 16 0
BBX 16 16 0 -2
BITMAP
0000
0198
0198
0088
0110
0220
0000
0000
0000
0000
0000
0000
0000
0000
0000
0000
ENDCHAR
STARTCHAR 2026
ENCODING 8230
SWIDTH 520 0
DWIDTH 16 0
BBX 16 16 0 -2
BITMAP
0000
0000
0000
0000
0000
0000
6318
6318
0000
0000
0000
0000
0000
0000
0000
0000
ENDCHAR
STARTCHAR 2030
ENCODING 8240
SWIDTH 520 0
DWIDTH 16 0
BBX 16 16 0 -2
BITMAP
0008
3010
4820
4840
4880
4900
3200
0400
0800
118c
2252
4252
8252
0252
018c
0000
ENDCHAR
STARTCHAR 2032
ENCODING 8242
SWIDTH 520 0
DWIDTH 16 0
BBX 16 16 0 -2
BITMAP
0000
0100
0100
0100
0200
0200
0200
0400
0000
0000
0000
0000
0000
0000
0000
0000
ENDCHAR
STARTCHAR 2033
ENCODING 8243
SWIDTH 520 0
DWIDTH 16 0
BBX 16 16 0 -2
BITMAP
0000
0220
0220
0220
0440
0440
0440
0880
0000
0000
0000
0000
0000
0000
0000
0000
ENDCHAR
STARTCHAR 203B
ENCODING 8251
SWIDTH 520 0
DWIDTH 16 0
BBX 16 16 0 -2
BITMAP
0000
4304
2308
1010
0820
0440
0280
610c
628c
0440
0820
1010
2308
4304
8002
0000
ENDCHAR
STARTCHAR 2103
ENCODING 8451
SWIDTH 520 0
DWIDTH 16 0
BBX 16 16 0 -2
BITMAP
2000
53f4
240c
0804
0804
1000
1000
1000
1000
1000
1000
0804
0804
0408
03f0
0000
ENDCHAR
STARTCHAR 2116
ENCODING 8470
SWIDTH 520 0
DWIDTH 16 0
BBX 16 16 0 -2
BITMAP
6080
2140
3100
3100
2918
2924
2924
2924
2524
2524
2524
2524
2318
2300
a17e
4100
ENDCHAR
STARTCHAR 2160
ENCODING 8544
SWIDTH 520 0
DWIDTH 16 0
BBX 16 16 0 -2
BITMAP
0000
0380
0100
0100
0100
0100
0100
0100
0100
0100
0100
0100
0100
0100
0380
0000
ENDCHAR
STARTCHAR 2161
ENCODING 8545
SWIDTH 520 0
DWIDTH 16 0
BBX 16 16 0 -2
BITMAP
0000
0ee0
0440
0440
0440
0440
0440
0440
0440
0440
0440
0440
0440
0440
0ee0
0000
ENDCHAR
STARTCHAR 2162
ENCODING 8546
SWIDTH 520 0
DWIDTH 16 0
BBX 16 16 0 -2
BITMAP
0000
3bb8
1110
1110
1110
1110
1110
1110
1110
1110
1110
1110
1110
1110
3bb8
0000
ENDCHAR
STARTCHAR 2163
ENCODING 8547
SWIDTH 520 0
DWIDTH 16 0
BBX 16 16 0 -2
BITMAP
0000
771c
2208
2208
2208
2110
2110
2110
2110
20a0
20a0
20a0
20a0
2040
7040
0000
ENDCHAR
STARTCHAR 2164
ENCODING 8548
SWIDTH 520 0
DWIDTH 16 0
BBX 16 16 0 -2
BITMAP
0000
701c
2008
1010
1010
0820
0820
0820
0440
0440
0440
0280
0280
0100
0100
0000
ENDCHAR
STARTCHAR 2165
ENCODING 8549
SWIDTH 520 0
DWIDTH 16 0
BBX 16 16 0 -2
BITMAP
0000
71dc
2088
2088
2088
1108
1108
1108
1108
0a08
0a08
0a08
0a08
0408
041c
0000
ENDCHAR
STARTCHAR 2166
ENCODING 8550
SWIDTH 520 0
DWIDTH 16 0
BBX 16 16 0 -2
BITMAP
0000
e3fe
4124
4124
4124
2224
2224
2224
2224
1424
1424
1424
1424
0824
087e
0000
ENDCHAR
STARTCHAR 2167
ENCODING 8551
SWIDTH 520 0
DWIDTH 16 0
BBX 16 16 0 -2
BITMAP
0000
e3fe
4154
4154
4154
2254
2254
2254
2254
1454
1454
1454
1454
0854
08fe
0000
ENDCHAR
STARTCHAR 2168
ENCODING 8552
SWIDTH 520 0
DWIDTH 16 0
BBX 16 16 0 -2
BITMAP
0000
ee0e
4404
4208
4208
4110
40a0
4040
40a0
40a0
4110
4110
4208
4404
ee0e
0000
ENDCHAR
STARTCHAR 2169
ENCODING 8553
SWIDTH 520 0
DWIDTH 16 0
BBX 16 16 0 -2
BITMAP
0000
701c
2008
1010
0820
0440
0280
0100
0280
0280
0440
0820
1010
2008
701c
0000
ENDCHAR
STARTCHAR 216A
ENCODING 8554
SWIDTH 520 0
DWIDTH 16 0
BBX 16 16 0 -2
BITMAP
0000
e0ee
4044
2084
1104
0a04
0a04
0404
0a04
0a04
1104
1104
2084
4044
e0ee
0000
ENDCHAR
STARTCHAR 216B
ENCODING 8555
SWIDTH 520 0
DWIDTH 16 0
BBX 16 16 0 -2
BITMAP
0000
e0fe
4054
2094
1114
0a14
0a14
0414
0a14
0a14
1114
1114
2094
4054
e0fe
0000
ENDCHAR
STARTCHAR 2190
ENCODING 8592
SWIDTH 520 0
DWIDTH 16 0
BBX 16 16 0 -2
BITMAP
0000
0000
0000
0000
0000
0800
3800
fffe
3800
0800
0000
0000
0000
0000
0000
0000
ENDCHAR
STARTCHAR 2191
ENCODING 8593
SWIDTH 520 0
DWIDTH 16 0
BBX 16 16 0 -2
BITMAP
0100
0100
0380
0380
07c0
0100
0100
0100
0100
0100
0100
0100
0100
0100
0100
0100
ENDCHAR
STARTCHAR 2192
ENCODING 8594
SWIDTH 520 0
DWIDTH 16 0
BBX 16 16 0 -2
BITMAP
0000
0000
0000
0000
0000
0020
0038
fffe
0038
0020
0000
0000
0000
0000
0000
0000
ENDCHAR
STARTCHAR 2193
ENCODING 8595
SWIDTH 520 0
DWIDTH 16 0
BBX 16 16 0 -2
BITMAP
0100
0100
0100
0100
0100
0100
0100
0100
0100
0100
0100
07c0
0380
0380
0100
0100
ENDCHAR
STARTCHAR 2208
ENCODING 8712
SWIDTH 520 0
DWIDTH 16 0
BBX 16 16 0 -2
BITMAP
0000
0780
1800
2000
2000
4000
4000
7f80
4000
4000
4000
2000
2000
1800
0780
0000
ENDCHAR
STARTCHAR 220F
ENCODING 8719
SWIDTH 520 0
DWIDTH 16 0
BBX 16 16 0 -2
BITMAP
0000
3ff8
1010
1010
1010
1010
1010
1010
1010
1010
1010
1010
1010
1010
783c
0000
ENDCHAR
STARTCHAR 2211
ENCODING 8721
SWIDTH 520 0
DWIDTH 16 0
BBX 16 16 0 -2
BITMAP
0000
7ffc
2004
1004
0800
0400
0200
0100
0200
0400
0800
1004
2004
7ffc
0000
0000
ENDCHAR
STARTCHAR 221A
ENCODING 8730
SWIDTH 520 0
DWIDTH 16 0
BBX 16 16 0 -2
BITMAP
0000
0000
0000
0002
0004
0008
0010
0020
0040
0080
4100
a200
1400
0800
0000
0000
ENDCHAR
STARTCHAR 221D
ENCODING 8733
SWIDTH 520 0
DWIDTH 16 0
BBX 16 16 0 -2
BITMAP
0000
0000
0000
0000
3c7e
4280
4100
8100
8100
4100
4280
3c7e
0000
0000
0000
0000
ENDCHAR
STARTCHAR 221E
ENCODING 8734
SWIDTH 520 0
DWIDTH 16 0
BBX 16 16 0 -2
BITMAP
0000
0000
0000
0000
3c78
4284
8102
8102
8102
4284
3c78
0000
0000
0000
0000
0000
ENDCHAR
STARTCHAR 2220
ENCODING 8736
SWIDTH 520 0
DWIDTH 16 0
BBX 16 16 0 -2
BITMAP
0000
0004
0008
0010
0020
0040
0080
0100
0200
0400
0800
1000
2000
7ffc
0000
0000
ENDCHAR
STARTCHAR 2225
ENCODING 8741
SWIDTH 520 0
DWIDTH 16 0
BBX 16 16 0 -2
BITMAP
0240
0240
0240
0240
0240
0240
0480
0480
0480
0480
0480
0900
0900
0900
0900
0900
ENDCHAR
STARTCHAR 2227
ENCODING 8743
SWIDTH 520 0
DWIDTH 16 0
BBX 16 16 0 -2
BITMAP
0000
0100
0280
0280
0440
0440
0820
0820
1010
1010
2008
2008
2008
4004
4004
0000
ENDCHAR
STARTCHAR 2228
ENCODING 8744
SWIDTH 520 0
DWIDTH 16 0
BBX 16 16 0 -2
BITMAP
0000
4004
4004
2008
2008
2008
1010
1010
0820
0820
0440
0440
0280
0280
0100
0000
ENDCHAR
STARTCHAR 2229
ENCODING 8745
SWIDTH 520 0
DWIDTH 16 0
BBX 16 16 0 -2
BITMAP
0000
07c0
0820
1010
2008
2008
2008
2008
2008
2008
2008
2008
2008
2008
2008
0000
ENDCHAR
STARTCHAR 222A
ENCODING 8746
SWIDTH 520 0
DWIDTH 16 0
BBX 16 16 0 -2
BITMAP
0000
2008
2008
2008
2008
2008
2008
2008
2008
2008
2008
2008
1010
0820
07c0
0000
ENDCHAR
STARTCHAR 222B
ENCODING 8747
SWIDTH 520 0
DWIDTH 16 0
BBX 16 16 0 -2
BITMAP
0000
00c0
0100
0100
0100
0100
0100
0100
0100
0100
0100
0100
0100
0100
0600
0000
ENDCHAR
STARTCHAR 222E
ENCODING 8750
SWIDTH 520 0
DWIDTH 16 0
BBX 16 16 0 -2
BITMAP
0060
0090
0080
0100
0100
0780
0940
0940
0a40
0a40
0780
0200
0200
0400
2400
1800
ENDCHAR
STARTCHAR 2234
ENCODING 8756
SWIDTH 520 0
DWIDTH 16 0
BBX 16 16 0 -2
BITMAP
0000
0000
0000
0300
0300
0000
0000
0000
0000
0000
0000
3030
3030
0000
0000
0000
ENDCHAR
STARTCHAR 2235
ENCODING 8757
SWIDTH 520 0
DWIDTH 16 0
BBX 16 16 0 -2
BITMAP
0000
0000
3030
3030
0000
0000
0000
0000
0000
0000
0000
0300
0300
0000
0000
0000
ENDCHAR
STARTCHAR 2236
ENCODING 8758
SWIDTH 520 0
DWIDTH 16 0
BBX 16 16 0 -2
BITMAP
0000
0000
0000
0000
0300
0300
0000
0000
0000
0300
0300
0000
0000
0000
0000
0000
ENDCHAR
STARTCHAR 2237
ENCODING 8759
SWIDTH 520 0
DWIDTH 16 0
BBX 16 16 0 -2
BITMAP
0000
0000
0000
1830
1830
0000
0000
0000
0000
0000
1830
1830
0000
0000
0000
0000
ENDCHAR
STARTCHAR 223D
ENCODING 8765
SWIDTH 520 0
DWIDTH 16 0
BBX 16 16 0 -2
BITMAP
0000
0000
0000
0000
3878
4084
4102
8102
8102
4102
4204
3c38
0000
0000
0000
0000
ENDCHAR
STARTCHAR 2248
ENCODING 8776
SWIDTH 520 0
DWIDTH 16 0
BBX 16 16 0 -2
BITMAP
0000
0000
0000
0000
0000
3804
4708
00f0
3804
4708
00f0
0000
0000
0000
0000
0000
ENDCHAR
STARTCHAR 224C
ENCODING 8780
SWIDTH 520 0
DWIDTH 16 0
BBX 16 16 0 -2
BITMAP
0000
0000
1870
2088
4104
4104
4204
2208
1c30
0000
7ffc
0000
7ffc
0000
0000
0000
ENDCHAR
STARTCHAR 2260
ENCODING 8800
SWIDTH 520 0
DWIDTH 16 0
BBX 16 16 0 -2
BITMAP
0010
0020
0020
0040
0040
7ffc
0080
0100
0200
7ffc
0400
0400
0800
1000
1000
2000
ENDCHAR
STARTCHAR 2261
ENCODING 8801
SWIDTH 520 0
DWIDTH 16 0
BBX 16 16 0 -2
BITMAP
0000
0000
0000
0000
0000
7ffc
0000
7ffc
0000
7ffc
0000
0000
0000
0000
0000
0000
ENDCHAR
STARTCHAR 2264
ENCODING 8804
SWIDTH 520 0
DWIDTH 16 0
BBX 16 16 0 -2
BITMAP
0018
0060
0180
0600
1800
6000
8000
6000
9800
6600
1980
0660
0198
0060
0018
0000
ENDCHAR
STARTCHAR 2265
ENCODING 8805
SWIDTH 520 0
DWIDTH 16 0
BBX 16 16 0 -2
BITMAP
3000
0c00
0300
00c0
0030
000c
0002
000c
0032
00cc
0330
0cc0
3300
0c00
3000
0000
ENDCHAR
STARTCHAR 226E
ENCODING 8814
SWIDTH 520 0
DWIDTH 16 0
BBX 16 16 0 -2
BITMAP
0000
0418
0460
0580
0600
1c00
6400
8400
6400
1c00
0600
0580
0460
0418
0000
0000
ENDCHAR
STARTCHAR 226F
ENCODING 8815
SWIDTH 520 0
DWIDTH 16 0
BBX 16 16 0 -2
BITMAP
0000
3040
0c40
0340
00c0
0070
004c
0042
004c
0070
00c0
0340
0c40
3040
0000
0000
ENDCHAR
STARTCHAR 2299
ENCODING 8857
SWIDTH 520 0
DWIDTH 16 0
BBX 16 16 0 -2
BITMAP
0000
0000
0780
1860
2010
2010
4008
4308
4308
4008
2010
2010
1860
0780
0000
0000
ENDCHAR
STARTCHAR 22A5
ENCODING 8869
SWIDTH 520 0
DWIDTH 16 0
BBX 16 16 0 -2
BITMAP
0000
0100
0100
0100
0100
0100
0100
0100
0100
0100
0100
0100
0100
0100
1ff0
0000
ENDCHAR
STARTCHAR 2312
ENCODING 8978
SWIDTH 520 0
DWIDTH 16 0
BBX 16 16 0 -2
BITMAP
0000
0000
0000
0780
1860
2010
2010
4008
4008
4008
0000
0000
0000
0000
0000
0000
ENDCHAR
STARTCHAR 2460
ENCODING 9312
SWIDTH 520 0
DWIDTH 16 0
BBX 16 16 0 -2
BITMAP
07c0
1830
2008
4104
4104
8102
8102
8102
8102
8102
4104
4104
2008
1830
07c0
0000
ENDCHAR
STARTCHAR 2461
ENCODING 9313
SWIDTH 520 0
DWIDTH 16 0
BBX 16 16 0 -2
BITMAP
07c0
1830
2008
47c4
4444
8042
8042
8182
8202
8402
4444
47c4
2008
1830
07c0
0000
ENDCHAR
STARTCHAR 2462
ENCODING 9314
SWIDTH 520 0
DWIDTH 16 0
BBX 16 16 0 -2
BITMAP
07c0
1830
2008
47c4
4444
8042
80c2
8302
80c2
8042
4444
47c4
2008
1830
07c0
0000
ENDCHAR
STARTCHAR 2463
ENCODING 9315
SWIDTH 520 0
DWIDTH 16 0
BBX 16 16 0 -2
BITMAP
07c0
1830
2008
4304
4504
8502
8502
8902
8902
8fc2
4104
4104
2008
1830
07c0
0000
ENDCHAR
STARTCHAR 2464
ENCODING 9316
SWIDTH 520 0
DWIDTH 16 0
BBX 16 16 0 -2
BITMAP
07c0
1830
2008
47c4
4404
8402
8402
87c2
8042
8042
4444
47c4
2008
1830
07c0
0000
ENDCHAR
STARTCHAR 2465
ENCODING 9317
SWIDTH 520 0
DWIDTH 16 0
BBX 16 16 0 -2
BITMAP
07c0
1830
2008
47c4
4444
8402
8402
87c2
8442
8442
4444
47c4
2008
1830
07c0
0000
ENDCHAR
STARTCHAR 2466
ENCODING 9318
SWIDTH 520 0
DWIDTH 16 0
BBX 16 16 0 -2
BITMAP
07c0
1830
2008
47c4
4444
8042
8082
8082
8102
8102
4104
4104
2008
1830
07c0
0000
ENDCHAR
STARTCHAR 2467
ENCODING 9319
SWIDTH 520 0
DWIDTH 16 0
BBX 16 16 0 -2
BITMAP
07c0
1830
2008
47c4
4444
8442
8442
8382
8442
8442
4444
47c4
2008
1830
07c0
0000
ENDCHAR
STARTCHAR 2468
ENCODING 9320
SWIDTH 520 0
DWIDTH 16 0
BBX 16 16 0 -2
BITMAP
07c0
1830
2008
47c4
4444
8442
8442
87c2
8042
8042
4444
47c4
2008
1830
07c0
0000
ENDCHAR
STARTCHAR 2469
ENCODING 9321
SWIDTH 520 0
DWIDTH 16 0
BBX 16 16 0 -2
BITMAP
07c0
1830
2008
4be4
4a24
8a22
8a22
8a22
8a22
8a22
4a24
4be4
2008
1830
07c0
0000
ENDCHAR
STARTCHAR 2474
ENCODING 9332
SWIDTH 520 0
DWIDTH 16 0
BBX 16 16 0 -2
BITMAP
0000
4004
8102
8102
8102
8102
8102
8102
8102
8102
8102
8102
8102
8102
4004
0000
ENDCHAR
STARTCHAR 2475
ENCODING 9333
SWIDTH 520 0
DWIDTH 16 0
BBX 16 16 0 -2
BITMAP
0000
4004
8782
8842
8842
8042
8042
8042
8082
8302
8402
8842
8842
8fc2
4004
0000
ENDCHAR
STARTCHAR 2476
ENCODING 9334
SWIDTH 520 0
DWIDTH 16 0
BBX 16 16 0 -2
BITMAP
0000
4004
8782
8842
8842
8042
8082
8302
8082
8042
8042
8842
8842
8782
4004
0000
ENDCHAR
STARTCHAR 2477
ENCODING 9335
SWIDTH 520 0
DWIDTH 16 0
BBX 16 16 0 -2
BITMAP
0000
4184
8282
8282
8282
8482
8482
8882
8882
8fe2
8082
8082
8082
8082
4004
0000
ENDCHAR
STARTCHAR 2478
ENCODING 9336
SWIDTH 520 0
DWIDTH 16 0
BBX 16 16 0 -2
BITMAP
0000
4004
8fc2
8802
8802
8802
8b82
8c42
8842
8042
8042
8842
8842
8782
4004
0000
ENDCHAR
STARTCHAR 2479
ENCODING 9337
SWIDTH 520 0
DWIDTH 16 0
BBX 16 16 0 -2
BITMAP
0000
4004
8782
8842
8842
8802
8802
8b82
8c42
8842
8842
8842
8842
8782
4004
0000
ENDCHAR
STARTCHAR 247A
ENCODING 9338
SWIDTH 520 0
DWIDTH 16 0
BBX 16 16 0 -2
BITMAP
0000
4004
8fe2
8822
8822
8042
8082
8082
8082
8102
8102
8102
8102
8102
4004
0000
ENDCHAR
STARTCHAR 247B
ENCODING 9339
SWIDTH 520 0
DWIDTH 16 0
BBX 16 16 0 -2
BITMAP
0000
4004
8782
8842
8842
8842
8842
8782
8842
8842
8842
8842
8842
8782
4004
0000
ENDCHAR
STARTCHAR 247C
ENCODING 9340
SWIDTH 520 0
DWIDTH 16 0
BBX 16 16 0 -2
BITMAP
0000
4004
8782
8842
8842
8842
8842
88c2
8742
8042
8042
8842
8842
8782
4004
0000
ENDCHAR
STARTCHAR 247D
ENCODING 9341
SWIDTH 520 0
DWIDTH 16 0
BBX 16 16 0 -2
BITMAP
0000
4004
88e2
8912
8912
8912
8912
8912
8912
8912
8912
8912
8912
88e2
4004
0000
ENDCHAR
STARTCHAR 247E
ENCODING 9342
SWIDTH 520 0
DWIDTH 16 0
BBX 16 16 0 -2
BITMAP
0000
4004
8822
8822
8822
8822
8822
8822
8822
8822
8822
8822
8822
8822
4004
0000
ENDCHAR
STARTCHAR 247F
ENCODING 9343
SWIDTH 520 0
DWIDTH 16 0
BBX 16 16 0 -2
BITMAP
0000
4004
91e2
9212
9212
9012
9012
9022
90c2
9102
9202
9212
9212
93f2
4004
0000
ENDCHAR
STARTCHAR 2480
ENCODING 9344
SWIDTH 520 0
DWIDTH 16 0
BBX 16 16 0 -2
BITMAP
0000
4004
91e2
9212
9212
9012
9022
90c2
9022
9012
9012
9212
9212
91e2
4004
0000
ENDCHAR
STARTCHAR 2481
ENCODING 9345
SWIDTH 520 0
DWIDTH 16 0
BBX 16 16 0 -2
BITMAP
0000
4004
9062
90a2
90a2
90a2
9122
9122
9222
9222
93fa
9022
9022
9022
4004
0000
ENDCHAR
STARTCHAR 2482
ENCODING 9346
SWIDTH 520 0
DWIDTH 16 0
BBX 16 16 0 -2
BITMAP
0000
4004
93f2
9202
9202
9202
92e2
9312
9212
9012
9012
9212
9212
91e2
4004
0000
ENDCHAR
STARTCHAR 2483
ENCODING 9347
SWIDTH 520 0
DWIDTH 16 0
BBX 16 16 0 -2
BITMAP
0000
4004
91e2
9212
9212
9202
9202
92e2
9312
9212
9212
9212
9212
91e2
4004
0000
ENDCHAR
STARTCHAR 2484
ENCODING 9348
SWIDTH 520 0
DWIDTH 16 0
BBX 16 16 0 -2
BITMAP
0000
4004
93f2
9212
9212
9022
9042
9042
9042
9082
9082
9082
9082
9082
4004
0000
ENDCHAR
STARTCHAR 2485
ENCODING 9349
SWIDTH 520 0
DWIDTH 16 0
BBX 16 16 0 -2
BITMAP
0000
4004
91e2
9212
9212
9212
9212
91e2
9212
9212
9212
9212
9212
91e2
4004
0000
ENDCHAR
STARTCHAR 2486
ENCODING 9350
SWIDTH 520 0
DWIDTH 16 0
BBX 16 16 0 -2
BITMAP
0000
4004
91e2
9212
9212
9212
9212
9232
91d2
9012
9012
9212
9212
91e2
4004
0000
ENDCHAR
STARTCHAR 2487
ENCODING 9351
SWIDTH 520 0
DWIDTH 16 0
BBX 16 16 0 -2
BITMAP
0000
4004
9c72
a28a
a28a
828a
828a
848a
888a
908a
a08a
a28a
a28a
be72
4004
0000
ENDCHAR
STARTCHAR 2488
ENCODING 9352
SWIDTH 520 0
DWIDTH 16 0
BBX 16 16 0 -2
BITMAP
0000
0200
0600
0a00
0200
0200
0200
0200
0200
0200
0200
0200
0200
0200
0240
0000
ENDCHAR
STARTCHAR 2489
ENCODING 9353
SWIDTH 520 0
DWIDTH 16 0
BBX 16 16 0 -2
BITMAP
0000
0f00
1080
1080
0080
0080
0080
0100
0600
0800
1000
1000
1080
1080
1f90
0000
ENDCHAR
STARTCHAR 248A
ENCODING 9354
SWIDTH 520 0
DWIDTH 16 0
BBX 16 16 0 -2
BITMAP
0000
0f00
1080
1080
0080
0080
0100
0600
0100
0080
0080
1080
1080
1080
0f10
0000
ENDCHAR
STARTCHAR 248B
ENCODING 9355
SWIDTH 520 0
DWIDTH 16 0
BBX 16 16 0 -2
BITMAP
0000
0300
0500
0500
0500
0900
0900
0900
1100
1100
1fc0
0100
0100
0100
0108
0100
ENDCHAR
STARTCHAR 248C
ENCODING 9356
SWIDTH 520 0
DWIDTH 16 0
BBX 16 16 0 -2
BITMAP
0000
1f80
1000
1000
1000
1000
1000
1700
1880
1080
0080
0080
1080
1080
0f10
0000
ENDCHAR
STARTCHAR 248D
ENCODING 9357
SWIDTH 520 0
DWIDTH 16 0
BBX 16 16 0 -2
BITMAP
0000
0f00
1080
1080
1080
1000
1000
1700
1880
1080
1080
1080
1080
1080
0f10
0000
ENDCHAR
STARTCHAR 248E
ENCODING 9358
SWIDTH 520 0
DWIDTH 16 0
BBX 16 16 0 -2
BITMAP
0000
1fc0
1040
1040
0080
0100
0100
0100
0200
0200
0200
0200
0200
0200
0208
0000
ENDCHAR
STARTCHAR 248F
ENCODING 9359
SWIDTH 520 0
DWIDTH 16 0
BBX 16 16 0 -2
BITMAP
0000
0f00
1080
1080
1080
1080
0900
0600
0900
1080
1080
1080
1080
1080
0f10
0000
ENDCHAR
STARTCHAR 2490
ENCODING 9360
SWIDTH 520 0
DWIDTH 16 0
BBX 16 16 0 -2
BITMAP
0000
0f00
1080
1080
1080
1080
1080
1180
0e80
0080
0080
1080
1080
1080
0f10
0000
ENDCHAR
STARTCHAR 2491
ENCODING 9361
SWIDTH 520 0
DWIDTH 16 0
BBX 16 16 0 -2
BITMAP
0000
23c0
6420
a420
2420
2420
2420
2420
2420
2420
2420
2420
2420
2420
23c8
0000
ENDCHAR
STARTCHAR 2492
ENCODING 9362
SWIDTH 520 0
DWIDTH 16 0
BBX 16 16 0 -2
BITMAP
0000
2080
6180
a280
2080
2080
2080
2080
2080
2080
2080
2080
2080
2080
2090
0000
ENDCHAR
STARTCHAR 2493
ENCODING 9363
SWIDTH 520 0
DWIDTH 16 0
BBX 16 16 0 -2
BITMAP
0000
23c0
6420
a420
2020
2020
2020
2040
2180
2200
2400
2400
2420
2420
27e4
0000
ENDCHAR
STARTCHAR 2494
ENCODING 9364
SWIDTH 520 0
DWIDTH 16 0
BBX 16 16 0 -2
BITMAP
0000
23c0
6420
a420
2020
2020
2040
2180
2040
2020
2020
2420
2420
2420
23c4
0000
ENDCHAR
STARTCHAR 2495
ENCODING 9365
SWIDTH 520 0
DWIDTH 16 0
BBX 16 16 0 -2
BITMAP
0000
20c0
6140
a140
2140
2240
2240
2240
2440
2440
27f0
2040
2040
2040
2048
0000
ENDCHAR
STARTCHAR 2496
ENCODING 9366
SWIDTH 520 0
DWIDTH 16 0
BBX 16 16 0 -2
BITMAP
0000
27e0
6400
a400
2400
2400
2400
25c0
2620
2420
2020
2020
2420
2420
23c4
0000
ENDCHAR
STARTCHAR 2497
ENCODING 9367
SWIDTH 520 0
DWIDTH 16 0
BBX 16 16 0 -2
BITMAP
0000
23c0
6420
a420
2420
2400
2400
25c0
2620
2420
2420
2420
2420
2420
23c4
0000
ENDCHAR
STARTCHAR 2498
ENCODING 9368
SWIDTH 520 0
DWIDTH 16 0
BBX 16 16 0 -2
BITMAP
0000
27f0
6410
a410
2020
2040
2040
2040
2080
2080
2080
2080
2080
2080
2084
0000
ENDCHAR
STARTCHAR 2499
ENCODING 9369
SWIDTH 520 0
DWIDTH 16 0
BBX 16 16 0 -2
BITMAP
0000
23c0
6420
a420
2420
2420
2240
2180
2240
2420
2420
2420
2420
2420
23c4
0000
ENDCHAR
STARTCHAR 249A
ENCODING 9370
SWIDTH 520 0
DWIDTH 16 0
BBX 16 16 0 -2
BITMAP
0000
23c0
6420
a420
2420
2420
2420
2460
23a0
2020
2020
2420
2420
2420
23c4
0000
ENDCHAR
STARTCHAR 249B
ENCODING 9371
SWIDTH 520 0
DWIDTH 16 0
BBX 16 16 0 -2
BITMAP
0000
38e0
4510
4510
0510
0510
0510
1910
2110
4110
4110
4110
4510
4510
7ce4
0000
ENDCHAR
STARTCHAR 2500
ENCODING 9472
SWIDTH 520 0
DWIDTH 16 0
BBX 16 16 0 -2
BITMAP
0000
0000
0000
0000
0000
0000
0000
ffff
0000
0000
0000
0000
0000
0000
0000
0000
ENDCHAR
STARTCHAR 2501
ENCODING 9473
SWIDTH 520 0
DWIDTH 16 0
BBX 16 16 0 -2
BITMAP
0000
0000
0000
0000
0000
0000
0000
ffff
ffff
0000
0000
0000
0000
0000
0000
0000
ENDCHAR
STARTCHAR 2502
ENCODING 9474
SWIDTH 520 0
DWIDTH 16 0
BBX 16 16 0 -2
BITMAP
0100
0100
0100
0100
0100
0100
0100
0100
0100
0100
0100
0100
0100
0100
0100
0100
ENDCHAR
STARTCHAR 2503
ENCODING 9475
SWIDTH 520 0
DWIDTH 16 0
BBX 16 16 0 -2
BITMAP
0180
0180
0180
0180
0180
0180
0180
0180
0180
0180
0180
0180
0180
0180
0180
0180
ENDCHAR
STARTCHAR 2504
ENCODING 9476
SWIDTH 520 0
DWIDTH 16 0
BBX 16 16 0 -2
BITMAP
0000
0000
0000
0000
0000
0000
0000
e38e
0000
0000
0000
0000
0000
0000
0000
0000
ENDCHAR
STARTCHAR 2505
ENCODING 9477
SWIDTH 520 0
DWIDTH 16 0
BBX 16 16 0 -2
BITMAP
0000
0000
0000
0000
0000
0000
0000
e38e
e38e
0000
0000
0000
0000
0000
0000
0000
ENDCHAR
STARTCHAR 2506
ENCODING 9478
SWIDTH 520 0
DWIDTH 16 0
BBX 16 16 0 -2
BITMAP
0100
0100
0100
0000
0000
0000
0100
0100
0100
0000
0000
0000
0100
0100
0100
0000
ENDCHAR
STARTCHAR 2507
ENCODING 9479
SWIDTH 520 0
DWIDTH 16 0
BBX 16 16 0 -2
BITMAP
0180
0180
0180
0000
0000
0000
0180
0180
0180
0000
0000
0000
0180
0180
0180
0000
ENDCHAR
STARTCHAR 2508
ENCODING 9480
SWIDTH 520 0
DWIDTH 16 0
BBX 16 16 0 -2
BITMAP
0000
0000
0000
0000
0000
0000
0000
cccc
0000
0000
0000
0000
0000
0000
0000
0000
ENDCHAR
STARTCHAR 2509
ENCODING 9481
SWIDTH 520 0
DWIDTH 16 0
BBX 16 16 0 -2
BITMAP
0000
0000
0000
0000
0000
0000
cccc
cccc
0000
0000
0000
0000
0000
0000
0000
0000
ENDCHAR
STARTCHAR 250A
ENCODING 9482
SWIDTH 520 0
DWIDTH 16 0
BBX 16 16 0 -2
BITMAP
0100
0100
0000
0000
0100
0100
0000
0000
0100
0100
0000
0000
0100
0100
0000
0000
ENDCHAR
STARTCHAR 250B
ENCODING 9483
SWIDTH 520 0
DWIDTH 16 0
BBX 16 16 0 -2
BITMAP
0180
0180
0000
0000
0180
0180
0000
0000
0180
0180
0000
0000
0180
0180
0000
0000
ENDCHAR
STARTCHAR 250C
ENCODING 9484
SWIDTH 520 0
DWIDTH 16 0
BBX 16 16 0 -2
BITMAP
0000
0000
0000
0000
0000
0000
0000
01ff
0100
0100
0100
0100
0100
0100
0100
0100
ENDCHAR
STARTCHAR 250D
ENCODING 9485
SWIDTH 520 0
DWIDTH 16 0
BBX 16 16 0 -2
BITMAP
0000
0000
0000
0000
0000
0000
0000
01ff
01ff
0100
0100
0100
0100
0100
0100
0100
ENDCHAR
STARTCHAR 250E
ENCODING 9486
SWIDTH 520 0
DWIDTH 16 0
BBX 16 16 0 -2
BITMAP
0000
0000
0000
0000
0000
0000
0000
01ff
0180
0180
0180
0180
0180
0180
0180
0180
ENDCHAR
STARTCHAR 250F
ENCODING 9487
SWIDTH 520 0
DWIDTH 16 0
BBX 16 16 0 -2
BITMAP
0000
0000
0000
0000
0000
0000
0000
01ff
01ff
0180
0180
0180
0180
0180
0180
0180
ENDCHAR
STARTCHAR 2510
ENCODING 9488
SWIDTH 520 0
DWIDTH 16 0
BBX 16 16 0 -2
BITMAP
0000
0000
0000
0000
0000
0000
0000
ff00
0100
0100
0100
0100
0100
0100
0100
0100
ENDCHAR
STARTCHAR 2511
ENCODING 9489
SWIDTH 520 0
DWIDTH 16 0
BBX 16 16 0 -2
BITMAP
0000
0000
0000
0000
0000
0000
0000
ff00
ff00
0100
0100
0100
0100
0100
0100
0100
ENDCHAR
STARTCHAR 2512
ENCODING 9490
SWIDTH 520 0
DWIDTH 16 0
BBX 16 16 0 -2
BITMAP
0000
0000
0000
0000
0000
0000
0000
ff80
0180
0180
0180
0180
0180
0180
0180
0180
ENDCHAR
STARTCHAR 2513
ENCODING 9491
SWIDTH 520 0
DWIDTH 16 0
BBX 16 16 0 -2
BITMAP
0000
0000
0000
0000
0000
0000
0000
ff80
ff80
0180
0180
0180
0180
0180
0180
0180
ENDCHAR
STARTCHAR 2514
ENCODING 9492
SWIDTH 520 0
DWIDTH 16 0
BBX 16 16 0 -2
BITMAP
0100
0100
0100
0100
0100
0100
0100
01ff
0000
0000
0000
0000
0000
0000
0000
0000
ENDCHAR
STARTCHAR 2515
ENCODING 9493
SWIDTH 520 0
DWIDTH 16 0
BBX 16 16 0 -2
BITMAP
0100
0100
0100
0100
0100
0100
0100
01ff
01ff
0000
0000
0000
0000
0000
0000
0000
ENDCHAR
STARTCHAR 2516
ENCODING 9494
SWIDTH 520 0
DWIDTH 16 0
BBX 16 16 0 -2
BITMAP
0180
0180
0180
0180
0180
0180
0180
01ff
0000
0000
0000
0000
0000
0000
0000
0000
ENDCHAR
STARTCHAR 2517
ENCODING 9495
SWIDTH 520 0
DWIDTH 16 0
BBX 16 16 0 -2
BITMAP
0180
0180
0180
0180
0180
0180
0180
01ff
01ff
0000
0000
0000
0000
0000
0000
0000
ENDCHAR
STARTCHAR 2518
ENCODING 9496
SWIDTH 520 0
DWIDTH 16 0
BBX 16 16 0 -2
BITMAP
0100
0100
0100
0100
0100
0100
0100
ff00
0000
0000
0000
0000
0000
0000
0000
0000
ENDCHAR
STARTCHAR 2519
ENCODING 9497
SWIDTH 520 0
DWIDTH 16 0
BBX 16 16 0 -2
BITMAP
0100
0100
0100
0100
0100
0100
0100
ff00
ff00
0000
0000
0000
0000
0000
0000
0000
ENDCHAR
STARTCHAR 251A
ENCODING 9498
SWIDTH 520 0
DWIDTH 16 0
BBX 16 16 0 -2
BITMAP
0180
0180
0180
0180
0180
0180
0180
ff80
0000
0000
0000
0000
0000
0000
0000
0000
ENDCHAR
STARTCHAR 251B
ENCODING 9499
SWIDTH 520 0
DWIDTH 16 0
BBX 16 16 0 -2
BITMAP
0180
0180
0180
0180
0180
0180
0180
ff80
ff80
0000
0000
0000
0000
0000
0000
0000
ENDCHAR
STARTCHAR 251C
ENCODING 9500
SWIDTH 520 0
DWIDTH 16 0
BBX 16 16 0 -2
BITMAP
0100
0100
0100
0100
0100
0100
0100
01ff
0100
0100
0100
0100
0100
0100
0100
0100
ENDCHAR
STARTCHAR 251D
ENCODING 9501
SWIDTH 520 0
DWIDTH 16 0
BBX 16 16 0 -2
BITMAP
0100
0100
0100
0100
0100
0100
0100
01ff
01ff
0100
0100
0100
0100
0100
0100
0100
ENDCHAR
STARTCHAR 251E
ENCODING 9502
SWIDTH 520 0
DWIDTH 16 0
BBX 16 16 0 -2
BITMAP
0180
0180
0180
0180
0180
0180
0180
01ff
0100
0100
0100
0100
0100
0100
0100
0100
ENDCHAR
STARTCHAR 251F
ENCODING 9503
SWIDTH 520 0
DWIDTH 16 0
BBX 16 16 0 -2
BITMAP
0100
0100
0100
0100
0100
0100
0100
01ff
0180
0180
0180
0180
0180
0180
0180
0180
ENDCHAR
STARTCHAR 2520
ENCODING 9504
SWIDTH 520 0
DWIDTH 16 0
BBX 16 16 0 -2
BITMAP
0180
0180
0180
0180
0180
0180
0180
01ff
0180
0180
0180
0180
0180
0180
0180
0180
ENDCHAR
STARTCHAR 2521
ENCODING 9505
SWIDTH 520 0
DWIDTH 16 0
BBX 16 16 0 -2
BITMAP
0180
0180
0180
0180
0180
0180
0180
01ff
01ff
0100
0100
0100
0100
0100
0100
0100
ENDCHAR
STARTCHAR 2522
ENCODING 9506
SWIDTH 520 0
DWIDTH 16 0
BBX 16 16 0 -2
BITMAP
0100
0100
0100
0100
0100
0100
0100
01ff
01ff
0180
0180
0180
0180
0180
0180
0180
ENDCHAR
STARTCHAR 2523
ENCODING 9507
SWIDTH 520 0
DWIDTH 16 0
BBX 16 16 0 -2
BITMAP
0180
0180
0180
0180
0180
0180
0180
01ff
01ff
0180
0180
0180
0180
0180
0180
0180
ENDCHAR
STARTCHAR 2524
ENCODING 9508
SWIDTH 520 0
DWIDTH 16 0
BBX 16 16 0 -2
BITMAP
0100
0100
0100
0100
0100
0100
0100
ff00
0100
0100
0100
0100
0100
0100
0100
0100
ENDCHAR
STARTCHAR 2525
ENCODING 9509
SWIDTH 520 0
DWIDTH 16 0
BBX 16 16 0 -2
BITMAP
0100
0100
0100
0100
0100
0100
0100
ff00
ff00
0100
0100
0100
0100
0100
0100
0100
ENDCHAR
STARTCHAR 2526
ENCODING 9510
SWIDTH 520 0
DWIDTH 16 0
BBX 16 16 0 -2
BITMAP
0180
0180
0180
0180
0180
0180
0180
ff00
0100
0100
0100
0100
0100
0100
0100
0100
ENDCHAR
STARTCHAR 2527
ENCODING 9511
SWIDTH 520 0
DWIDTH 16 0
BBX 16 16 0 -2
BITMAP
0100
0100
0100
0100
0100
0100
0100
ff00
0180
0180
0180
0180
0180
0180
0180
0180
ENDCHAR
STARTCHAR 2528
ENCODING 9512
SWIDTH 520 0
DWIDTH 16 0
BBX 16 16 0 -2
BITMAP
0180
0180
0180
0180
0180
0180
0180
ff80
0180
0180
0180
0180
0180
0180
0180
0180
ENDCHAR
STARTCHAR 2529
ENCODING 9513
SWIDTH 520 0
DWIDTH 16 0
BBX 16 16 0 -2
BITMAP
0180
0180
0180
0180
0180
0180
0180
ff80
ff00
0100
0100
0100
0100
0100
0100
0100
ENDCHAR
STARTCHAR 252A
ENCODING 9514
SWIDTH 520 0
DWIDTH 16 0
BBX 16 16 0 -2
BITMAP
0100
0100
0100
0100
0100
0100
0100
ff00
ff80
0180
0180
0180
0180
0180
0180
0180
ENDCHAR
STARTCHAR 252B
ENCODING 9515
SWIDTH 520 0
DWIDTH 16 0
BBX 16 16 0 -2
BITMAP
0180
0180
0180
0180
0180
0180
0180
ff80
ff80
0180
0180
0180
0180
0180
0180
0180
ENDCHAR
STARTCHAR 252C
ENCODING 9516
SWIDTH 520 0
DWIDTH 16 0
BBX 16 16 0 -2
BITMAP
0000
0000
0000
0000
0000
0000
0000
ffff
0100
0100
0100
0100
0100
0100
0100
0100
ENDCHAR
STARTCHAR 252D
ENCODING 9517
SWIDTH 520 0
DWIDTH 16 0
BBX 16 16 0 -2
BITMAP
0000
0000
0000
0000
0000
0000
0000
ffff
ff00
0100
0100
0100
0100
0100
0100
0100
ENDCHAR
STARTCHAR 252E
ENCODING 9518
SWIDTH 520 0
DWIDTH 16 0
BBX 16 16 0 -2
BITMAP
0000
0000
0000
0000
0000
0000
0000
ffff
01ff
0100
0100
0100
0100
0100
0100
0100
ENDCHAR
STARTCHAR 252F
ENCODING 9519
SWIDTH 520 0
DWIDTH 16 0
BBX 16 16 0 -2
BITMAP
0000
0000
0000
0000
0000
0000
0000
ffff
ffff
0100
0100
0100
0100
0100
0100
0100
ENDCHAR
STARTCHAR 2530
ENCODING 9520
SWIDTH 520 0
DWIDTH 16 0
BBX 16 16 0 -2
BITMAP
0000
0000
0000
0000
0000
0000
0000
ffff
0180
0180
0180
0180
0180
0180
0180
0180
ENDCHAR
STARTCHAR 2531
ENCODING 9521
SWIDTH 520 0
DWIDTH 16 0
BBX 16 16 0 -2
BITMAP
0000
0000
0000
0000
0000
0000
0000
ffff
ff80
0180
0180
0180
0180
0180
0180
0180
ENDCHAR
STARTCHAR 2532
ENCODING 9522
SWIDTH 520 0
DWIDTH 16 0
BBX 16 16 0 -2
BITMAP
0000
0000
0000
0000
0000
0000
0000
ffff
01ff
0180
0180
0180
0180
0180
0180
0180
ENDCHAR
STARTCHAR 2533
ENCODING 9523
SWIDTH 520 0
DWIDTH 16 0
BBX 16 16 0 -2
BITMAP
0000
0000
0000
0000
0000
0000
0000
ffff
ffff
0180
0180
0180
0180
0180
0180
0180
ENDCHAR
STARTCHAR 2534
ENCODING 9524
SWIDTH 520 0
DWIDTH 16 0
BBX 16 16 0 -2
BITMAP
0100
0100
0100
0100
0100
0100
0100
ffff
0000
0000
0000
0000
0000
0000
0000
0000
ENDCHAR
STARTCHAR 2535
ENCODING 9525
SWIDTH 520 0
DWIDTH 16 0
BBX 16 16 0 -2
BITMAP
0100
0100
0100
0100
0100
0100
0100
ffff
fe00
0000
0000
0000
0000
0000
0000
0000
ENDCHAR
STARTCHAR 2536
ENCODING 9526
SWIDTH 520 0
DWIDTH 16 0
BBX 16 16 0 -2
BITMAP
0100
0100
0100
0100
0100
0100
0100
ffff
00ff
0000
0000
0000
0000
0000
0000
0000
ENDCHAR
STARTCHAR 2537
ENCODING 9527
SWIDTH 520 0
DWIDTH 16 0
BBX 16 16 0 -2
BITMAP
0100
0100
0100
0100
0100
0100
0100
ffff
ffff
0000
0000
0000
0000
0000
0000
0000
ENDCHAR
STARTCHAR 2538
ENCODING 9528
SWIDTH 520 0
DWIDTH 16 0
BBX 16 16 0 -2
BITMAP
0180
0180
0180
0180
0180
0180
0180
ffff
0000
0000
0000
0000
0000
0000
0000
0000
ENDCHAR
STARTCHAR 2539
ENCODING 9529
SWIDTH 520 0
DWIDTH 16 0
BBX 16 16 0 -2
BITMAP
0180
0180
0180
0180
0180
0180
0180
ffff
ff00
0000
0000
0000
0000
0000
0000
0000
ENDCHAR
STARTCHAR 253A
ENCODING 9530
SWIDTH 520 0
DWIDTH 16 0
BBX 16 16 0 -2
BITMAP
0180
0180
0180
0180
0180
0180
0180
ffff
00ff
0000
0000
0000
0000
0000
0000
0000
ENDCHAR
STARTCHAR 253B
ENCODING 9531
SWIDTH 520 0
DWIDTH 16 0
BBX 16 16 0 -2
BITMAP
0180
0180
0180
0180
0180
0180
0180
ffff
ffff
0000
0000
0000
0000
0000
0000
0000
ENDCHAR
STARTCHAR 253C
ENCODING 9532
SWIDTH 520 0
DWIDTH 16 0
BBX 16 16 0 -2
BITMAP
0100
0100
0100
0100
0100
0100
0100
ffff
0100
0100
0100
0100
0100
0100
0100
0100
ENDCHAR
STARTCHAR 253D
ENCODING 9533
SWIDTH 520 0
DWIDTH 16 0
BBX 16 16 0 -2
BITMAP
0100
0100
0100
0100
0100
0100
0100
ffff
ff00
0100
0100
0100
0100
0100
0100
0100
ENDCHAR
STARTCHAR 253E
ENCODING 9534
SWIDTH 520 0
DWIDTH 16 0
BBX 16 16 0 -2
BITMAP
0100
0100
0100
0100
0100
0100
0100
ffff
01ff
0100
0100
0100
0100
0100
0100
0100
ENDCHAR
STARTCHAR 253F
ENCODING 9535
SWIDTH 520 0
DWIDTH 16 0
BBX 16 16 0 -2
BITMAP
0100
0100
0100
0100
0100
0100
0100
ffff
ffff
0100
0100
0100
0100
0100
0100
0100
ENDCHAR
STARTCHAR 2540
ENCODING 9536
SWIDTH 520 0
DWIDTH 16 0
BBX 16 16 0 -2
BITMAP
0180
0180
0180
0180
0180
0180
0180
ffff
0100
0100
0100
0100
0100
0100
0100
0100
ENDCHAR
STARTCHAR 2541
ENCODING 9537
SWIDTH 520 0
DWIDTH 16 0
BBX 16 16 0 -2
BITMAP
0100
0100
0100
0100
0100
0100
0100
ffff
0180
0180
0180
0180
0180
0180
0180
0180
ENDCHAR
STARTCHAR 2542
ENCODING 9538
SWIDTH 520 0
DWIDTH 16 0
BBX 16 16 0 -2
BITMAP
0180
0180
0180
0180
0180
0180
0180
ffff
0180
0180
0180
0180
0180
0180
0180
0180
ENDCHAR
STARTCHAR 2543
ENCODING 9539
SWIDTH 520 0
DWIDTH 16 0
BBX 16 16 0 -2
BITMAP
0180
0180
0180
0180
0180
0180
0180
ffff
ff00
0100
0100
0100
0100
0100
0100
0100
ENDCHAR
STARTCHAR 2544
ENCODING 9540
SWIDTH 520 0
DWIDTH 16 0
BBX 16 16 0 -2
BITMAP
0180
0180
0180
0180
0180
0180
0180
ffff
01ff
0100
0100
0100
0100
0100
0100
0100
ENDCHAR
STARTCHAR 2545
ENCODING 9541
SWIDTH 520 0
DWIDTH 16 0
BBX 16 16 0 -2
BITMAP
0100
0100
0100
0100
0100
0100
0100
ffff
ff80
0180
0180
0180
0180
0180
0180
0180
ENDCHAR
STARTCHAR 2546
ENCODING 9542
SWIDTH 520 0
DWIDTH 16 0
BBX 16 16 0 -2
BITMAP
0100
0100
0100
0100
0100
0100
0100
ffff
01ff
0180
0180
0180
0180
0180
0180
0180
ENDCHAR
STARTCHAR 2547
ENCODING 9543
SWIDTH 520 0
DWIDTH 16 0
BBX 16 16 0 -2
BITMAP
0180
0180
0180
0180
0180
0180
0180
ffff
ffff
0100
0100
0100
0100
0100
0100
0100
ENDCHAR
STARTCHAR 2548
ENCODING 9544
SWIDTH 520 0
DWIDTH 16 0
BBX 16 16 0 -2
BITMAP
0100
0100
0100
0100
0100
0100
0100
ffff
ffff
0180
0180
0180
0180
0180
0180
0180
ENDCHAR
STARTCHAR 2549
ENCODING 9545
SWIDTH 520 0
DWIDTH 16 0
BBX 16 16 0 -2
BITMAP
0180
0180
0180
0180
0180
0180
0180
ffff
ff80
0180
0180
0180
0180
0180
0180
0180
ENDCHAR
STARTCHAR 254A
ENCODING 9546
SWIDTH 520 0
DWIDTH 16 0
BBX 16 16 0 -2
BITMAP
0180
0180
0180
0180
0180
0180
0180
ffff
01ff
0180
0180
0180
0180
0180
0180
0180
ENDCHAR
STARTCHAR 254B
ENCODING 9547
SWIDTH 520 0
DWIDTH 16 0
BBX 16 16 0 -2
BITMAP
0180
0180
0180
0180
0180
0180
0180
ffff
ffff
0180
0180
0180
0180
0180
0180
0180
ENDCHAR
STARTCHAR 25A0
ENCODING 9632
SWIDTH 520 0
DWIDTH 16 0
BBX 16 16 0 -2
BITMAP
0000
7ffc
7ffc
7ffc
7ffc
7ffc
7ffc
7ffc
7ffc
7ffc
7ffc
7ffc
7ffc
7ffc
0000
0000
ENDCHAR
STARTCHAR 25A1
ENCODING 9633
SWIDTH 520 0
DWIDTH 16 0
BBX 16 16 0 -2
BITMAP
0000
7ffc
4004
4004
4004
4004
4004
4004
4004
4004
4004
4004
4004
7ffc
0000
0000
ENDCHAR
STARTCHAR 25B2
ENCODING 9650
SWIDTH 520 0
DWIDTH 16 0
BBX 16 16 0 -2
BITMAP
0000
0100
0380
07c0
07c0
0fe0
0fe0
1ff0
1ff0
3ff8
3ff8
7ffc
7ffc
fffe
0000
0000
ENDCHAR
STARTCHAR 25B3
ENCODING 9651
SWIDTH 520 0
DWIDTH 16 0
BBX 16 16 0 -2
BITMAP
0000
0100
0280
0440
0440
0820
0820
1010
1010
2008
2008
4004
4004
fffe
0000
0000
ENDCHAR
STARTCHAR 25C6
ENCODING 9670
SWIDTH 520 0
DWIDTH 16 0
BBX 16 16 0 -2
BITMAP
0100
0380
07c0
0fe0
1ff0
3ff8
7ffc
fffe
7ffc
3ff8
1ff0
0fe0
07c0
0380
0100
0000
ENDCHAR
STARTCHAR 25C7
ENCODING 9671
SWIDTH 520 0
DWIDTH 16 0
BBX 16 16 0 -2
BITMAP
0100
0280
0440
0820
1010
2008
4004
8002
4004
2008
1010
0820
0440
0280
0100
0000
ENDCHAR
STARTCHAR 25CB
ENCODING 9675
SWIDTH 520 0
DWIDTH 16 0
BBX 16 16 0 -2
BITMAP
0000
07c0
1830
2008
2008
4004
4004
4004
4004
4004
2008
2008
1830
07c0
0000
0000
ENDCHAR
STARTCHAR 25CE
ENCODING 9678
SWIDTH 520 0
DWIDTH 16 0
BBX 16 16 0 -2
BITMAP
0000
07c0
1830
27c8
2828
5014
5014
5014
5014
5014
2828
27c8
1830
07c0
0000
0000
ENDCHAR
STARTCHAR 25CF
ENCODING 9679
SWIDTH 520 0
DWIDTH 16 0
BBX 16 16 0 -2
BITMAP
0000
07c0
1ff0
3ff8
3ff8
7ffc
7ffc
7ffc
7ffc
7ffc
3ff8
3ff8
1ff0
07c0
0000
0000
ENDCHAR
STARTCHAR 2605
ENCODING 9733
SWIDTH 520 0
DWIDTH 16 0
BBX 16 16 0 -2
BITMAP
0100
0100
0380
0380
0380
07c0
fffe
3ff8
1ff0
0fe0
0fe0
1ff0
1ef0
1830
2008
0000
ENDCHAR
STARTCHAR 2606
ENCODING 9734
SWIDTH 520 0
DWIDTH 16 0
BBX 16 16 0 -2
BITMAP
0100
0100
0280
0280
0280
0440
fc7e
4004
3018
0820
0820
1190
1650
1830
2008
0000
ENDCHAR
STARTCHAR 2640
ENCODING 9792
SWIDTH 520 0
DWIDTH 16 0
BBX 16 16 0 -2
BITMAP
0000
0380
0440
0440
0440
0380
0100
0100
3ff8
0100
0100
0100
0100
0100
0100
0000
ENDCHAR
STARTCHAR 2642
ENCODING 9794
SWIDTH 520 0
DWIDTH 16 0
BBX 16 16 0 -2
BITMAP
0000
0100
0380
0540
0920
1110
0100
0100
0100
0100
0380
0440
0440
0440
0380
0000
ENDCHAR
STARTCHAR 3000
ENCODING 12288
SWIDTH 520 0
DWIDTH 16 0
BBX 16 16 0 -2
BITMAP
0000
0000
0000
0000
0000
0000
0000
0000
0000
0000
0000
0000
0000
0000
0000
0000
ENDCHAR
STARTCHAR 3001
ENCODING 12289
SWIDTH 520 0
DWIDTH 16 0
BBX 16 16 0 -2
BITMAP
0000
0000
0000
0000
0000
0000
0000
0000
0000
0000
0000
6000
3000
1000
0000
0000
ENDCHAR
STARTCHAR 3002
ENCODING 12290
SWIDTH 520 0
DWIDTH 16 0
BBX 16 16 0 -2
BITMAP
0000
0000
0000
0000
0000
0000
0000
0000
0000
0000
3000
4800
4800
3000
0000
0000
ENDCHAR
STARTCHAR 3003
ENCODING 12291
SWIDTH 520 0
DWIDTH 16 0
BBX 16 16 0 -2
BITMAP
0000
0000
0000
0000
0240
0240
0480
0480
0900
0900
1200
2400
0000
0000
0000
0000
ENDCHAR
STARTCHAR 3005
ENCODING 12293
SWIDTH 520 0
DWIDTH 16 0
BBX 16 16 0 -2
BITMAP
0400
0400
0400
0800
0800
1ff8
2008
4010
0010
0820
0440
0280
0100
00c0
0040
0000
ENDCHAR
STARTCHAR 3008
ENCODING 12296
SWIDTH 520 0
DWIDTH 16 0
BBX 16 16 0 -2
BITMAP
0000
0002
0004
0008
0010
0020
0040
0080
0040
0020
0010
0008
0004
0002
0000
0000
ENDCHAR
STARTCHAR 3009
ENCODING 12297
SWIDTH 520 0
DWIDTH 16 0
BBX 16 16 0 -2
BITMAP
0000
8000
4000
2000
1000
0800
0400
0200
0400
0800
1000
2000
4000
8000
0000
0000
ENDCHAR
STARTCHAR 300A
ENCODING 12298
SWIDTH 520 0
DWIDTH 16 0
BBX 16 16 0 -2
BITMAP
0008
0012
0024
0048
0090
0120
0240
0480
0240
0120
0090
0048
0024
0012
0008
0004
ENDCHAR
STARTCHAR 300B
ENCODING 12299
SWIDTH 520 0
DWIDTH 16 0
BBX 16 16 0 -2
BITMAP
2000
9000
4800
2400
1200
0900
0480
0240
0480
0900
1200
2400
4800
9000
2000
4000
ENDCHAR
STARTCHAR 300C
ENCODING 12300
SWIDTH 520 0
DWIDTH 16 0
BBX 16 16 0 -2
BITMAP
0000
01c0
0100
0100
0100
0100
0100
0100
0100
0100
0100
0100
0100
0100
0000
0000
ENDCHAR
STARTCHAR 300D
ENCODING 12301
SWIDTH 520 0
DWIDTH 16 0
BBX 16 16 0 -2
BITMAP
0000
0100
0100
0100
0100
0100
0100
0100
0100
0100
0100
0100
0100
0700
0000
0000
ENDCHAR
STARTCHAR 300E
ENCODING 12302
SWIDTH 520 0
DWIDTH 16 0
BBX 16 16 0 -2
BITMAP
0000
07c0
0440
05c0
0500
0500
0500
0500
0500
0500
0500
0500
0500
0700
0000
0000
ENDCHAR
STARTCHAR 300F
ENCODING 12303
SWIDTH 520 0
DWIDTH 16 0
BBX 16 16 0 -2
BITMAP
0000
01c0
0140
0140
0140
0140
0140
0140
0140
0140
0140
0740
0440
07c0
0000
0000
ENDCHAR
STARTCHAR 3010
ENCODING 12304
SWIDTH 520 0
DWIDTH 16 0
BBX 16 16 0 -2
BITMAP
0000
00fe
00fc
00f8
00f0
00f0
00e0
00e0
00e0
00e0
00f0
00f0
00f8
00fc
00fe
0000
ENDCHAR
STARTCHAR 3011
ENCODING 12305
SWIDTH 520 0
DWIDTH 16 0
BBX 16 16 0 -2
BITMAP
0000
fe00
7e00
3e00
1e00
1e00
0e00
0e00
0e00
0e00
1e00
1e00
3e00
7e00
fe00
0000
ENDCHAR
STARTCHAR 3013
ENCODING 12307
SWIDTH 520 0
DWIDTH 16 0
BBX 16 16 0 -2
BITMAP
0000
0000
fffc
fffc
fffc
fffc
0000
0000
0000
0000
fffc
fffc
fffc
fffc
0000
0000
ENDCHAR
STARTCHAR 3014
ENCODING 12308
SWIDTH 520 0
DWIDTH 16 0
BBX 16 16 0 -2
BITMAP
0000
0004
0008
0010
0010
0010
0010
0010
0010
0010
0010
0010
0010
0008
0004
0000
ENDCHAR
STARTCHAR 3015
ENCODING 12309
SWIDTH 520 0
DWIDTH 16 0
BBX 16 16 0 -2
BITMAP
0000
4000
2000
1000
1000
1000
1000
1000
1000
1000
1000
1000
1000
2000
4000
0000
ENDCHAR
STARTCHAR 3016
ENCODING 12310
SWIDTH 520 0
DWIDTH 16 0
BBX 16 16 0 -2
BITMAP
0000
00fe
0084
0088
0088
0090
0090
0090
0090
0090
0090
0088
0088
0084
00fe
0000
ENDCHAR
STARTCHAR 3017
ENCODING 12311
SWIDTH 520 0
DWIDTH 16 0
BBX 16 16 0 -2
BITMAP
0000
fe00
4200
2200
2200
1200
1200
1200
1200
1200
1200
2200
2200
4200
fe00
0000
ENDCHAR
STARTCHAR 3041
ENCODING 12353
SWIDTH 520 0
DWIDTH 16 0
BBX 16 16 0 -2
BITMAP
0000
0000
0000
0400
0420
25c0
1e00
0480
07e0
0c90
1488
2308
2208
2510
1820
00c0
ENDCHAR
STARTCHAR 3042
ENCODING 12354
SWIDTH 520 0
DWIDTH 16 0
BBX 16 16 0 -2
BITMAP
0400
0400
0460
4780
3c00
0440
0440
1ff0
2448
4284
4284
4104
2284
1c08
0030
0000
ENDCHAR
STARTCHAR 3043
ENCODING 12355
SWIDTH 520 0
DWIDTH 16 0
BBX 16 16 0 -2
BITMAP
0000
0000
0000
0000
0000
1000
1820
1010
1008
1018
1010
1100
0a00
0600
0000
0000
ENDCHAR
STARTCHAR 3044
ENCODING 12356
SWIDTH 520 0
DWIDTH 16 0
BBX 16 16 0 -2
BITMAP
0000
0000
0000
2020
3010
2008
2004
2004
200c
2008
2100
2200
1400
0c00
0000
0000
ENDCHAR
STARTCHAR 3045
ENCODING 12357
SWIDTH 520 0
DWIDTH 16 0
BBX 16 16 0 -2
BITMAP
0000
0000
0f80
0180
0200
0000
11c0
0e20
0020
0020
0040
0080
0100
0200
0c00
0000
ENDCHAR
STARTCHAR 3046
ENCODING 12358
SWIDTH 520 0
DWIDTH 16 0
BBX 16 16 0 -2
BITMAP
0000
0f80
0040
0180
0000
21e0
1e10
0010
0010
0010
0020
0020
00c0
0300
0c00
0000
ENDCHAR
STARTCHAR 3047
ENCODING 12359
SWIDTH 520 0
DWIDTH 16 0
BBX 16 16 0 -2
BITMAP
0000
0000
0000
0700
0080
0100
0000
03c0
1c80
0100
0300
0480
0880
1040
2038
0000
ENDCHAR
STARTCHAR 3048
ENCODING 12360
SWIDTH 520 0
DWIDTH 16 0
BBX 16 16 0 -2
BITMAP
0000
0f00
0080
0100
0000
03c0
3c80
0100
0200
0380
0480
0480
0880
1040
203c
0000
ENDCHAR
STARTCHAR 3049
ENCODING 12361
SWIDTH 520 0
DWIDTH 16 0
BBX 16 16 0 -2
BITMAP
0000
0000
0000
0400
0410
0408
3f04
0408
07e0
0410
0c08
1408
3408
1530
08c0
0000
ENDCHAR
STARTCHAR 304A
ENCODING 12362
SWIDTH 520 0
DWIDTH 16 0
BBX 16 16 0 -2
BITMAP
0000
0400
0410
0788
3c04
0418
05c0
0620
0c10
1408
2408
6408
3510
0ce0
0400
0000
ENDCHAR
STARTCHAR 304B
ENCODING 12363
SWIDTH 520 0
DWIDTH 16 0
BBX 16 16 0 -2
BITMAP
0000
0200
0200
0220
0210
43c8
3c44
0454
044c
0440
0840
0880
1080
2280
4100
0000
ENDCHAR
STARTCHAR 304C
ENCODING 12364
SWIDTH 520 0
DWIDTH 16 0
BBX 16 16 0 -2
BITMAP
0010
0408
0424
0410
0408
8780
78a0
0890
0888
0884
1094
110c
2100
4500
8200
0000
ENDCHAR
STARTCHAR 304D
ENCODING 12365
SWIDTH 520 0
DWIDTH 16 0
BBX 16 16 0 -2
BITMAP
0200
0200
0260
0380
1d00
00e0
0380
1c40
0040
03e0
0020
1000
1000
0800
07c0
0000
ENDCHAR
STARTCHAR 304E
ENCODING 12366
SWIDTH 520 0
DWIDTH 16 0
BBX 16 16 0 -2
BITMAP
0400
0408
04c4
0712
3a08
01c4
0700
3880
0080
07c0
0040
2000
2000
1000
0f80
0000
ENDCHAR
STARTCHAR 304F
ENCODING 12367
SWIDTH 520 0
DWIDTH 16 0
BBX 16 16 0 -2
BITMAP
0000
0100
0080
0080
0100
0200
0400
0800
1000
0800
0400
0200
0100
0080
0080
0000
ENDCHAR
STARTCHAR 3050
ENCODING 12368
SWIDTH 520 0
DWIDTH 16 0
BBX 16 16 0 -2
BITMAP
0000
0208
0104
0122
0210
0408
0800
1000
2000
1000
0800
0400
0200
0100
0100
0000
ENDCHAR
STARTCHAR 3051
ENCODING 12369
SWIDTH 520 0
DWIDTH 16 0
BBX 16 16 0 -2
BITMAP
0000
0080
1040
1040
2040
2078
27c0
4040
4040
4040
5040
5040
2040
2080
0100
0000
ENDCHAR
STARTCHAR 3052
ENCODING 12370
SWIDTH 520 0
DWIDTH 16 0
BBX 16 16 0 -2
BITMAP
0008
0084
1052
1048
2044
2070
27c0
4040
4040
4040
5040
5040
2040
2080
0100
0000
ENDCHAR
STARTCHAR 3053
ENCODING 12371
SWIDTH 520 0
DWIDTH 16 0
BBX 16 16 0 -2
BITMAP
0000
0000
1000
0fe0
0080
0300
0400
0000
2000
2000
2000
1010
0ff8
0000
0000
0000
ENDCHAR
STARTCHAR 3054
ENCODING 12372
SWIDTH 520 0
DWIDTH 16 0
BBX 16 16 0 -2
BITMAP
0000
0000
1008
0fe4
0082
0310
0408
0004
2000
2000
2000
1010
0ff8
0000
0000
0000
ENDCHAR
STARTCHAR 3055
ENCODING 12373
SWIDTH 520 0
DWIDTH 16 0
BBX 16 16 0 -2
BITMAP
0000
0400
0230
02c0
3f00
0100
0080
0040
01e0
0820
1000
1000
1000
0800
07e0
0000
ENDCHAR
STARTCHAR 3056
ENCODING 12374
SWIDTH 520 0
DWIDTH 16 0
BBX 16 16 0 -2
BITMAP
0000
0408
0204
02d2
3f08
0104
0080
0040
01e0
0820
1000
1000
1000
0800
07e0
0000
ENDCHAR
STARTCHAR 3057
ENCODING 12375
SWIDTH 520 0
DWIDTH 16 0
BBX 16 16 0 -2
BITMAP
0000
1800
0c00
0800
0800
0800
0800
0800
0800
0800
0810
0820
0840
0980
0600
0000
ENDCHAR
STARTCHAR 3058
ENCODING 12376
SWIDTH 520 0
DWIDTH 16 0
BBX 16 16 0 -2
BITMAP
0000
1810
0c08
0824
0810
0808
0800
0800
0800
0800
0810
0820
0840
0980
0600
0000
ENDCHAR
STARTCHAR 3059
ENCODING 12377
SWIDTH 520 0
DWIDTH 16 0
BBX 16 16 0 -2
BITMAP
0000
0300
0100
0100
7ff8
0100
0700
0980
0980
0980
0680
0080
0100
0100
0200
0c00
ENDCHAR
STARTCHAR 305A
ENCODING 12378
SWIDTH 520 0
DWIDTH 16 0
BBX 16 16 0 -2
BITMAP
0308
0104
0112
0108
7ff4
0100
0700
0980
0980
0980
0680
0080
0100
0100
0200
0c00
ENDCHAR
STARTCHAR 305B
ENCODING 12379
SWIDTH 520 0
DWIDTH 16 0
BBX 16 16 0 -2
BITMAP
0000
0080
1040
0840
0840
0bfc
7c40
0840
0840
0840
0940
0880
0800
0800
07f0
0000
ENDCHAR
STARTCHAR 305C
ENCODING 12380
SWIDTH 520 0
DWIDTH 16 0
BBX 16 16 0 -2
BITMAP
0008
0084
1052
0848
0844
0bf0
7c40
0840
0840
0840
0940
0880
0800
0800
07f0
0000
ENDCHAR
STARTCHAR 305D
ENCODING 12381
SWIDTH 520 0
DWIDTH 16 0
BBX 16 16 0 -2
BITMAP
0000
1000
0f80
0100
0200
0410
08f8
1f00
2200
4400
0400
0400
0200
01f0
0000
0000
ENDCHAR
STARTCHAR 305E
ENCODING 12382
SWIDTH 520 0
DWIDTH 16 0
BBX 16 16 0 -2
BITMAP
0008
1024
0f92
0108
0200
0410
08f8
1f00
2200
4400
0400
0400
0200
01f0
0000
0000
ENDCHAR
STARTCHAR 305F
ENCODING 12383
SWIDTH 520 0
DWIDTH 16 0
BBX 16 16 0 -2
BITMAP
0000
0400
0400
4700
3c00
09e0
0830
0840
1000
1000
1200
2200
2108
40fc
0000
0000
ENDCHAR
STARTCHAR 3060
ENCODING 12384
SWIDTH 520 0
DWIDTH 16 0
BBX 16 16 0 -2
BITMAP
0008
0404
0412
4708
3c04
09e0
0830
0840
1000
1000
1200
2200
2108
40fc
0000
0000
ENDCHAR
STARTCHAR 3061
ENCODING 12385
SWIDTH 520 0
DWIDTH 16 0
BBX 16 16 0 -2
BITMAP
0000
0200
0200
0280
03c0
7e00
0400
07c0
0420
0c10
0810
0010
0020
0020
00c0
0300
ENDCHAR
STARTCHAR 3062
ENCODING 12386
SWIDTH 520 0
DWIDTH 16 0
BBX 16 16 0 -2
BITMAP
0000
0408
0404
0512
0788
7c04
0800
0bc0
0c20
1810
1010
0010
0020
0020
00c0
0300
ENDCHAR
STARTCHAR 3063
ENCODING 12387
SWIDTH 520 0
DWIDTH 16 0
BBX 16 16 0 -2
BITMAP
0000
0000
0000
0000
0000
0000
0000
00c0
1f20
0810
0010
0010
0020
0040
0180
0000
ENDCHAR
STARTCHAR 3064
ENCODING 12388
SWIDTH 520 0
DWIDTH 16 0
BBX 16 16 0 -2
BITMAP
0000
0000
0000
01e0
0610
7808
2008
0008
0008
0008
0010
0020
00c0
0700
0000
0000
ENDCHAR
STARTCHAR 3065
ENCODING 12389
SWIDTH 520 0
DWIDTH 16 0
BBX 16 16 0 -2
BITMAP
0008
0004
0012
03c8
0c24
f010
4010
0010
0010
0010
0020
0040
0180
0e00
0000
0000
ENDCHAR
STARTCHAR 3066
ENCODING 12390
SWIDTH 520 0
DWIDTH 16 0
BBX 16 16 0 -2
BITMAP
0000
0000
0000
0008
00fc
7fc0
2100
0200
0400
0400
0400
0400
0400
0200
01f0
0000
ENDCHAR
STARTCHAR 3067
ENCODING 12391
SWIDTH 520 0
DWIDTH 16 0
BBX 16 16 0 -2
BITMAP
0000
0000
0000
0008
00fc
7fc0
2108
0204
0412
0408
0404
0400
0400
0200
01f0
0000
ENDCHAR
STARTCHAR 3068
ENCODING 12392
SWIDTH 520 0
DWIDTH 16 0
BBX 16 16 0 -2
BITMAP
0000
0000
0200
0100
0100
0130
0160
0180
0600
0800
1000
1000
1000
0800
07e0
0000
ENDCHAR
STARTCHAR 3069
ENCODING 12393
SWIDTH 520 0
DWIDTH 16 0
BBX 16 16 0 -2
BITMAP
0008
0004
0212
0108
0104
0130
0160
0180
0600
0800
1000
1000
1000
0800
07e0
0000
ENDCHAR
STARTCHAR 306A
ENCODING 12394
SWIDTH 520 0
DWIDTH 16 0
BBX 16 16 0 -2
BITMAP
0000
0000
0c20
0410
0708
7c18
2440
0840
0840
1040
1040
23e0
4450
0448
0384
0000
ENDCHAR
STARTCHAR 306B
ENCODING 12395
SWIDTH 520 0
DWIDTH 16 0
BBX 16 16 0 -2
BITMAP
0000
2000
1000
101c
13e8
2010
2020
2000
4000
4a00
4a00
5200
5108
60fc
4000
0000
ENDCHAR
STARTCHAR 306C
ENCODING 12396
SWIDTH 520 0
DWIDTH 16 0
BBX 16 16 0 -2
BITMAP
0000
0200
0100
2100
1100
17f0
1908
1104
3104
4a04
4a74
448c
4494
4a62
3000
0000
ENDCHAR
STARTCHAR 306D
ENCODING 12397
SWIDTH 520 0
DWIDTH 16 0
BBX 16 16 0 -2
BITMAP
0000
1000
0800
0800
0860
1e90
6910
0a10
0c10
1810
2810
48f0
a918
2924
18c2
0000
ENDCHAR
STARTCHAR 306E
ENCODING 12398
SWIDTH 520 0
DWIDTH 16 0
BBX 16 16 0 -2
BITMAP
0000
0000
0000
07c0
1930
2108
4204
4204
4204
4404
4408
2808
1010
0020
00c0
0000
ENDCHAR
STARTCHAR 306F
ENCODING 12399
SWIDTH 520 0
DWIDTH 16 0
BBX 16 16 0 -2
BITMAP
0000
2080
1040
1050
1078
27c0
2040
2040
4040
4840
4840
53c0
5470
6448
4384
0000
ENDCHAR
STARTCHAR 3070
ENCODING 12400
SWIDTH 520 0
DWIDTH 16 0
BBX 16 16 0 -2
BITMAP
0008
2084
1052
1048
1074
27c0
2040
2040
4040
4840
4840
53c0
5470
6448
4384
0000
ENDCHAR
STARTCHAR 3071
ENCODING 12401
SWIDTH 520 0
DWIDTH 16 0
BBX 16 16 0 -2
BITMAP
000c
2092
1052
104c
1070
27c0
2040
2040
4040
4840
4840
53c0
5470
6448
4384
0000
ENDCHAR
STARTCHAR 3072
ENCODING 12402
SWIDTH 520 0
DWIDTH 16 0
BBX 16 16 0 -2
BITMAP
0000
0000
0200
3e20
0420
0830
0828
1024
1020
2020
2040
2040
2040
1080
0f00
0000
ENDCHAR
STARTCHAR 3073
ENCODING 12403
SWIDTH 520 0
DWIDTH 16 0
BBX 16 16 0 -2
BITMAP
0008
0004
0212
3e28
0424
0830
0828
1024
1020
2020
2040
2040
2040
1080
0f00
0000
ENDCHAR
STARTCHAR 3074
ENCODING 12404
SWIDTH 520 0
DWIDTH 16 0
BBX 16 16 0 -2
BITMAP
000c
0012
0212
3e2c
0420
0830
0828
1024
1020
2020
2040
2040
2040
1080
0f00
0000
ENDCHAR
STARTCHAR 3075
ENCODING 12405
SWIDTH 520 0
DWIDTH 16 0
BBX 16 16 0 -2
BITMAP
0000
0200
0180
00c0
0100
0200
0200
0100
00e0
0398
0484
088c
7890
2680
0100
0000
ENDCHAR
STARTCHAR 3076
ENCODING 12406
SWIDTH 520 0
DWIDTH 16 0
BBX 16 16 0 -2
BITMAP
0008
0204
0192
00c8
0104
0200
0200
0100
00e0
0398
0484
088c
7890
2680
0100
0000
ENDCHAR
STARTCHAR 3077
ENCODING 12407
SWIDTH 520 0
DWIDTH 16 0
BBX 16 16 0 -2
BITMAP
000c
0212
0192
00cc
0100
0200
0200
0100
00e0
0398
0484
088c
7890
2680
0100
0000
ENDCHAR
STARTCHAR 3078
ENCODING 12408
SWIDTH 520 0
DWIDTH 16 0
BBX 16 16 0 -2
BITMAP
0000
0000
0000
0000
0700
0880
1040
6020
0018
0006
0000
0000
0000
0000
0000
0000
ENDCHAR
STARTCHAR 3079
ENCODING 12409
SWIDTH 520 0
DWIDTH 16 0
BBX 16 16 0 -2
BITMAP
0000
0008
0004
0012
0708
0884
1040
6020
0018
0006
0000
0000
0000
0000
0000
0000
ENDCHAR
STARTCHAR 307A
ENCODING 12410
SWIDTH 520 0
DWIDTH 16 0
BBX 16 16 0 -2
BITMAP
0000
0018
0024
0024
0718
0880
1040
6020
0018
0006
0000
0000
0000
0000
0000
0000
ENDCHAR
STARTCHAR 307B
ENCODING 12411
SWIDTH 520 0
DWIDTH 16 0
BBX 16 16 0 -2
BITMAP
0000
2070
17c0
1040
1040
2040
27f8
2040
4040
4840
4840
51c0
5270
6248
4184
0000
ENDCHAR
STARTCHAR 307C
ENCODING 12412
SWIDTH 520 0
DWIDTH 16 0
BBX 16 16 0 -2
BITMAP
0008
20e4
1752
1048
1044
2040
27f8
2040
4040
4840
4840
51c0
5270
6248
4184
0000
ENDCHAR
STARTCHAR 307D
ENCODING 12413
SWIDTH 520 0
DWIDTH 16 0
BBX 16 16 0 -2
BITMAP
0000
20ec
1752
1052
104c
2040
27f0
2040
4040
4840
4840
51c0
5270
6248
4184
0000
ENDCHAR
STARTCHAR 307E
ENCODING 12414
SWIDTH 520 0
DWIDTH 16 0
BBX 16 16 0 -2
BITMAP
0000
0100
0100
01f0
3f00
0100
01e0
1f00
0100
0100
0100
1d00
23c0
2130
1e08
0000
ENDCHAR
STARTCHAR 307F
ENCODING 12415
SWIDTH 520 0
DWIDTH 16 0
BBX 16 16 0 -2
BITMAP
0000
0000
1380
0c80
0080
0100
0110
0110
0210
1a10
27a0
4470
4828
3044
0080
0100
ENDCHAR
STARTCHAR 3080
ENCODING 12416
SWIDTH 520 0
DWIDTH 16 0
BBX 16 16 0 -2
BITMAP
0000
0800
0400
0490
07c8
7c04
040c
1c10
2400
2400
2410
1c10
0810
0818
07f0
0000
ENDCHAR
STARTCHAR 3081
ENCODING 12417
SWIDTH 520 0
DWIDTH 16 0
BBX 16 16 0 -2
BITMAP
0000
0100
1080
1080
1080
1fc0
1120
2910
4508
4208
4508
4810
3010
0020
00c0
0000
ENDCHAR
STARTCHAR 3082
ENCODING 12418
SWIDTH 520 0
DWIDTH 16 0
BBX 16 16 0 -2
BITMAP
0200
0200
0200
0200
23c0
1e00
0410
0408
44c8
3f08
0408
0408
0408
0408
03f0
0000
ENDCHAR
STARTCHAR 3083
ENCODING 12419
SWIDTH 520 0
DWIDTH 16 0
BBX 16 16 0 -2
BITMAP
0000
0000
0200
0100
0080
0080
0330
2448
1f88
0208
0208
0170
0100
0080
0080
0040
ENDCHAR
STARTCHAR 3084
ENCODING 12420
SWIDTH 520 0
DWIDTH 16 0
BBX 16 16 0 -2
BITMAP
0000
0200
0180
0040
0640
0980
1030
11c8
7e04
0804
0888
0470
0200
0200
0100
0080
ENDCHAR
STARTCHAR 3085
ENCODING 12421
SWIDTH 520 0
DWIDTH 16 0
BBX 16 16 0 -2
BITMAP
0000
0000
0000
0100
0080
0080
11e0
1290
1488
1488
1888
1a88
1190
10e0
0100
0200
ENDCHAR
STARTCHAR 3086
ENCODING 12422
SWIDTH 520 0
DWIDTH 16 0
BBX 16 16 0 -2
BITMAP
0000
0080
1040
1040
10f8
1144
2244
2444
2444
2444
2844
2a44
3158
10e0
0080
0300
ENDCHAR
STARTCHAR 3087
ENCODING 12423
SWIDTH 520 0
DWIDTH 16 0
BBX 16 16 0 -2
BITMAP
0000
0000
0000
0200
0100
0130
01c0
0100
0100
0100
0100
0fc0
1130
1108
0e00
0000
ENDCHAR
STARTCHAR 3088
ENCODING 12424
SWIDTH 520 0
DWIDTH 16 0
BBX 16 16 0 -2
BITMAP
0000
0200
0100
0100
0110
0138
01c0
0100
0100
0100
1f00
21c0
4130
4208
3c04
0000
ENDCHAR
STARTCHAR 3089
ENCODING 12425
SWIDTH 520 0
DWIDTH 16 0
BBX 16 16 0 -2
BITMAP
0000
1c00
0200
0200
0400
0800
1000
1000
10e0
1310
1408
1808
0008
0030
00c0
0300
ENDCHAR
STARTCHAR 308A
ENCODING 12426
SWIDTH 520 0
DWIDTH 16 0
BBX 16 16 0 -2
BITMAP
0000
1000
0880
0940
0a20
0a20
1220
1420
1420
1820
0840
0040
0080
0080
0100
0200
ENDCHAR
STARTCHAR 308B
ENCODING 12427
SWIDTH 520 0
DWIDTH 16 0
BBX 16 16 0 -2
BITMAP
0000
0040
0fa0
0020
0040
0080
0100
02f0
0708
0804
1004
0384
0444
0428
03f0
0000
ENDCHAR
STARTCHAR 308C
ENCODING 12428
SWIDTH 520 0
DWIDTH 16 0
BBX 16 16 0 -2
BITMAP
0000
0800
0820
0850
0e88
7908
0a10
0c10
0810
1810
2810
2812
6814
1808
0800
0000
ENDCHAR
STARTCHAR 308D
ENCODING 12429
SWIDTH 520 0
DWIDTH 16 0
BBX 16 16 0 -2
BITMAP
0000
03c0
1c40
0080
0100
0200
04e0
0f10
1808
2008
0008
0010
0010
0060
0180
0000
ENDCHAR
STARTCHAR 308E
ENCODING 12430
SWIDTH 520 0
DWIDTH 16 0
BBX 16 16 0 -2
BITMAP
0000
0000
0800
0400
0400
0700
3cf0
0708
0c08
1408
2408
3410
0c20
04c0
0000
0000
ENDCHAR
STARTCHAR 308F
ENCODING 12431
SWIDTH 520 0
DWIDTH 16 0
BBX 16 16 0 -2
BITMAP
0000
1000
0800
0800
4f00
3800
0be0
0c18
0804
1804
2804
4804
6808
1810
0860
0000
ENDCHAR
STARTCHAR 3090
ENCODING 12432
SWIDTH 520 0
DWIDTH 16 0
BBX 16 16 0 -2
BITMAP
0000
0000
0380
1c80
0080
0100
0100
03f0
0f08
1204
2204
4464
3894
0088
0070
0000
ENDCHAR
STARTCHAR 3091
ENCODING 12433
SWIDTH 520 0
DWIDTH 16 0
BBX 16 16 0 -2
BITMAP
0000
0fc0
0080
0100
03e0
0610
0810
1390
24a0
03c0
0200
0400
1838
2644
4188
0000
ENDCHAR
STARTCHAR 3092
ENCODING 12434
SWIDTH 520 0
DWIDTH 16 0
BBX 16 16 0 -2
BITMAP
0000
0200
0100
01e0
1f00
0108
020c
03d0
0460
08c0
1140
0240
0240
0200
01f8
0000
ENDCHAR
STARTCHAR 3093
ENCODING 12435
SWIDTH 520 0
DWIDTH 16 0
BBX 16 16 0 -2
BITMAP
0000
0200
0100
0100
0100
0200
0200
0280
0340
0240
0422
0422
0424
0424
0418
0000
ENDCHAR
STARTCHAR 30A1
ENCODING 12449
SWIDTH 520 0
DWIDTH 16 0
BBX 16 16 0 -2
BITMAP
0000
0000
0000
0000
1ff0
0010
0260
0180
0100
0100
0100
0100
0200
0400
0800
0000
ENDCHAR
STARTCHAR 30A2
ENCODING 12450
SWIDTH 520 0
DWIDTH 16 0
BBX 16 16 0 -2
BITMAP
0000
0000
3ff8
0008
0010
0020
02c0
0100
0100
0100
0100
0200
0200
0400
0800
0000
ENDCHAR
STARTCHAR 30A3
ENCODING 12451
SWIDTH 520 0
DWIDTH 16 0
BBX 16 16 0 -2
BITMAP
0000
0000
0000
0040
0040
0080
0100
0300
0500
0900
1100
0100
0100
0100
0100
0000
ENDCHAR
STARTCHAR 30A4
ENCODING 12452
SWIDTH 520 0
DWIDTH 16 0
BBX 16 16 0 -2
BITMAP
0000
0040
0040
0080
0080
0100
0300
0500
0900
1100
2100
0100
0100
0100
0100
0100
ENDCHAR
STARTCHAR 30A5
ENCODING 12453
SWIDTH 520 0
DWIDTH 16 0
BBX 16 16 0 -2
BITMAP
0000
0000
0000
0100
1110
1ff8
1010
1010
1020
0020
0040
0040
0080
0300
0c00
0000
ENDCHAR
STARTCHAR 30A6
ENCODING 12454
SWIDTH 520 0
DWIDTH 16 0
BBX 16 16 0 -2
BITMAP
0000
0000
0100
2108
3ffc
2008
2008
2010
0010
0020
0020
0040
0080
0300
0c00
0000
ENDCHAR
STARTCHAR 30A7
ENCODING 12455
SWIDTH 520 0
DWIDTH 16 0
BBX 16 16 0 -2
BITMAP
0000
0000
0000
0020
1ff0
0100
0100
0100
0100
0110
3ff8
0000
0000
0000
0000
0000
ENDCHAR
STARTCHAR 30A8
ENCODING 12456
SWIDTH 520 0
DWIDTH 16 0
BBX 16 16 0 -2
BITMAP
0000
0000
0000
0010
3ff8
0100
0100
0100
0100
0100
0108
7ffc
0000
0000
0000
0000
ENDCHAR
STARTCHAR 30A9
ENCODING 12457
SWIDTH 520 0
DWIDTH 16 0
BBX 16 16 0 -2
BITMAP
0000
0000
0100
0100
0110
3ff8
0300
0500
0900
1100
2100
0100
0500
0200
0000
0000
ENDCHAR
STARTCHAR 30AA
ENCODING 12458
SWIDTH 520 0
DWIDTH 16 0
BBX 16 16 0 -2
BITMAP
0000
0080
0080
0080
0088
7ffc
0080
0180
0280
0480
0880
1080
2080
4280
0100
0000
ENDCHAR
STARTCHAR 30AB
ENCODING 12459
SWIDTH 520 0
DWIDTH 16 0
BBX 16 16 0 -2
BITMAP
0000
0200
0200
0220
3ff0
0220
0220
0220
0420
0420
0820
0820
1040
2140
4080
0000
ENDCHAR
STARTCHAR 30AC
ENCODING 12460
SWIDTH 520 0
DWIDTH 16 0
BBX 16 16 0 -2
BITMAP
0008
0204
0212
0208
3fe4
0220
0220
0220
0420
0420
0820
0820
1040
2140
4080
0000
ENDCHAR
STARTCHAR 30AD
ENCODING 12461
SWIDTH 520 0
DWIDTH 16 0
BBX 16 16 0 -2
BITMAP
0000
0800
0800
0400
04e0
3f00
0200
0100
0170
3f80
0080
0040
0040
0020
0020
0000
ENDCHAR
STARTCHAR 30AE
ENCODING 12462
SWIDTH 520 0
DWIDTH 16 0
BBX 16 16 0 -2
BITMAP
0008
0804
0812
0408
04e4
3f00
0200
0100
0170
3f80
0080
0040
0040
0020
0020
0000
ENDCHAR
STARTCHAR 30AF
ENCODING 12463
SWIDTH 520 0
DWIDTH 16 0
BBX 16 16 0 -2
BITMAP
0000
0200
0200
0210
03f8
0410
0420
0820
1040
2040
0080
0100
0200
0c00
3000
0000
ENDCHAR
STARTCHAR 30B0
ENCODING 12464
SWIDTH 520 0
DWIDTH 16 0
BBX 16 16 0 -2
BITMAP
0008
0204
0212
0208
03e4
0420
0420
0840
1040
2080
0080
0100
0200
0c00
3000
0000
ENDCHAR
STARTCHAR 30B1
ENCODING 12465
SWIDTH 520 0
DWIDTH 16 0
BBX 16 16 0 -2
BITMAP
0000
0800
0800
0810
0ff8
1080
2080
4100
0100
0200
0200
0400
0800
1000
2000
0000
ENDCHAR
STARTCHAR 30B2
ENCODING 12466
SWIDTH 520 0
DWIDTH 16 0
BBX 16 16 0 -2
BITMAP
0008
0804
0812
0808
0ff4
1080
2080
4100
0100
0200
0200
0400
0800
1000
2000
0000
ENDCHAR
STARTCHAR 30B3
ENCODING 12467
SWIDTH 520 0
DWIDTH 16 0
BBX 16 16 0 -2
BITMAP
0000
0000
0000
0010
1ff8
0010
0010
0010
0020
0020
1ff0
0000
0000
0000
0000
0000
ENDCHAR
STARTCHAR 30B4
ENCODING 12468
SWIDTH 520 0
DWIDTH 16 0
BBX 16 16 0 -2
BITMAP
0008
0004
0012
0008
0024
3ff0
0020
0020
0020
0040
3fe0
0000
0000
0000
0000
0000
ENDCHAR
STARTCHAR 30B5
ENCODING 12469
SWIDTH 520 0
DWIDTH 16 0
BBX 16 16 0 -2
BITMAP
0000
0040
0440
0440
0440
0448
7ffc
0440
0440
0440
0440
0440
0080
0080
0100
0000
ENDCHAR
STARTCHAR 30B6
ENCODING 12470
SWIDTH 520 0
DWIDTH 16 0
BBX 16 16 0 -2
BITMAP
0008
0004
0092
0888
0884
0880
0888
7ffc
0880
0880
0880
0880
0900
0100
0200
0000
ENDCHAR
STARTCHAR 30B7
ENCODING 12471
SWIDTH 520 0
DWIDTH 16 0
BBX 16 16 0 -2
BITMAP
0000
0000
1800
0400
0200
3008
0810
0420
0040
0080
0100
0200
2400
1800
0000
0000
ENDCHAR
STARTCHAR 30B8
ENCODING 12472
SWIDTH 520 0
DWIDTH 16 0
BBX 16 16 0 -2
BITMAP
0008
0004
0012
1808
0404
0200
3008
0810
0420
0040
0080
0100
0200
2400
1800
0000
ENDCHAR
STARTCHAR 30B9
ENCODING 12473
SWIDTH 520 0
DWIDTH 16 0
BBX 16 16 0 -2
BITMAP
0000
0000
0000
3fe0
0020
0040
0040
0080
0100
0300
0480
0840
1030
2010
0000
0000
ENDCHAR
STARTCHAR 30BA
ENCODING 12474
SWIDTH 520 0
DWIDTH 16 0
BBX 16 16 0 -2
BITMAP
0008
0004
0012
0008
3fe4
0020
0040
0040
0080
0100
0380
0440
0820
1018
2008
0000
ENDCHAR
STARTCHAR 30BB
ENCODING 12475
SWIDTH 520 0
DWIDTH 16 0
BBX 16 16 0 -2
BITMAP
0000
0400
0400
0400
0400
07e0
7c20
0440
0480
0400
0400
0400
0420
03f0
0000
0000
ENDCHAR
STARTCHAR 30BC
ENCODING 12476
SWIDTH 520 0
DWIDTH 16 0
BBX 16 16 0 -2
BITMAP
0008
0004
0412
0408
0404
0400
07e0
7c20
0440
0480
0400
0400
0420
03f0
0000
0000
ENDCHAR
STARTCHAR 30BD
ENCODING 12477
SWIDTH 520 0
DWIDTH 16 0
BBX 16 16 0 -2
BITMAP
0000
0000
0020
2010
1010
0810
0c20
0420
0040
0040
0080
0100
0200
0c00
3000
0000
ENDCHAR
STARTCHAR 30BE
ENCODING 12478
SWIDTH 520 0
DWIDTH 16 0
BBX 16 16 0 -2
BITMAP
0008
0004
0012
0048
4024
2020
1020
1840
0840
0080
0080
0100
0200
0400
1800
6000
ENDCHAR
STARTCHAR 30BF
ENCODING 12479
SWIDTH 520 0
DWIDTH 16 0
BBX 16 16 0 -2
BITMAP
0000
0400
0420
07f0
0420
0820
0840
1040
2480
0280
0100
0280
0400
1800
6000
0000
ENDCHAR
STARTCHAR 30C0
ENCODING 12480
SWIDTH 520 0
DWIDTH 16 0
BBX 16 16 0 -2
BITMAP
0008
0804
0852
0fe8
0844
1040
1080
2080
4900
0500
0200
0500
0800
3000
c000
0000
ENDCHAR
STARTCHAR 30C1
ENCODING 12481
SWIDTH 520 0
DWIDTH 16 0
BBX 16 16 0 -2
BITMAP
0000
0020
01f0
1f00
0100
0108
7ffc
0100
0100
0200
0200
0400
0400
0800
1000
0000
ENDCHAR
STARTCHAR 30C2
ENCODING 12482
SWIDTH 520 0
DWIDTH 16 0
BBX 16 16 0 -2
BITMAP
0008
0004
0052
03e8
3e04
0200
0210
fff8
0200
0200
0400
0400
0800
0800
1000
2000
ENDCHAR
STARTCHAR 30C3
ENCODING 12483
SWIDTH 520 0
DWIDTH 16 0
BBX 16 16 0 -2
BITMAP
0000
0000
0000
0000
0400
0310
2110
1820
0820
0040
0040
0080
0100
0600
1800
0000
ENDCHAR
STARTCHAR 30C4
ENCODING 12484
SWIDTH 520 0
DWIDTH 16 0
BBX 16 16 0 -2
BITMAP
0000
0000
0400
0210
2110
1110
0820
0820
0040
0080
0100
0200
0400
0800
3000
0000
ENDCHAR
STARTCHAR 30C5
ENCODING 12485
SWIDTH 520 0
DWIDTH 16 0
BBX 16 16 0 -2
BITMAP
0008
0004
0812
0428
4224
2220
1040
1040
0080
0100
0200
0400
0800
1000
6000
0000
ENDCHAR
STARTCHAR 30C6
ENCODING 12486
SWIDTH 520 0
DWIDTH 16 0
BBX 16 16 0 -2
BITMAP
0000
0020
1ff0
0000
0000
0008
7ffc
0100
0100
0200
0200
0400
0400
0800
1000
2000
ENDCHAR
STARTCHAR 30C7
ENCODING 12487
SWIDTH 520 0
DWIDTH 16 0
BBX 16 16 0 -2
BITMAP
0008
0004
0092
3fc8
0004
0000
0010
fff8
0200
0200
0400
0400
0800
0800
1000
2000
ENDCHAR
STARTCHAR 30C8
ENCODING 12488
SWIDTH 520 0
DWIDTH 16 0
BBX 16 16 0 -2
BITMAP
0000
0000
0400
0400
0400
0400
0600
0500
04c0
0440
0400
0400
0400
0400
0000
0000
ENDCHAR
STARTCHAR 30C9
ENCODING 12489
SWIDTH 520 0
DWIDTH 16 0
BBX 16 16 0 -2
BITMAP
0008
0404
0412
0408
0404
0600
0500
0480
0460
0420
0400
0400
0400
0400
0400
0000
ENDCHAR
STARTCHAR 30CA
ENCODING 12490
SWIDTH 520 0
DWIDTH 16 0
BBX 16 16 0 -2
BITMAP
0000
0100
0100
0100
0108
7ffc
0100
0100
0100
0100
0200
0200
0400
0400
0800
0000
ENDCHAR
STARTCHAR 30CB
ENCODING 12491
SWIDTH 520 0
DWIDTH 16 0
BBX 16 16 0 -2
BITMAP
0000
0000
0000
0000
0020
1ff0
0000
0000
0000
0008
7ffc
0000
0000
0000
0000
0000
ENDCHAR
STARTCHAR 30CC
ENCODING 12492
SWIDTH 520 0
DWIDTH 16 0
BBX 16 16 0 -2
BITMAP
0000
0010
1ff8
0010
0020
0c20
0240
0140
0080
00c0
0130
0210
0400
0800
3000
0000
ENDCHAR
STARTCHAR 30CD
ENCODING 12493
SWIDTH 520 0
DWIDTH 16 0
BBX 16 16 0 -2
BITMAP
0200
0180
0080
0000
1fc0
0080
0100
0300
0540
0930
1110
2100
0100
0100
0100
0000
ENDCHAR
STARTCHAR 30CE
ENCODING 12494
SWIDTH 520 0
DWIDTH 16 0
BBX 16 16 0 -2
BITMAP
0000
0000
0020
0020
0020
0040
0040
0080
0080
0100
0100
0200
0400
0800
1000
0000
ENDCHAR
STARTCHAR 30CF
ENCODING 12495
SWIDTH 520 0
DWIDTH 16 0
BBX 16 16 0 -2
BITMAP
0000
0000
0000
0000
0440
0420
0810
0810
0808
1008
100c
2004
4000
0000
0000
0000
ENDCHAR
STARTCHAR 30D0
ENCODING 12496
SWIDTH 520 0
DWIDTH 16 0
BBX 16 16 0 -2
BITMAP
0008
0004
0012
0008
0444
0420
0810
0810
0808
1008
100c
2004
4000
0000
0000
0000
ENDCHAR
STARTCHAR 30D1
ENCODING 12497
SWIDTH 520 0
DWIDTH 16 0
BBX 16 16 0 -2
BITMAP
0000
000c
0012
0012
044c
0420
0810
0810
0808
1008
100c
2004
4000
0000
0000
0000
ENDCHAR
STARTCHAR 30D2
ENCODING 12498
SWIDTH 520 0
DWIDTH 16 0
BBX 16 16 0 -2
BITMAP
0000
0000
0800
0800
0840
0860
0980
0e00
0800
0800
0800
0820
07f0
0000
0000
0000
ENDCHAR
STARTCHAR 30D3
ENCODING 12499
SWIDTH 520 0
DWIDTH 16 0
BBX 16 16 0 -2
BITMAP
0008
0004
0012
2008
2004
2100
2180
2600
3800
2000
2000
2000
2080
1fc0
0000
0000
ENDCHAR
STARTCHAR 30D4
ENCODING 12500
SWIDTH 520 0
DWIDTH 16 0
BBX 16 16 0 -2
BITMAP
0000
000c
0012
2012
200c
2100
2180
2600
3800
2000
2000
2000
2080
1fc0
0000
0000
ENDCHAR
STARTCHAR 30D5
ENCODING 12501
SWIDTH 520 0
DWIDTH 16 0
BBX 16 16 0 -2
BITMAP
0000
0000
0020
7ff0
0020
0040
0040
0080
0080
0100
0200
0400
0800
1000
2000
0000
ENDCHAR
STARTCHAR 30D6
ENCODING 12502
SWIDTH 520 0
DWIDTH 16 0
BBX 16 16 0 -2
BITMAP
0008
0004
0012
0048
7fe4
0040
0080
0080
0100
0100
0200
0400
0800
1000
2000
0000
ENDCHAR
STARTCHAR 30D7
ENCODING 12503
SWIDTH 520 0
DWIDTH 16 0
BBX 16 16 0 -2
BITMAP
0000
000c
0012
0052
7fec
0040
0080
0080
0100
0100
0200
0400
0800
1000
2000
0000
ENDCHAR
STARTCHAR 30D8
ENCODING 12504
SWIDTH 520 0
DWIDTH 16 0
BBX 16 16 0 -2
BITMAP
0000
0000
0000
0000
0000
1800
2400
4300
00c0
0030
000e
0000
0000
0000
0000
0000
ENDCHAR
STARTCHAR 30D9
ENCODING 12505
SWIDTH 520 0
DWIDTH 16 0
BBX 16 16 0 -2
BITMAP
0008
0004
0012
0008
0004
1800
2400
4300
00c0
0030
000e
0000
0000
0000
0000
0000
ENDCHAR
STARTCHAR 30DA
ENCODING 12506
SWIDTH 520 0
DWIDTH 16 0
BBX 16 16 0 -2
BITMAP
0000
000c
0012
0012
000c
1800
2400
4300
00c0
0030
000e
0000
0000
0000
0000
0000
ENDCHAR
STARTCHAR 30DB
ENCODING 12507
SWIDTH 520 0
DWIDTH 16 0
BBX 16 16 0 -2
BITMAP
0000
0100
0100
0100
0108
7ffc
0100
0100
0920
0910
1108
2108
0100
0500
0200
0000
ENDCHAR
STARTCHAR 30DC
ENCODING 12508
SWIDTH 520 0
DWIDTH 16 0
BBX 16 16 0 -2
BITMAP
0008
0104
0112
0108
0104
0108
7ffc
0100
0100
0920
0910
1108
2108
0500
0200
0000
ENDCHAR
STARTCHAR 30DD
ENCODING 12509
SWIDTH 520 0
DWIDTH 16 0
BBX 16 16 0 -2
BITMAP
000c
0112
0112
010c
0100
0108
7ffc
0100
0100
0920
0910
1108
2108
0500
0200
0000
ENDCHAR
STARTCHAR 30DE
ENCODING 12510
SWIDTH 520 0
DWIDTH 16 0
BBX 16 16 0 -2
BITMAP
0000
0000
0000
0010
3ff8
0010
0020
0020
0640
0180
0080
0040
0040
0000
0000
0000
ENDCHAR
STARTCHAR 30DF
ENCODING 12511
SWIDTH 520 0
DWIDTH 16 0
BBX 16 16 0 -2
BITMAP
0000
0000
0e00
0180
0060
0020
1c00
0300
00c0
0040
1c00
0380
0060
0020
0000
0000
ENDCHAR
STARTCHAR 30E0
ENCODING 12512
SWIDTH 520 0
DWIDTH 16 0
BBX 16 16 0 -2
BITMAP
0000
0200
0200
0200
0200
0400
0400
0400
0400
0840
0820
1010
10f8
3f08
1008
0000
ENDCHAR
STARTCHAR 30E1
ENCODING 12513
SWIDTH 520 0
DWIDTH 16 0
BBX 16 16 0 -2
BITMAP
0000
0000
0020
0010
0020
0420
0240
0180
0080
0160
0220
0400
0800
1000
6000
0000
ENDCHAR
STARTCHAR 30E2
ENCODING 12514
SWIDTH 520 0
DWIDTH 16 0
BBX 16 16 0 -2
BITMAP
0000
0040
03e0
3e00
0200
0208
03fc
7e00
0200
0200
0200
0200
0210
01f8
0000
0000
ENDCHAR
STARTCHAR 30E3
ENCODING 12515
SWIDTH 520 0
DWIDTH 16 0
BBX 16 16 0 -2
BITMAP
0000
0000
0000
0000
0000
0800
0400
05f8
3e08
0210
0120
0100
0080
0080
0040
0020
ENDCHAR
STARTCHAR 30E4
ENCODING 12516
SWIDTH 520 0
DWIDTH 16 0
BBX 16 16 0 -2
BITMAP
0000
1000
0800
0800
0400
05f8
7e08
0210
0120
0100
0080
0080
0040
0040
0020
0000
ENDCHAR
STARTCHAR 30E5
ENCODING 12517
SWIDTH 520 0
DWIDTH 16 0
BBX 16 16 0 -2
BITMAP
0000
0000
0000
0000
0000
0020
0ff0
0020
0020
0020
0040
0048
3ffc
0000
0000
0000
ENDCHAR
STARTCHAR 30E6
ENCODING 12518
SWIDTH 520 0
DWIDTH 16 0
BBX 16 16 0 -2
BITMAP
0000
0000
0010
1ff8
0010
0010
0010
0020
0020
0024
7ffe
0000
0000
0000
0000
0000
ENDCHAR
STARTCHAR 30E7
ENCODING 12519
SWIDTH 520 0
DWIDTH 16 0
BBX 16 16 0 -2
BITMAP
0000
0000
0020
1ff0
0020
0020
1fe0
0020
0020
1fe0
0020
0000
0000
0000
0000
0000
ENDCHAR
STARTCHAR 30E8
ENCODING 12520
SWIDTH 520 0
DWIDTH 16 0
BBX 16 16 0 -2
BITMAP
0000
0010
3ff8
0010
0010
0010
3ff0
0010
0010
0010
3ff0
0010
0000
0000
0000
0000
ENDCHAR
STARTCHAR 30E9
ENCODING 12521
SWIDTH 520 0
DWIDTH 16 0
BBX 16 16 0 -2
BITMAP
0000
0040
0fe0
0000
0010
3ff8
0010
0010
0020
0020
0040
0080
0100
0600
1800
0000
ENDCHAR
STARTCHAR 30EA
ENCODING 12522
SWIDTH 520 0
DWIDTH 16 0
BBX 16 16 0 -2
BITMAP
0000
0040
0440
0440
0440
0440
0440
0440
0440
0480
0080
0100
0100
0200
0400
0800
ENDCHAR
STARTCHAR 30EB
ENCODING 12523
SWIDTH 520 0
DWIDTH 16 0
BBX 16 16 0 -2
BITMAP
0000
0000
0000
0000
0480
0480
0480
0480
0484
0888
0890
10a0
20c0
4000
0000
0000
ENDCHAR
STARTCHAR 30EC
ENCODING 12524
SWIDTH 520 0
DWIDTH 16 0
BBX 16 16 0 -2
BITMAP
0000
0000
0000
2000
1000
1010
1020
1040
1080
1100
1200
1400
1800
0000
0000
0000
ENDCHAR
STARTCHAR 30ED
ENCODING 12525
SWIDTH 520 0
DWIDTH 16 0
BBX 16 16 0 -2
BITMAP
0000
0000
1020
1ff0
1020
1020
1020
1020
1040
1040
1fe0
1000
0000
0000
0000
0000
ENDCHAR
STARTCHAR 30EE
ENCODING 12526
SWIDTH 520 0
DWIDTH 16 0
BBX 16 16 0 -2
BITMAP
0000
0000
1020
1ff0
1020
1020
0020
0040
0040
0080
0100
0200
0400
0000
0000
0000
ENDCHAR
STARTCHAR 30EF
ENCODING 12527
SWIDTH 520 0
DWIDTH 16 0
BBX 16 16 0 -2
BITMAP
0000
0000
2010
3ff8
2010
2010
0010
0020
0020
0040
0040
0080
0100
0200
0400
0000
ENDCHAR
STARTCHAR 30F0
ENCODING 12528
SWIDTH 520 0
DWIDTH 16 0
BBX 16 16 0 -2
BITMAP
0000
0100
0100
0140
1fe0
0900
0900
0900
0908
7ffc
0100
0100
0100
0100
0100
0000
ENDCHAR
STARTCHAR 30F1
ENCODING 12529
SWIDTH 520 0
DWIDTH 16 0
BBX 16 16 0 -2
BITMAP
0000
0000
0000
1fe0
0040
0280
0100
0100
0100
0108
7ffc
0000
0000
0000
0000
0000
ENDCHAR
STARTCHAR 30F2
ENCODING 12530
SWIDTH 520 0
DWIDTH 16 0
BBX 16 16 0 -2
BITMAP
0000
0000
0010
1ff8
0010
0010
7ff8
0020
0020
0040
0040
0080
0100
0200
0400
0000
ENDCHAR
STARTCHAR 30F3
ENCODING 12531
SWIDTH 520 0
DWIDTH 16 0
BBX 16 16 0 -2
BITMAP
0000
0000
1000
0804
0608
0210
0020
0040
0080
0100
0200
2400
1800
0000
0000
0000
ENDCHAR
STARTCHAR 30F4
ENCODING 12532
SWIDTH 520 0
DWIDTH 16 0
BBX 16 16 0 -2
BITMAP
0008
0204
0212
2228
3ff4
2020
2020
0020
0040
0040
0080
0100
0200
0400
0800
0000
ENDCHAR
STARTCHAR 30F5
ENCODING 12533
SWIDTH 520 0
DWIDTH 16 0
BBX 16 16 0 -2
BITMAP
0000
0000
0100
0100
0120
0ff0
0120
0120
0220
0220
0220
0540
0880
0000
0000
0000
ENDCHAR
STARTCHAR 30F6
ENCODING 12534
SWIDTH 520 0
DWIDTH 16 0
BBX 16 16 0 -2
BITMAP
0000
0000
0400
0400
0440
07e0
0880
1080
2100
0100
0200
0400
0800
0000
0000
0000
ENDCHAR
STARTCHAR 30FB
ENCODING 12539
SWIDTH 520 0
DWIDTH 8 0
BBX 8 16 0 -2
BITMAP
00
00
00
00
00
38
38
38
00
00
00
00
00
00
00
00
ENDCHAR
STARTCHAR 3105
ENCODING 12549
SWIDTH 520 0
DWIDTH 16 0
BBX 16 16 0 -2
BITMAP
0000
0800
0800
1000
3ff8
0008
0008
0008
0008
0008
0008
0008
0010
0110
00a0
0040
ENDCHAR
STARTCHAR 3106
ENCODING 12550
SWIDTH 520 0
DWIDTH 16 0
BBX 16 16 0 -2
BITMAP
0000
0400
0400
0800
1ff8
0008
0008
0010
0110
00a0
0040
00a0
0310
0c10
3000
0000
ENDCHAR
STARTCHAR 3107
ENCODING 12551
SWIDTH 520 0
DWIDTH 16 0
BBX 16 16 0 -2
BITMAP
0000
0000
0000
0000
3ff8
2008
2008
2008
2008
2008
2008
2008
0000
0000
0000
0000
ENDCHAR
STARTCHAR 3108
ENCODING 12552
SWIDTH 520 0
DWIDTH 16 0
BBX 16 16 0 -2
BITMAP
0000
0000
3ff8
1000
1000
1000
1000
1000
1000
1000
1000
1000
1000
0ffc
0000
0000
ENDCHAR
STARTCHAR 3109
ENCODING 12553
SWIDTH 520 0
DWIDTH 16 0
BBX 16 16 0 -2
BITMAP
0000
0400
0400
0800
1ff8
0108
0108
0108
0108
0208
0208
0408
0810
1110
20a0
0040
ENDCHAR
STARTCHAR 310A
ENCODING 12554
SWIDTH 520 0
DWIDTH 16 0
BBX 16 16 0 -2
BITMAP
0000
0100
0100
0100
0100
7ffc
0100
0100
0200
0200
0400
0820
1ff0
0008
0000
0000
ENDCHAR
STARTCHAR 310B
ENCODING 12555
SWIDTH 520 0
DWIDTH 16 0
BBX 16 16 0 -2
BITMAP
0000
0000
3fc0
0040
0080
0100
03f8
0008
0008
0008
0008
0008
0010
0110
00a0
0040
ENDCHAR
STARTCHAR 310C
ENCODING 12556
SWIDTH 520 0
DWIDTH 16 0
BBX 16 16 0 -2
BITMAP
0000
0100
0900
0900
1100
1ff8
0108
0108
0108
0208
0208
0408
0408
0810
1050
2020
ENDCHAR
STARTCHAR 310D
ENCODING 12557
SWIDTH 520 0
DWIDTH 16 0
BBX 16 16 0 -2
BITMAP
0000
0000
0220
0220
0440
0440
0880
0880
1100
0880
0880
0440
0440
0220
0220
0000
ENDCHAR
STARTCHAR 310E
ENCODING 12558
SWIDTH 520 0
DWIDTH 16 0
BBX 16 16 0 -2
BITMAP
0000
0000
7ffc
0200
0200
0400
0800
1ff0
0010
0010
0010
0010
0010
0020
00a0
0040
ENDCHAR
STARTCHAR 310F
ENCODING 12559
SWIDTH 520 0
DWIDTH 16 0
BBX 16 16 0 -2
BITMAP
0000
0000
3ffc
1000
1000
1000
1000
1000
1000
1000
1000
2000
2000
4000
8000
0000
ENDCHAR
STARTCHAR 3110
ENCODING 12560
SWIDTH 520 0
DWIDTH 16 0
BBX 16 16 0 -2
BITMAP
0000
0020
0420
0420
0420
0420
0420
0420
0860
09a0
0e20
0020
0020
0020
0020
0020
ENDCHAR
STARTCHAR 3111
ENCODING 12561
SWIDTH 520 0
DWIDTH 16 0
BBX 16 16 0 -2
BITMAP
0000
0080
0080
0080
0100
0100
0200
0400
0200
0100
0100
0080
0080
0040
0040
0000
ENDCHAR
STARTCHAR 3112
ENCODING 12562
SWIDTH 520 0
DWIDTH 16 0
BBX 16 16 0 -2
BITMAP
0000
0000
7ffc
0100
0100
0100
0100
0100
0100
0100
0100
0100
0100
0100
0100
0000
ENDCHAR
STARTCHAR 3113
ENCODING 12563
SWIDTH 520 0
DWIDTH 16 0
BBX 16 16 0 -2
BITMAP
0000
0100
0100
1110
1110
1110
1110
1110
1110
1ff0
0100
0100
0100
7ffc
0000
0000
ENDCHAR
STARTCHAR 3114
ENCODING 12564
SWIDTH 520 0
DWIDTH 16 0
BBX 16 16 0 -2
BITMAP
0000
0040
0080
0100
0200
0440
0880
1100
0300
0500
0900
1100
0100
0100
0100
0100
ENDCHAR
STARTCHAR 3115
ENCODING 12565
SWIDTH 520 0
DWIDTH 16 0
BBX 16 16 0 -2
BITMAP
0000
0000
1ff8
0008
0008
0008
1ff8
1000
1000
1000
1000
1000
2000
2000
4000
8000
ENDCHAR
STARTCHAR 3116
ENCODING 12566
SWIDTH 520 0
DWIDTH 16 0
BBX 16 16 0 -2
BITMAP
0000
0000
0fe0
0820
0820
0820
0a20
0920
08a0
0820
0820
0820
0820
0fe0
0000
0000
ENDCHAR
STARTCHAR 3117
ENCODING 12567
SWIDTH 520 0
DWIDTH 16 0
BBX 16 16 0 -2
BITMAP
0000
0000
3ff0
0410
0410
0410
0410
0410
0420
0520
04c0
0400
0400
0400
0400
0400
ENDCHAR
STARTCHAR 3118
ENCODING 12568
SWIDTH 520 0
DWIDTH 16 0
BBX 16 16 0 -2
BITMAP
0000
0200
0200
0200
7ffc
0400
0400
0400
0ff0
0010
0010
0020
0020
0040
0280
0100
ENDCHAR
STARTCHAR 3119
ENCODING 12569
SWIDTH 520 0
DWIDTH 16 0
BBX 16 16 0 -2
BITMAP
0000
0100
0100
0100
0100
0200
0200
0200
0400
0400
0840
1020
3ff0
0008
0000
0000
ENDCHAR
STARTCHAR 311A
ENCODING 12570
SWIDTH 520 0
DWIDTH 16 0
BBX 16 16 0 -2
BITMAP
0000
1008
0810
0420
0240
0080
0100
0100
0100
0100
0100
0100
0100
0100
0100
0100
ENDCHAR
STARTCHAR 311B
ENCODING 12571
SWIDTH 520 0
DWIDTH 16 0
BBX 16 16 0 -2
BITMAP
0000
0000
7ffc
0100
0100
0100
0f00
1000
2000
2000
2000
2008
1010
0fe0
0000
0000
ENDCHAR
STARTCHAR 311C
ENCODING 12572
SWIDTH 520 0
DWIDTH 16 0
BBX 16 16 0 -2
BITMAP
0000
0100
0100
0100
7ffc
0100
0100
0f00
1000
2000
2000
2000
2008
1010
0fe0
0000
ENDCHAR
STARTCHAR 311D
ENCODING 12573
SWIDTH 520 0
DWIDTH 16 0
BBX 16 16 0 -2
BITMAP
0000
0000
0840
0840
0840
7ffc
0840
0840
0840
0880
0880
0900
0800
07f0
0000
0000
ENDCHAR
STARTCHAR 311E
ENCODING 12574
SWIDTH 520 0
DWIDTH 16 0
BBX 16 16 0 -2
BITMAP
0000
0000
7ffc
0900
0900
1100
1ff8
0108
0108
0108
0208
0208
0410
0810
1020
0000
ENDCHAR
STARTCHAR 311F
ENCODING 12575
SWIDTH 520 0
DWIDTH 16 0
BBX 16 16 0 -2
BITMAP
0000
0000
1c00
0400
0400
0400
0200
0200
0200
0100
0100
0080
0040
0020
0018
0000
ENDCHAR
STARTCHAR 3120
ENCODING 12576
SWIDTH 520 0
DWIDTH 16 0
BBX 16 16 0 -2
BITMAP
0000
0200
0200
0420
0420
0840
0840
1f80
0100
0200
0440
0820
1ff0
0010
0000
0000
ENDCHAR
STARTCHAR 3121
ENCODING 12577
SWIDTH 520 0
DWIDTH 16 0
BBX 16 16 0 -2
BITMAP
0000
0000
0000
1ff0
0010
0020
0420
0240
0140
0080
0080
0140
0220
0400
0800
0000
ENDCHAR
STARTCHAR 3122
ENCODING 12578
SWIDTH 520 0
DWIDTH 16 0
BBX 16 16 0 -2
BITMAP
0000
3fe0
0820
0820
0820
1040
1040
1ff8
0008
0008
0008
0010
0010
0020
0040
0000
ENDCHAR
STARTCHAR 3123
ENCODING 12579
SWIDTH 520 0
DWIDTH 16 0
BBX 16 16 0 -2
BITMAP
0000
0800
0800
0800
0800
1000
1000
1000
1ff8
0008
0008
0008
0010
0010
0020
0000
ENDCHAR
STARTCHAR 3124
ENCODING 12580
SWIDTH 520 0
DWIDTH 16 0
BBX 16 16 0 -2
BITMAP
0000
0200
0200
0200
0200
7ffc
0280
0280
0280
0480
0480
0480
0880
1080
607c
0000
ENDCHAR
STARTCHAR 3125
ENCODING 12581
SWIDTH 520 0
DWIDTH 16 0
BBX 16 16 0 -2
BITMAP
0000
0000
0100
0100
0100
0200
0200
0400
0400
0800
1000
2000
3ff8
0000
0000
0000
ENDCHAR
STARTCHAR 3126
ENCODING 12582
SWIDTH 520 0
DWIDTH 16 0
BBX 16 16 0 -2
BITMAP
0000
0000
0480
0480
0480
0480
0480
0480
0480
0480
0480
0880
0884
1084
607c
0000
ENDCHAR
STARTCHAR 3127
ENCODING 12583
SWIDTH 520 0
DWIDTH 16 0
BBX 16 16 0 -2
BITMAP
0000
0100
0100
0100
0100
0100
0100
0100
0100
0100
0100
0100
0100
0100
0100
0100
ENDCHAR
STARTCHAR 3128
ENCODING 12584
SWIDTH 520 0
DWIDTH 16 0
BBX 16 16 0 -2
BITMAP
0000
0010
0010
0010
0820
0420
0240
0140
0080
0080
0140
0220
0410
1800
6000
0000
ENDCHAR
STARTCHAR 3129
ENCODING 12585
SWIDTH 520 0
DWIDTH 16 0
BBX 16 16 0 -2
BITMAP
0000
0000
0000
0008
1008
1008
1008
1008
1008
2008
2078
3f88
0008
0000
0000
0000
ENDCHAR
STARTCHAR 3220
ENCODING 12832
SWIDTH 520 0
DWIDTH 16 0
BBX 16 16 0 -2
BITMAP
0000
2008
4004
8002
8002
8002
8012
bffa
8002
8002
8002
8002
8002
4004
2008
0000
ENDCHAR
STARTCHAR 3221
ENCODING 12833
SWIDTH 520 0
DWIDTH 16 0
BBX 16 16 0 -2
BITMAP
0000
2008
4004
8022
9ff2
8002
8002
8002
8002
8012
bffa
8002
8002
4004
2008
0000
ENDCHAR
STARTCHAR 3222
ENCODING 12834
SWIDTH 520 0
DWIDTH 16 0
BBX 16 16 0 -2
BITMAP
0000
2008
4024
9ff2
8002
8002
8042
8fe2
8002
8002
8012
bffa
8002
4004
2008
0000
ENDCHAR
STARTCHAR 3223
ENCODING 12835
SWIDTH 520 0
DWIDTH 16 0
BBX 16 16 0 -2
BITMAP
0000
2008
4004
8002
bffa
a44a
a44a
a44a
a44a
a44a
bffa
8002
8002
4004
2008
0000
ENDCHAR
STARTCHAR 3224
ENCODING 12836
SWIDTH 520 0
DWIDTH 16 0
BBX 16 16 0 -2
BITMAP
0000
2008
4024
9ff2
8202
8202
8222
9ff2
8422
8422
8422
8422
bffa
4004
2008
0000
ENDCHAR
STARTCHAR 3225
ENCODING 12837
SWIDTH 520 0
DWIDTH 16 0
BBX 16 16 0 -2
BITMAP
0000
2008
4004
8202
8102
8012
bffa
8002
8002
8442
8422
8812
9012
4004
2008
0000
ENDCHAR
STARTCHAR 3226
ENCODING 12838
SWIDTH 520 0
DWIDTH 16 0
BBX 16 16 0 -2
BITMAP
0000
2008
4204
8202
8202
8212
827a
8382
be02
8202
8202
8222
8222
41e4
2008
0000
ENDCHAR
STARTCHAR 3227
ENCODING 12839
SWIDTH 520 0
DWIDTH 16 0
BBX 16 16 0 -2
BITMAP
0000
2008
4084
8482
8482
8482
8482
8482
8842
8822
901a
a012
8002
4004
2008
0000
ENDCHAR
STARTCHAR 3228
ENCODING 12840
SWIDTH 520 0
DWIDTH 16 0
BBX 16 16 0 -2
BITMAP
0000
2008
4204
8202
8242
9fe2
8242
8242
8242
8442
844a
884a
903a
4004
2008
0000
ENDCHAR
STARTCHAR 3229
ENCODING 12841
SWIDTH 520 0
DWIDTH 16 0
BBX 16 16 0 -2
BITMAP
0000
2008
4104
8102
8102
8112
bffa
8102
8102
8102
8102
8102
8102
4004
2008
0000
ENDCHAR
STARTCHAR 4E00
ENCODING 19968
SWIDTH 520 0
DWIDTH 16 0
BBX 16 16 0 -2
BITMAP
0000
0000
0000
0000
0000
0000
0004
7ffe
0000
0000
0000
0000
0000
0000
0000
0000
ENDCHAR
STARTCHAR 4E01
ENCODING 19969
SWIDTH 520 0
DWIDTH 16 0
BBX 16 16 0 -2
BITMAP
0000
7ffe
0100
0100
0100
0100
0100
0100
0100
0100
0100
0100
0100
0500
0200
0000
ENDCHAR
STARTCHAR 4E03
ENCODING 19971
SWIDTH 520 0
DWIDTH 16 0
BBX 16 16 0 -2
BITMAP
0000
0100
0100
0100
0100
01fe
7f00
0100
0100
0100
0100
0104
0104
0104
00f8
0000
ENDCHAR
STARTCHAR 4E07
ENCODING 19975
SWIDTH 520 0
DWIDTH 16 0
BBX 16 16 0 -2
BITMAP
0000
7ffe
0200
0200
0210
03f8
0210
0410
0410
0410
0810
0810
1010
20e0
4040
0000
ENDCHAR
STARTCHAR 4E08
ENCODING 19976
SWIDTH 520 0
DWIDTH 16 0
BBX 16 16 0 -2
BITMAP
0080
0080
0084
7ffe
0080
1080
0880
0880
0480
0300
0100
0280
0460
181e
6004
0000
ENDCHAR
STARTCHAR 4E09
ENCODING 19977
SWIDTH 520 0
DWIDTH 16 0
BBX 16 16 0 -2
BITMAP
0000
0000
7ffc
0000
0000
0000
0000
3ff8
0000
0000
0000
0000
0000
7ffe
0000
0000
ENDCHAR
STARTCHAR 4E0A
ENCODING 19978
SWIDTH 520 0
DWIDTH 16 0
BBX 16 16 0 -2
BITMAP
0000
0100
0100
0100
0100
0100
01f8
0100
0100
0100
0100
0100
0100
0104
7ffe
0000
ENDCHAR
STARTCHAR 4E0B
ENCODING 19979
SWIDTH 520 0
DWIDTH 16 0
BBX 16 16 0 -2
BITMAP
0004
7ffe
0100
0100
0100
01c0
0160
0130
0120
0100
0100
0100
0100
0100
0100
0000
ENDCHAR
STARTCHAR 4E0C
ENCODING 19980
SWIDTH 520 0
DWIDTH 16 0
BBX 16 16 0 -2
BITMAP
0000
7ffe
0420
0420
0420
0420
0420
0420
0420
0820
0820
1020
1020
2020
4020
0000
ENDCHAR
STARTCHAR 4E0D
ENCODING 19981
SWIDTH 520 0
DWIDTH 16 0
BBX 16 16 0 -2
BITMAP
0004
7ffe
0180
0100
0100
0100
0360
0530
0918
110c
2108
4100
0100
0100
0100
0000
ENDCHAR
STARTCHAR 4E0E
ENCODING 19982
SWIDTH 520 0
DWIDTH 16 0
BBX 16 16 0 -2
BITMAP
0000
0800
0804
0ffe
0800
0800
0ffc
0004
0004
0024
7ff4
0004
0004
0048
0030
0000
ENDCHAR
STARTCHAR 4E10
ENCODING 19984
SWIDTH 520 0
DWIDTH 16 0
BBX 16 16 0 -2
BITMAP
0004
7ffe
0100
1100
11fc
1100
1100
1104
1ffe
0004
0004
0004
0004
0048
0030
0000
ENDCHAR
STARTCHAR 4E11
ENCODING 19985
SWIDTH 520 0
DWIDTH 16 0
BBX 16 16 0 -2
BITMAP
0010
3ff8
0210
0210
0210
0210
0210
3ff0
0410
0410
0410
0410
0414
7ffe
0000
0000
ENDCHAR
STARTCHAR 4E13
ENCODING 19987
SWIDTH 520 0
DWIDTH 16 0
BBX 16 16 0 -2
BITMAP
0100
0100
3ff8
0200
0200
fffe
0400
0820
0ff0
0020
0040
0280
0100
0080
0040
0000
ENDCHAR
STARTCHAR 4E14
ENCODING 19988
SWIDTH 520 0
DWIDTH 16 0
BBX 16 16 0 -2
BITMAP
0000
0ff0
0810
0810
0810
0ff0
0810
0810
0810
0ff0
0810
0810
0810
7ffe
0000
0000
ENDCHAR
STARTCHAR 4E15
ENCODING 19989
SWIDTH 520 0
DWIDTH 16 0
BBX 16 16 0 -2
BITMAP
0000
7ffe
0080
0080
0180
03e0
06b0
0c9c
1886
3082
4080
0080
0080
7ffe
0000
0000
ENDCHAR
STARTCHAR 4E16
ENCODING 19990
SWIDTH 520 0
DWIDTH 16 0
BBX 16 16 0 -2
BITMAP
0000
1210
1210
1210
1210
fffe
1210
1210
1210
13f0
1210
1000
1008
1ffc
0000
0000
ENDCHAR
STARTCHAR 4E18
ENCODING 19992
SWIDTH 520 0
DWIDTH 16 0
BBX 16 16 0 -2
BITMAP
0000
10f0
1f00
1000
1000
1000
1008
1ffc
1040
1040
1040
1040
1044
fffe
0000
0000
ENDCHAR
STARTCHAR 4E19
ENCODING 19993
SWIDTH 520 0
DWIDTH 16 0
BBX 16 16 0 -2
BITMAP
0000
7ffe
0100
0100
3ffc
2104
2104
2104
2284
2244
2434
2824
2004
2014
2008
0000
ENDCHAR
STARTCHAR 4E1A
ENCODING 19994
SWIDTH 520 0
DWIDTH 16 0
BBX 16 16 0 -2
BITMAP
0440
0440
0440
0444
4446
244c
2448
1450
1c50
1460
0440
0440
0444
fffe
0000
0000
ENDCHAR
STARTCHAR 4E1B
ENCODING 19995
SWIDTH 520 0
DWIDTH 16 0
BBX 16 16 0 -2
BITMAP
0000
0840
0840
0840
0840
0840
0840
0860
1490
1298
230c
2106
4204
fffe
0000
0000
ENDCHAR
STARTCHAR 4E1C
ENCODING 19996
SWIDTH 520 0
DWIDTH 16 0
BBX 16 16 0 -2
BITMAP
0200
0200
7ffc
0400
0880
0880
1080
1ff8
0080
08a0
0c90
1888
108c
2284
0180
0080
ENDCHAR
STARTCHAR 4E1D
ENCODING 19997
SWIDTH 520 0
DWIDTH 16 0
BBX 16 16 0 -2
BITMAP
0000
0820
0c30
1820
1068
224c
7ef8
2450
0820
1040
3efc
0000
0000
0004
fffe
0000
ENDCHAR
STARTCHAR 4E1E
ENCODING 19998
SWIDTH 520 0
DWIDTH 16 0
BBX 16 16 0 -2
BITMAP
0000
3ff8
0030
02c0
0110
7d18
0560
0980
0940
1120
2118
450e
8300
0104
fffe
0000
ENDCHAR
STARTCHAR 4E22
ENCODING 20002
SWIDTH 520 0
DWIDTH 16 0
BBX 16 16 0 -2
BITMAP
0010
03f8
3d00
0100
0100
3ff8
0100
0100
fffe
0100
0320
0610
0808
1ffc
0808
0000
ENDCHAR
STARTCHAR 4E24
ENCODING 20004
SWIDTH 520 0
DWIDTH 16 0
BBX 16 16 0 -2
BITMAP
0004
fffe
0440
0444
7ffe
4444
4444
4644
4964
4894
5094
6104
4204
4014
4008
0000
ENDCHAR
STARTCHAR 4E25
ENCODING 20005
SWIDTH 520 0
DWIDTH 16 0
BBX 16 16 0 -2
BITMAP
0004
7ffe
2248
1248
0a50
3ffe
2000
2000
2000
2000
2000
2000
4000
4000
8000
0000
ENDCHAR
STARTCHAR 4E27
ENCODING 20007
SWIDTH 520 0
DWIDTH 16 0
BBX 16 16 0 -2
BITMAP
0100
0100
7ffc
0100
1920
0d30
0940
7ffe
1100
1110
10b8
10c0
1060
1238
1c10
1000
ENDCHAR
STARTCHAR 4E28
ENCODING 20008
SWIDTH 520 0
DWIDTH 16 0
BBX 16 16 0 -2
BITMAP
0000
0100
0100
0100
0100
0100
0100
0100
0100
0100
0100
0100
0100
0100
0100
0000
ENDCHAR
STARTCHAR 4E2A
ENCODING 20010
SWIDTH 520 0
DWIDTH 16 0
BBX 16 16 0 -2
BITMAP
0100
0100
0280
0240
0420
0918
110e
6104
0100
0100
0100
0100
0100
0100
0100
0000
ENDCHAR
STARTCHAR 4E2B
ENCODING 20011
SWIDTH 520 0
DWIDTH 16 0
BBX 16 16 0 -2
BITMAP
0000
0820
0430
0640
0280
0100
0100
0100
0100
0100
0100
0100
0100
0100
0100
0000
ENDCHAR
STARTCHAR 4E2C
ENCODING 20012
SWIDTH 520 0
DWIDTH 16 0
BBX 16 16 0 -2
BITMAP
0040
0040
0840
0640
0340
0240
0040
00c0
0340
0640
1c40
0840
0040
0040
0040
0000
ENDCHAR
STARTCHAR 4E2D
ENCODING 20013
SWIDTH 520 0
DWIDTH 16 0
BBX 16 16 0 -2
BITMAP
0100
0100
2108
3ffc
2108
2108
2108
2108
2108
3ff8
2108
0100
0100
0100
0100
0100
ENDCHAR
STARTCHAR 4E30
ENCODING 20016
SWIDTH 520 0
DWIDTH 16 0
BBX 16 16 0 -2
BITMAP
0100
0100
0108
3ffc
0100
0110
3ff8
0100
0100
0104
fffe
0100
0100
0100
0100
0100
ENDCHAR
STARTCHAR 4E32
ENCODING 20018
SWIDTH 520 0
DWIDTH 16 0
BBX 16 16 0 -2
BITMAP
0100
0100
1ff0
1110
1110
1ff0
0100
3ff8
2108
2108
2108
3ff8
2108
0100
0100
0100
ENDCHAR
STARTCHAR 4E34
ENCODING 20020
SWIDTH 520 0
DWIDTH 16 0
BBX 16 16 0 -2
BITMAP
0100
0980
0900
49fe
4a20
4a10
4c10
4904
49fe
4924
4924
4924
4924
09fc
0904
0000
ENDCHAR
STARTCHAR 4E36
ENCODING 20022
SWIDTH 520 0
DWIDTH 16 0
BBX 16 16 0 -2
BITMAP
0000
0000
0000
0000
0000
0400
0300
0180
00c0
0060
0040
0000
0000
0000
0000
0000
ENDCHAR
STARTCHAR 4E38
ENCODING 20024
SWIDTH 520 0
DWIDTH 16 0
BBX 16 16 0 -2
BITMAP
0200
0200
0200
0220
7ff0
0220
0220
0a20
0620
0220
0520
0524
0824
3026
c01c
0000
ENDCHAR
STARTCHAR 4E39
ENCODING 20025
SWIDTH 520 0
DWIDTH 16 0
BBX 16 16 0 -2
BITMAP
0000
0ff0
0810
0a10
0990
08d0
0890
fffe
0810
0810
1010
1010
2010
2050
4020
0000
ENDCHAR
STARTCHAR 4E3A
ENCODING 20026
SWIDTH 520 0
DWIDTH 16 0
BBX 16 16 0 -2
BITMAP
0080
1080
0c80
0484
7ffe
0104
0104
0184
0144
0224
0224
0404
0844
1028
2010
0000
ENDCHAR
STARTCHAR 4E3B
ENCODING 20027
SWIDTH 520 0
DWIDTH 16 0
BBX 16 16 0 -2
BITMAP
0200
0180
0100
0008
3ffc
0100
0100
0108
3ffc
0100
0100
0100
0104
7ffe
0000
0000
ENDCHAR
STARTCHAR 4E3D
ENCODING 20029
SWIDTH 520 0
DWIDTH 16 0
BBX 16 16 0 -2
BITMAP
0000
fffe
0000
0000
7efc
4284
42c4
62a4
52b4
5aa4
5284
4284
4284
4ebc
4488
0000
ENDCHAR
STARTCHAR 4E3E
ENCODING 20030
SWIDTH 520 0
DWIDTH 16 0
BBX 16 16 0 -2
BITMAP
2410
1218
0910
0920
fffe
0440
0920
1110
2fe8
4106
8100
3ff8
0100
0100
0100
0100
ENDCHAR
STARTCHAR 4E3F
ENCODING 20031
SWIDTH 520 0
DWIDTH 16 0
BBX 16 16 0 -2
BITMAP
0080
00c0
0080
0080
0080
0080
0080
0100
0100
0100
0200
0200
0400
1800
6000
0000
ENDCHAR
STARTCHAR 4E43
ENCODING 20035
SWIDTH 520 0
DWIDTH 16 0
BBX 16 16 0 -2
BITMAP
0010
3ff8
0410
0410
0420
0424
047e
0404
0404
0804
0804
1004
1044
2028
c010
0000
ENDCHAR
STARTCHAR 4E45
ENCODING 20037
SWIDTH 520 0
DWIDTH 16 0
BBX 16 16 0 -2
BITMAP
0200
0200
0440
07e0
0840
0840
1080
20c0
4140
0120
0220
0410
0818
300e
c004
0000
ENDCHAR
STARTCHAR 4E47
ENCODING 20039
SWIDTH 520 0
DWIDTH 16 0
BBX 16 16 0 -2
BITMAP
0000
0030
01f8
7f00
0100
0100
011c
07e0
7900
0100
0100
0104
0104
0106
00fc
0000
ENDCHAR
STARTCHAR 4E48
ENCODING 20040
SWIDTH 520 0
DWIDTH 16 0
BBX 16 16 0 -2
BITMAP
0100
0180
0100
0300
0240
0460
0840
1080
2080
0100
0210
0408
087c
1fc6
0004
0000
ENDCHAR
STARTCHAR 4E49
ENCODING 20041
SWIDTH 520 0
DWIDTH 16 0
BBX 16 16 0 -2
BITMAP
0000
0420
2230
2120
1120
1040
0840
0480
0280
0100
0280
0440
0830
300e
c004
0000
ENDCHAR
STARTCHAR 4E4B
ENCODING 20043
SWIDTH 520 0
DWIDTH 16 0
BBX 16 16 0 -2
BITMAP
0200
0100
0088
7ffc
0008
0010
0020
0040
0080
0100
0600
1800
2800
e700
40fe
0000
ENDCHAR
STARTCHAR 4E4C
ENCODING 20044
SWIDTH 520 0
DWIDTH 16 0
BBX 16 16 0 -2
BITMAP
0100
1220
1ff0
1020
1020
1020
10a0
1040
1ffc
0004
0004
7ff4
0004
0024
0014
0008
ENDCHAR
STARTCHAR 4E4D
ENCODING 20045
SWIDTH 520 0
DWIDTH 16 0
BBX 16 16 0 -2
BITMAP
0800
0804
0ffe
1100
1100
2108
41fc
0100
0100
0108
01fc
0100
0100
0100
0100
0000
ENDCHAR
STARTCHAR 4E4E
ENCODING 20046
SWIDTH 520 0
DWIDTH 16 0
BBX 16 16 0 -2
BITMAP
0008
01fc
7f00
1110
0918
0d10
0524
fffe
0100
0100
0100
0100
0900
0500
0200
0000
ENDCHAR
STARTCHAR 4E4F
ENCODING 20047
SWIDTH 520 0
DWIDTH 16 0
BBX 16 16 0 -2
BITMAP
0030
01f8
7e00
0400
0300
0210
7ff8
0020
0040
0180
0600
0800
3000
5800
87fe
0000
ENDCHAR
STARTCHAR 4E50
ENCODING 20048
SWIDTH 520 0
DWIDTH 16 0
BBX 16 16 0 -2
BITMAP
0030
01f8
1f00
1080
1080
1080
3ffc
1080
0880
0c90
1888
308c
2486
4284
0100
0000
ENDCHAR
STARTCHAR 4E52
ENCODING 20050
SWIDTH 520 0
DWIDTH 16 0
BBX 16 16 0 -2
BITMAP
0078
0fc0
0800
0800
0ffc
0840
0840
0840
0840
fffe
0400
0600
0c00
1800
3000
4000
ENDCHAR
STARTCHAR 4E53
ENCODING 20051
SWIDTH 520 0
DWIDTH 16 0
BBX 16 16 0 -2
BITMAP
0030
01f8
1f00
1000
1000
1ffc
1040
1040
1040
fffe
0000
0040
0030
0018
000c
0008
ENDCHAR
STARTCHAR 4E54
ENCODING 20052
SWIDTH 520 0
DWIDTH 16 0
BBX 16 16 0 -2
BITMAP
00f8
3f80
0100
0104
7ffe
0340
0620
0818
342e
c424
0420
0820
0820
1020
6020
0000
ENDCHAR
STARTCHAR 4E56
ENCODING 20054
SWIDTH 520 0
DWIDTH 16 0
BBX 16 16 0 -2
BITMAP
0078
3f80
0100
fffe
0100
0920
7928
093c
0920
0924
3926
c93c
0100
0100
0100
0000
ENDCHAR
STARTCHAR 4E58
ENCODING 20056
SWIDTH 520 0
DWIDTH 16 0
BBX 16 16 0 -2
BITMAP
0078
3f80
0104
fffe
0920
792c
0930
0922
393e
cb80
0760
0d30
311c
c108
0100
0000
ENDCHAR
STARTCHAR 4E59
ENCODING 20057
SWIDTH 520 0
DWIDTH 16 0
BBX 16 16 0 -2
BITMAP
0000
fff0
0060
00c0
0180
0300
0600
0c00
1800
3000
2000
6004
4004
6006
3ffc
0000
ENDCHAR
STARTCHAR 4E5C
ENCODING 20060
SWIDTH 520 0
DWIDTH 16 0
BBX 16 16 0 -2
BITMAP
0800
0c00
0800
0838
09c8
1e08
e808
0808
0808
0878
0810
0804
0804
0806
07fc
0000
ENDCHAR
STARTCHAR 4E5D
ENCODING 20061
SWIDTH 520 0
DWIDTH 16 0
BBX 16 16 0 -2
BITMAP
0200
0200
0200
0220
7ff0
0220
0220
0420
0420
0420
0820
0824
1024
2026
403c
0000
ENDCHAR
STARTCHAR 4E5E
ENCODING 20062
SWIDTH 520 0
DWIDTH 16 0
BBX 16 16 0 -2
BITMAP
1000
1808
1ffc
1000
2000
2000
5fe0
80c0
0180
0300
0600
0c04
1804
1006
0ffc
0000
ENDCHAR
STARTCHAR 4E5F
ENCODING 20063
SWIDTH 520 0
DWIDTH 16 0
BBX 16 16 0 -2
BITMAP
0100
0180
1100
1908
117c
1788
f908
1108
1108
1148
1128
1014
1004
1006
0ffc
0000
ENDCHAR
STARTCHAR 4E60
ENCODING 20064
SWIDTH 520 0
DWIDTH 16 0
BBX 16 16 0 -2
BITMAP
0000
3ffc
0004
0804
0404
0304
0114
0064
0184
0604
3804
1004
0004
0024
0014
0008
ENDCHAR
STARTCHAR 4E61
ENCODING 20065
SWIDTH 520 0
DWIDTH 16 0
BBX 16 16 0 -2
BITMAP
0100
0180
0310
0618
0830
1fe0
0088
030c
0c78
1f90
0810
0020
00c0
0700
7800
0000
ENDCHAR
STARTCHAR 4E66
ENCODING 20070
SWIDTH 520 0
DWIDTH 16 0
BBX 16 16 0 -2
BITMAP
0200
0210
020c
3ff6
0214
0210
0210
fffc
0204
0204
0204
0204
0248
0228
0210
0000
ENDCHAR
STARTCHAR 4E69
ENCODING 20073
SWIDTH 520 0
DWIDTH 16 0
BBX 16 16 0 -2
BITMAP
0840
0840
0840
0a40
0f40
0840
0840
4940
7f40
4140
4140
4144
4144
7f46
413c
0000
ENDCHAR
STARTCHAR 4E70
ENCODING 20080
SWIDTH 520 0
DWIDTH 16 0
BBX 16 16 0 -2
BITMAP
0000
3ffe
0004
0488
02c0
1280
0880
0880
0084
3ffe
0140
0330
0618
180c
6004
0000
ENDCHAR
STARTCHAR 4E71
ENCODING 20081
SWIDTH 520 0
DWIDTH 16 0
BBX 16 16 0 -2
BITMAP
0640
7840
0840
0840
0a40
ff40
0840
0840
7e40
4240
4240
4244
4244
7e46
423c
0000
ENDCHAR
STARTCHAR 4E73
ENCODING 20083
SWIDTH 520 0
DWIDTH 16 0
BBX 16 16 0 -2
BITMAP
0720
7c20
0120
49a0
2a20
0020
7fa0
0220
0420
07a0
7c20
0422
0422
1422
081e
0000
ENDCHAR
STARTCHAR 4E7E
ENCODING 20094
SWIDTH 520 0
DWIDTH 16 0
BBX 16 16 0 -2
BITMAP
1040
1060
ff40
107e
7e80
4280
7f7c
4208
7e10
4a20
0840
ff44
0884
0886
087c
0800
ENDCHAR
STARTCHAR 4E86
ENCODING 20102
SWIDTH 520 0
DWIDTH 16 0
BBX 16 16 0 -2
BITMAP
0000
7ffc
0018
0060
0180
0100
0100
0100
0100
0100
0100
0100
0100
0100
0500
0200
ENDCHAR
STARTCHAR 4E88
ENCODING 20104
SWIDTH 520 0
DWIDTH 16 0
BBX 16 16 0 -2
BITMAP
1ff8
0030
0460
0280
0104
7ffe
010c
0108
0110
0100
0100
0100
0100
0900
0500
0200
ENDCHAR
STARTCHAR 4E89
ENCODING 20105
SWIDTH 520 0
DWIDTH 16 0
BBX 16 16 0 -2
BITMAP
0400
0440
0fe0
1040
3ff8
4108
0108
7ffe
0108
0108
3ff8
0108
0100
0900
0500
0200
ENDCHAR
STARTCHAR 4E8B
ENCODING 20107
SWIDTH 520 0
DWIDTH 16 0
BBX 16 16 0 -2
BITMAP
0100
fffe
0100
1ff8
1108
1ff8
0100
3ff8
0108
fffe
0108
3ff8
0108
0900
0500
0200
ENDCHAR
STARTCHAR 4E8C
ENCODING 20108
SWIDTH 520 0
DWIDTH 16 0
BBX 16 16 0 -2
BITMAP
0000
0010
3ff8
0000
0000
0000
0000
0000
0000
0000
0000
0004
7ffe
0000
0000
0000
ENDCHAR
STARTCHAR 4E8D
ENCODING 20109
SWIDTH 520 0
DWIDTH 16 0
BBX 16 16 0 -2
BITMAP
0000
3ff8
0000
0000
0000
0000
fffe
0100
0100
0100
0100
0100
0100
0900
0500
0200
ENDCHAR
STARTCHAR 4E8E
ENCODING 20110
SWIDTH 520 0
DWIDTH 16 0
BBX 16 16 0 -2
BITMAP
0000
3ffc
0100
0100
0100
0100
fffe
0100
0100
0100
0100
0100
0100
0900
0500
0200
ENDCHAR
STARTCHAR 4E8F
ENCODING 20111
SWIDTH 520 0
DWIDTH 16 0
BBX 16 16 0 -2
BITMAP
0010
3ff8
0000
0004
fffe
0400
0400
0808
1ffc
0008
0008
0010
0110
00a0
0040
0000
ENDCHAR
STARTCHAR 4E91
ENCODING 20113
SWIDTH 520 0
DWIDTH 16 0
BBX 16 16 0 -2
BITMAP
0000
0030
3ff8
0000
0000
000c
fffe
0300
0700
0640
0c20
1810
31f8
7f0c
2008
0000
ENDCHAR
STARTCHAR 4E92
ENCODING 20114
SWIDTH 520 0
DWIDTH 16 0
BBX 16 16 0 -2
BITMAP
0000
7ffc
0400
0400
0420
07f0
0820
0820
0820
0820
1fe0
0820
0020
7ffe
0000
0000
ENDCHAR
STARTCHAR 4E93
ENCODING 20115
SWIDTH 520 0
DWIDTH 16 0
BBX 16 16 0 -2
BITMAP
0010
3ff8
0000
0000
000c
7ffe
0420
0420
0420
0420
0820
0820
1020
2020
4020
0000
ENDCHAR
STARTCHAR 4E94
ENCODING 20116
SWIDTH 520 0
DWIDTH 16 0
BBX 16 16 0 -2
BITMAP
0000
7ff8
0200
0200
0200
0200
0220
3ff0
0420
0420
0420
0420
0424
fffe
0000
0000
ENDCHAR
STARTCHAR 4E95
ENCODING 20117
SWIDTH 520 0
DWIDTH 16 0
BBX 16 16 0 -2
BITMAP
0420
0420
0420
0424
7ffe
0420
0420
0424
fffe
0420
0420
0820
0820
1020
2020
4000
ENDCHAR
STARTCHAR 4E98
ENCODING 20120
SWIDTH 520 0
DWIDTH 16 0
BBX 16 16 0 -2
BITMAP
0008
7ffc
0000
0010
1ff8
1010
1010
1ff0
1010
1010
1ff0
1010
0004
fffe
0000
0000
ENDCHAR
STARTCHAR 4E9A
ENCODING 20122
SWIDTH 520 0
DWIDTH 16 0
BBX 16 16 0 -2
BITMAP
0000
7ffe
0240
0240
0248
224c
1248
1248
0a50
0a50
0a60
0240
0244
fffe
0000
0000
ENDCHAR
STARTCHAR 4E9B
ENCODING 20123
SWIDTH 520 0
DWIDTH 16 0
BBX 16 16 0 -2
BITMAP
0840
0840
4848
6f5c
4860
4840
4b44
5c44
e07c
0000
3ff8
0000
0000
0000
fffe
0000
ENDCHAR
STARTCHAR 4E9F
ENCODING 20127
SWIDTH 520 0
DWIDTH 16 0
BBX 16 16 0 -2
BITMAP
0000
3ffc
0018
0060
0080
3d7c
2544
2528
2510
3d18
012c
0144
0500
0200
7ffe
0000
ENDCHAR
STARTCHAR 4EA0
ENCODING 20128
SWIDTH 520 0
DWIDTH 16 0
BBX 16 16 0 -2
BITMAP
0000
0000
0000
0400
0200
0100
0100
0000
fffe
0000
0000
0000
0000
0000
0000
0000
ENDCHAR
STARTCHAR 4EA1
ENCODING 20129
SWIDTH 520 0
DWIDTH 16 0
BBX 16 16 0 -2
BITMAP
0200
0100
0080
0004
fffe
1000
1000
1000
1000
1000
1000
1000
1000
3ffc
1000
0000
ENDCHAR
STARTCHAR 4EA2
ENCODING 20130
SWIDTH 520 0
DWIDTH 16 0
BBX 16 16 0 -2
BITMAP
0200
0100
0104
fffe
0000
07e0
0420
0420
0420
0420
0420
0822
0822
1022
603e
0000
ENDCHAR
STARTCHAR 4EA4
ENCODING 20132
SWIDTH 520 0
DWIDTH 16 0
BBX 16 16 0 -2
BITMAP
0200
0100
0180
7ffe
0820
0c18
100c
2020
0830
0460
02c0
0180
0340
0430
181c
6008
ENDCHAR
STARTCHAR 4EA5
ENCODING 20133
SWIDTH 520 0
DWIDTH 16 0
BBX 16 16 0 -2
BITMAP
0200
0180
fffe
0100
0220
0430
0860
1fc8
091c
0230
0c60
70e0
0318
0c0c
7004
0000
ENDCHAR
STARTCHAR 4EA6
ENCODING 20134
SWIDTH 520 0
DWIDTH 16 0
BBX 16 16 0 -2
BITMAP
0200
0180
0080
7ffe
0240
0240
1250
1a48
1244
2446
4444
0840
0840
1140
2080
0000
ENDCHAR
STARTCHAR 4EA7
ENCODING 20135
SWIDTH 520 0
DWIDTH 16 0
BBX 16 16 0 -2
BITMAP
0100
0080
7ffe
0810
0620
2444
3ffe
2000
2000
2000
2000
2000
4000
4000
8000
0000
ENDCHAR
STARTCHAR 4EA8
ENCODING 20136
SWIDTH 520 0
DWIDTH 16 0
BBX 16 16 0 -2
BITMAP
0200
0104
7ffe
0000
0ff0
0810
0ff0
0000
1ff8
0030
0040
0080
0080
0480
0280
0100
ENDCHAR
STARTCHAR 4EA9
ENCODING 20137
SWIDTH 520 0
DWIDTH 16 0
BBX 16 16 0 -2
BITMAP
0200
0100
fffe
0000
0000
3ff8
2108
2108
2108
3ff8
2108
2108
2108
3ff8
2008
0000
ENDCHAR
STARTCHAR 4EAB
ENCODING 20139
SWIDTH 520 0
DWIDTH 16 0
BBX 16 16 0 -2
BITMAP
0200
0100
7ffc
0000
1ff0
1010
1ff0
0000
3ff0
0060
0080
fffe
0080
0480
0280
0100
ENDCHAR
STARTCHAR 4EAC
ENCODING 20140
SWIDTH 520 0
DWIDTH 16 0
BBX 16 16 0 -2
BITMAP
0200
0108
7ffc
0000
0000
1ff0
1010
1010
1ff0
0100
0930
1918
310c
4108
0500
0200
ENDCHAR
STARTCHAR 4EAD
ENCODING 20141
SWIDTH 520 0
DWIDTH 16 0
BBX 16 16 0 -2
BITMAP
0100
7ffc
0000
1ff0
1010
1ff0
0004
7ffe
4004
9ff8
0080
0080
0080
0480
0280
0100
ENDCHAR
STARTCHAR 4EAE
ENCODING 20142
SWIDTH 520 0
DWIDTH 16 0
BBX 16 16 0 -2
BITMAP
0100
7ffc
0000
0fe0
0820
0fe0
0004
7ffe
4004
87c8
0440
0440
0842
1042
603e
0000
ENDCHAR
STARTCHAR 4EB2
ENCODING 20146
SWIDTH 520 0
DWIDTH 16 0
BBX 16 16 0 -2
BITMAP
0200
0100
3ffc
0820
0430
0440
7ffe
0100
0100
3ffc
0100
1120
1918
210c
4508
0200
ENDCHAR
STARTCHAR 4EB3
ENCODING 20147
SWIDTH 520 0
DWIDTH 16 0
BBX 16 16 0 -2
BITMAP
0200
0108
7ffc
0820
0fe0
0004
7ffe
4004
80f0
1f00
0100
01f8
3f00
0104
0104
00fc
ENDCHAR
STARTCHAR 4EB5
ENCODING 20149
SWIDTH 520 0
DWIDTH 16 0
BBX 16 16 0 -2
BITMAP
0100
0084
fffe
0840
7df0
0950
1c92
694a
2a06
1120
0770
0cc0
3430
c59e
0e04
0400
ENDCHAR
STARTCHAR 4EBA
ENCODING 20154
SWIDTH 520 0
DWIDTH 16 0
BBX 16 16 0 -2
BITMAP
0100
0180
0100
0100
0100
0100
0280
0280
0480
0440
0860
0830
1018
200e
4004
0000
ENDCHAR
STARTCHAR 4EBB
ENCODING 20155
SWIDTH 520 0
DWIDTH 16 0
BBX 16 16 0 -2
BITMAP
0080
00c0
0180
0100
0380
0300
0500
0900
1100
0100
0100
0100
0100
0100
0100
0100
ENDCHAR
STARTCHAR 4EBF
ENCODING 20159
SWIDTH 520 0
DWIDTH 16 0
BBX 16 16 0 -2
BITMAP
0800
0dfc
0804
1008
1010
3020
5040
9080
1100
1100
1200
1204
1404
1404
13fc
1000
ENDCHAR
STARTCHAR 4EC0
ENCODING 20160
SWIDTH 520 0
DWIDTH 16 0
BBX 16 16 0 -2
BITMAP
0840
0c40
0840
1840
1040
3040
57fe
9040
1040
1040
1040
1040
1040
1040
1040
0000
ENDCHAR
STARTCHAR 4EC1
ENCODING 20161
SWIDTH 520 0
DWIDTH 16 0
BBX 16 16 0 -2
BITMAP
1000
1808
17fc
3000
2000
6000
a000
2000
2000
2000
2000
2004
2ffe
2000
2000
0000
ENDCHAR
STARTCHAR 4EC2
ENCODING 20162
SWIDTH 520 0
DWIDTH 16 0
BBX 16 16 0 -2
BITMAP
0840
0c40
1840
1044
37fe
3044
5044
5044
9044
1044
1084
1084
1104
1104
1214
1408
ENDCHAR
STARTCHAR 4EC3
ENCODING 20163
SWIDTH 520 0
DWIDTH 16 0
BBX 16 16 0 -2
BITMAP
0800
0c00
1bfe
1020
3020
3020
5020
9020
1020
1020
1020
1020
1020
10a0
1040
0000
ENDCHAR
STARTCHAR 4EC4
ENCODING 20164
SWIDTH 520 0
DWIDTH 16 0
BBX 16 16 0 -2
BITMAP
0000
3ffe
2080
2080
2080
2080
2080
2140
2140
2120
2220
2210
4418
480e
9004
0000
ENDCHAR
STARTCHAR 4EC5
ENCODING 20165
SWIDTH 520 0
DWIDTH 16 0
BBX 16 16 0 -2
BITMAP
0800
0c00
1bf8
1208
2208
3110
5110
5110
90a0
10a0
1040
10e0
1198
130e
1c04
1000
ENDCHAR
STARTCHAR 4EC6
ENCODING 20166
SWIDTH 520 0
DWIDTH 16 0
BBX 16 16 0 -2
BITMAP
0440
0640
0c40
0840
1040
1860
3050
504c
9046
1042
1040
1040
1040
1040
1040
0000
ENDCHAR
STARTCHAR 4EC7
ENCODING 20167
SWIDTH 520 0
DWIDTH 16 0
BBX 16 16 0 -2
BITMAP
0880
0880
1090
17f8
2090
6090
a090
2110
2110
2110
2210
2212
2412
2812
301e
0000
ENDCHAR
STARTCHAR 4EC9
ENCODING 20169
SWIDTH 520 0
DWIDTH 16 0
BBX 16 16 0 -2
BITMAP
0800
0c00
19f0
1110
1110
3110
5110
9110
1110
1110
1110
1110
1212
1212
140e
1000
ENDCHAR
STARTCHAR 4ECA
ENCODING 20170
SWIDTH 520 0
DWIDTH 16 0
BBX 16 16 0 -2
BITMAP
0100
0100
0280
0440
0820
1218
218e
c084
0000
1ff0
0020
0020
0040
0040
0080
0100
ENDCHAR
STARTCHAR 4ECB
ENCODING 20171
SWIDTH 520 0
DWIDTH 16 0
BBX 16 16 0 -2
BITMAP
0100
0100
0280
0240
0430
181c
6428
0420
0420
0420
0420
0820
0820
1020
2020
0000
ENDCHAR
STARTCHAR 4ECD
ENCODING 20173
SWIDTH 520 0
DWIDTH 16 0
BBX 16 16 0 -2
BITMAP
1000
1bf8
1108
2108
3110
6110
a13c
2114
2104
2204
2204
2204
2408
2448
2828
2010
ENDCHAR
STARTCHAR 4ECE
ENCODING 20174
SWIDTH 520 0
DWIDTH 16 0
BBX 16 16 0 -2
BITMAP
0840
0840
0840
0840
0840
0840
0840
08a0
14a0
1290
1290
2108
230c
4206
8404
0800
ENDCHAR
STARTCHAR 4ED1
ENCODING 20177
SWIDTH 520 0
DWIDTH 16 0
BBX 16 16 0 -2
BITMAP
0100
0100
0280
0440
0830
101c
6808
0840
08e0
0980
0e00
0808
0808
080c
07f8
0000
ENDCHAR
STARTCHAR 4ED3
ENCODING 20179
SWIDTH 520 0
DWIDTH 16 0
BBX 16 16 0 -2
BITMAP
0100
0100
0280
0440
0830
1018
2fee
4824
0820
0820
0820
08e0
0840
0808
080c
07f8
ENDCHAR
STARTCHAR 4ED4
ENCODING 20180
SWIDTH 520 0
DWIDTH 16 0
BBX 16 16 0 -2
BITMAP
0800
0bf8
1008
1010
3020
3040
5ffe
9040
1040
1040
1040
1040
1040
1040
1140
1080
ENDCHAR
STARTCHAR 4ED5
ENCODING 20181
SWIDTH 520 0
DWIDTH 16 0
BBX 16 16 0 -2
BITMAP
0840
0c40
1840
1040
3044
2ffe
6040
a040
2040
2040
2040
2040
2044
2ffe
2000
0000
ENDCHAR
STARTCHAR 4ED6
ENCODING 20182
SWIDTH 520 0
DWIDTH 16 0
BBX 16 16 0 -2
BITMAP
1040
1840
1240
1244
225e
72e4
af44
2244
2244
2254
2248
2242
2242
2202
23fe
0000
ENDCHAR
STARTCHAR 4ED7
ENCODING 20183
SWIDTH 520 0
DWIDTH 16 0
BBX 16 16 0 -2
BITMAP
1040
1840
1044
2ffe
3040
6440
a440
2240
2240
2140
2080
20c0
2130
261e
2804
0000
ENDCHAR
STARTCHAR 4ED8
ENCODING 20184
SWIDTH 520 0
DWIDTH 16 0
BBX 16 16 0 -2
BITMAP
0810
0c10
1010
1010
27fe
3010
5410
9210
1110
1190
1110
1010
1010
1050
1020
0000
ENDCHAR
STARTCHAR 4ED9
ENCODING 20185
SWIDTH 520 0
DWIDTH 16 0
BBX 16 16 0 -2
BITMAP
0820
0c20
0820
1020
1020
3222
3222
5222
9222
1222
1222
1222
1222
17fe
1202
0000
ENDCHAR
STARTCHAR 4EDD
ENCODING 20189
SWIDTH 520 0
DWIDTH 16 0
BBX 16 16 0 -2
BITMAP
0100
0100
0280
0440
0820
1018
200e
c004
3ff8
0100
0100
0100
0100
0104
7ffe
0000
ENDCHAR
STARTCHAR 4EDE
ENCODING 20190
SWIDTH 520 0
DWIDTH 16 0
BBX 16 16 0 -2
BITMAP
0804
0dfe
1844
1044
1044
3244
5344
5244
9444
1084
1084
1104
1148
1228
1410
0000
ENDCHAR
STARTCHAR 4EDF
ENCODING 20191
SWIDTH 520 0
DWIDTH 16 0
BBX 16 16 0 -2
BITMAP
0808
0c3c
0bc0
1040
1040
3044
5ffe
9040
1040
1040
1040
1040
1040
1040
1040
0000
ENDCHAR
STARTCHAR 4EE1
ENCODING 20193
SWIDTH 520 0
DWIDTH 16 0
BBX 16 16 0 -2
BITMAP
1100
1904
13fe
3200
2400
67f8
a810
2020
2040
2080
2100
2102
2202
2202
21fe
0000
ENDCHAR
STARTCHAR 4EE3
ENCODING 20195
SWIDTH 520 0
DWIDTH 16 0
BBX 16 16 0 -2
BITMAP
1100
1920
1110
1108
21fc
3f00
5080
9080
1080
1040
1040
1024
1014
100c
1006
0000
ENDCHAR
STARTCHAR 4EE4
ENCODING 20196
SWIDTH 520 0
DWIDTH 16 0
BBX 16 16 0 -2
BITMAP
0100
0100
0280
0240
0420
0918
308e
c014
1ff8
0010
0020
0440
0280
0180
00c0
0080
ENDCHAR
STARTCHAR 4EE5
ENCODING 20197
SWIDTH 520 0
DWIDTH 16 0
BBX 16 16 0 -2
BITMAP
0010
2410
2210
2310
2210
2010
2010
2110
2210
2c30
3830
7068
20c4
0107
0602
0000
ENDCHAR
STARTCHAR 4EE8
ENCODING 20200
SWIDTH 520 0
DWIDTH 16 0
BBX 16 16 0 -2
BITMAP
0800
0800
17fc
1000
2000
3000
5000
93fc
1000
1000
1000
1000
1000
1ffe
1000
0000
ENDCHAR
STARTCHAR 4EEA
ENCODING 20202
SWIDTH 520 0
DWIDTH 16 0
BBX 16 16 0 -2
BITMAP
0880
0840
1068
1248
2208
6210
a110
2110
20a0
20a0
2040
20a0
2110
220e
2c04
2000
ENDCHAR
STARTCHAR 4EEB
ENCODING 20203
SWIDTH 520 0
DWIDTH 16 0
BBX 16 16 0 -2
BITMAP
0840
0c60
1840
1080
2090
3110
5120
5220
9c40
1050
1088
1104
127e
17c6
1002
1000
ENDCHAR
STARTCHAR 4EEC
ENCODING 20204
SWIDTH 520 0
DWIDTH 16 0
BBX 16 16 0 -2
BITMAP
0a00
0900
11bc
1104
3404
2404
6404
a404
2404
2404
2404
2404
2404
2414
2408
0000
ENDCHAR
STARTCHAR 4EF0
ENCODING 20208
SWIDTH 520 0
DWIDTH 16 0
BBX 16 16 0 -2
BITMAP
0800
08c0
173e
1422
3422
2422
6422
a422
2422
24a2
252e
2624
2420
2020
2020
0000
ENDCHAR
STARTCHAR 4EF2
ENCODING 20210
SWIDTH 520 0
DWIDTH 16 0
BBX 16 16 0 -2
BITMAP
0840
0c40
1840
17fc
3444
2444
6444
a444
27fc
2444
2040
2040
2040
2040
2040
0000
ENDCHAR
STARTCHAR 4EF3
ENCODING 20211
SWIDTH 520 0
DWIDTH 16 0
BBX 16 16 0 -2
BITMAP
1220
1a20
1220
1220
3224
23ae
6238
a220
2220
2220
2220
2220
22a2
2322
221e
0000
ENDCHAR
STARTCHAR 4EF5
ENCODING 20213
SWIDTH 520 0
DWIDTH 16 0
BBX 16 16 0 -2
BITMAP
0900
0900
11fc
1220
3220
5420
9020
17fe
1020
1020
1020
1020
1020
1020
1020
0000
ENDCHAR
STARTCHAR 4EF6
ENCODING 20214
SWIDTH 520 0
DWIDTH 16 0
BBX 16 16 0 -2
BITMAP
1040
1a40
1340
3240
23fc
6440
a440
2840
2ffe
2040
2040
2040
2040
2040
2040
2040
ENDCHAR
STARTCHAR 4EF7
ENCODING 20215
SWIDTH 520 0
DWIDTH 16 0
BBX 16 16 0 -2
BITMAP
0840
0c40
18a0
1110
3218
640e
a914
2110
2110
2110
2110
2210
2210
2410
2410
2810
ENDCHAR
STARTCHAR 4EFB
ENCODING 20219
SWIDTH 520 0
DWIDTH 16 0
BBX 16 16 0 -2
BITMAP
0800
0c3c
1bc0
1040
3040
3040
5040
9ffe
1040
1040
1040
1040
1040
17fe
1000
0000
ENDCHAR
STARTCHAR 4EFD
ENCODING 20221
SWIDTH 520 0
DWIDTH 16 0
BBX 16 16 0 -2
BITMAP
0930
0da0
0920
1210
1208
240e
6804
b7f8
2088
2088
2088
2108
2108
2238
2c10
0000
ENDCHAR
STARTCHAR 4EFF
ENCODING 20223
SWIDTH 520 0
DWIDTH 16 0
BBX 16 16 0 -2
BITMAP
0880
0c60
1824
17fe
2080
5080
9084
10fe
1084
1104
1104
1204
1244
1428
1810
0000
ENDCHAR
STARTCHAR 4F01
ENCODING 20225
SWIDTH 520 0
DWIDTH 16 0
BBX 16 16 0 -2
BITMAP
0100
0180
0100
0280
0440
0830
311e
c184
1110
19f8
1100
1100
1100
1104
fffe
0000
ENDCHAR
STARTCHAR 4F09
ENCODING 20233
SWIDTH 520 0
DWIDTH 16 0
BBX 16 16 0 -2
BITMAP
1100
18c0
1044
37fe
2000
61f0
6110
a110
2110
2110
2110
2214
2214
2416
280c
0000
ENDCHAR
STARTCHAR 4F0A
ENCODING 20234
SWIDTH 520 0
DWIDTH 16 0
BBX 16 16 0 -2
BITMAP
1008
1bfc
1088
1088
27fe
2088
6088
a7f8
2088
2080
2100
2100
2200
2200
2400
0000
ENDCHAR
STARTCHAR 4F0D
ENCODING 20237
SWIDTH 520 0
DWIDTH 16 0
BBX 16 16 0 -2
BITMAP
1000
1808
13fc
3080
2080
6080
a088
27fc
2108
2108
2108
2108
2108
2108
2ffe
2000
ENDCHAR
STARTCHAR 4F0E
ENCODING 20238
SWIDTH 520 0
DWIDTH 16 0
BBX 16 16 0 -2
BITMAP
1040
1860
1048
17fc
2040
3040
63f8
6208
a110
2110
20a0
2040
20a0
2118
220e
2c04
ENDCHAR
STARTCHAR 4F0F
ENCODING 20239
SWIDTH 520 0
DWIDTH 16 0
BBX 16 16 0 -2
BITMAP
1080
18d0
108c
1088
2080
2ffc
6080
a080
2080
2140
2120
2230
2218
240e
2804
0000
ENDCHAR
STARTCHAR 4F10
ENCODING 20240
SWIDTH 520 0
DWIDTH 16 0
BBX 16 16 0 -2
BITMAP
1080
1cd0
1898
1090
30fe
3780
5090
9098
1090
10b0
1060
1062
1192
160a
1006
0000
ENDCHAR
STARTCHAR 4F11
ENCODING 20241
SWIDTH 520 0
DWIDTH 16 0
BBX 16 16 0 -2
BITMAP
1040
1860
1040
1048
27fc
20c0
60e0
6160
a150
2250
2248
244e
2844
2040
2040
0000
ENDCHAR
STARTCHAR 4F17
ENCODING 20247
SWIDTH 520 0
DWIDTH 16 0
BBX 16 16 0 -2
BITMAP
0100
0100
0100
0280
0440
0830
300e
c824
0820
0820
0820
1450
2248
428c
8108
0000
ENDCHAR
STARTCHAR 4F18
ENCODING 20248
SWIDTH 520 0
DWIDTH 16 0
BBX 16 16 0 -2
BITMAP
1080
18a0
1098
2090
37fc
6140
a140
2140
2140
2140
2140
2244
2244
2446
283c
2000
ENDCHAR
STARTCHAR 4F19
ENCODING 20249
SWIDTH 520 0
DWIDTH 16 0
BBX 16 16 0 -2
BITMAP
0840
0c40
1840
1048
324c
2248
6250
a440
20a0
20a0
2110
2110
2208
240e
2804
2000
ENDCHAR
STARTCHAR 4F1A
ENCODING 20250
SWIDTH 520 0
DWIDTH 16 0
BBX 16 16 0 -2
BITMAP
0100
0100
0280
0440
0820
1018
6fee
8004
0000
3ff8
0200
0420
0810
11f8
3f18
1010
ENDCHAR
STARTCHAR 4F1B
ENCODING 20251
SWIDTH 520 0
DWIDTH 16 0
BBX 16 16 0 -2
BITMAP
1000
1ffe
1408
340c
2508
6490
a450
2420
2420
2450
2448
248c
2508
27fe
2000
0000
ENDCHAR
STARTCHAR 4F1E
ENCODING 20254
SWIDTH 520 0
DWIDTH 16 0
BBX 16 16 0 -2
BITMAP
0100
0100
0280
0460
0918
310e
c124
1130
0d20
0940
fffe
0100
0100
0100
0100
0100
ENDCHAR
STARTCHAR 4F1F
ENCODING 20255
SWIDTH 520 0
DWIDTH 16 0
BBX 16 16 0 -2
BITMAP
0840
0c40
0840
17fc
1040
33fc
3040
5040
97fc
1044
1044
1044
1044
1054
1048
1040
ENDCHAR
STARTCHAR 4F20
ENCODING 20256
SWIDTH 520 0
DWIDTH 16 0
BBX 16 16 0 -2
BITMAP
1040
1848
17fc
2040
2080
6084
affe
2080
2108
23fc
2008
2110
20a0
2040
2020
0000
ENDCHAR
STARTCHAR 4F22
ENCODING 20258
SWIDTH 520 0
DWIDTH 16 0
BBX 16 16 0 -2
BITMAP
1000
1bfc
1020
3220
2320
6220
a7fe
2020
2060
20a0
2120
2220
2420
28a0
2040
0000
ENDCHAR
STARTCHAR 4F24
ENCODING 20260
SWIDTH 520 0
DWIDTH 16 0
BBX 16 16 0 -2
BITMAP
0900
0d80
0904
11fe
1240
3440
5bfc
9044
1044
1044
1084
1084
1104
1104
1214
1408
ENDCHAR
STARTCHAR 4F25
ENCODING 20261
SWIDTH 520 0
DWIDTH 16 0
BBX 16 16 0 -2
BITMAP
1100
1910
1118
3130
2140
6180
a104
2ffe
2140
2140
2120
2110
2118
214e
2184
2100
ENDCHAR
STARTCHAR 4F26
ENCODING 20262
SWIDTH 520 0
DWIDTH 16 0
BBX 16 16 0 -2
BITMAP
1040
1840
1040
30a0
2118
620e
a504
2910
2138
21c0
2100
2104
2104
2104
20f8
2000
ENDCHAR
STARTCHAR 4F27
ENCODING 20263
SWIDTH 520 0
DWIDTH 16 0
BBX 16 16 0 -2
BITMAP
1080
1880
1140
2130
221c
6408
abf0
2210
2210
2210
2270
2220
2208
2208
21f8
2000
ENDCHAR
STARTCHAR 4F2A
ENCODING 20266
SWIDTH 520 0
DWIDTH 16 0
BBX 16 16 0 -2
BITMAP
0840
0c40
0a40
1140
1140
27fc
3044
5084
90a4
1094
1114
1104
1204
1428
1810
0000
ENDCHAR
STARTCHAR 4F2B
ENCODING 20267
SWIDTH 520 0
DWIDTH 16 0
BBX 16 16 0 -2
BITMAP
0840
0c30
0820
13fe
1a02
3404
5000
9000
1000
1000
1000
1000
1000
17fe
1000
0000
ENDCHAR
STARTCHAR 4F2F
ENCODING 20271
SWIDTH 520 0
DWIDTH 16 0
BBX 16 16 0 -2
BITMAP
0840
0c60
0880
1bfc
1204
3204
3204
5204
93fc
1204
1204
1204
1204
13fc
1204
0000
ENDCHAR
STARTCHAR 4F30
ENCODING 20272
SWIDTH 520 0
DWIDTH 16 0
BBX 16 16 0 -2
BITMAP
0840
0c40
1040
1044
27fe
3040
6040
a040
23fc
2204
2204
2204
2204
23fc
2204
0000
ENDCHAR
STARTCHAR 4F32
ENCODING 20274
SWIDTH 520 0
DWIDTH 16 0
BBX 16 16 0 -2
BITMAP
1000
1bfc
1204
3204
23fc
6200
a280
2288
229c
22e0
2280
2282
2482
2482
287e
0000
ENDCHAR
STARTCHAR 4F34
ENCODING 20276
SWIDTH 520 0
DWIDTH 16 0
BBX 16 16 0 -2
BITMAP
0840
0840
1448
134c
2250
77fc
a040
2040
2040
2ffe
2040
2040
2040
2040
2040
0000
ENDCHAR
STARTCHAR 4F36
ENCODING 20278
SWIDTH 520 0
DWIDTH 16 0
BBX 16 16 0 -2
BITMAP
0840
0c40
18c0
1120
3290
6448
a86e
2044
27fc
2008
2010
2120
20c0
2060
2040
0000
ENDCHAR
STARTCHAR 4F38
ENCODING 20280
SWIDTH 520 0
DWIDTH 16 0
BBX 16 16 0 -2
BITMAP
0840
0c40
1840
17fc
3444
3444
57fc
9444
1444
17fc
1444
1440
1040
1040
1040
0000
ENDCHAR
STARTCHAR 4F3A
ENCODING 20282
SWIDTH 520 0
DWIDTH 16 0
BBX 16 16 0 -2
BITMAP
0800
0ffc
0804
1004
17f4
3004
33e4
5224
9224
1224
13e4
1224
1004
1014
1008
0000
ENDCHAR
STARTCHAR 4F3C
ENCODING 20284
SWIDTH 520 0
DWIDTH 16 0
BBX 16 16 0 -2
BITMAP
1108
1888
10c8
2488
3408
2408
6408
a408
2448
2488
2514
2614
2422
20c2
2302
0000
ENDCHAR
STARTCHAR 4F3D
ENCODING 20285
SWIDTH 520 0
DWIDTH 16 0
BBX 16 16 0 -2
BITMAP
1200
1a00
1200
223e
3fa2
22a2
62a2
a2a2
24a2
24a2
24a2
28a2
28be
33a2
2120
0000
ENDCHAR
STARTCHAR 4F43
ENCODING 20291
SWIDTH 520 0
DWIDTH 16 0
BBX 16 16 0 -2
BITMAP
0800
0c00
1bfe
1222
2222
7222
a222
23fe
2222
2222
2222
2222
23fe
2202
2000
0000
ENDCHAR
STARTCHAR 4F46
ENCODING 20294
SWIDTH 520 0
DWIDTH 16 0
BBX 16 16 0 -2
BITMAP
1000
1bf8
1208
2208
2208
73f8
a208
2208
2208
23f8
2208
2200
2000
2ffe
2000
0000
ENDCHAR
STARTCHAR 4F4D
ENCODING 20301
SWIDTH 520 0
DWIDTH 16 0
BBX 16 16 0 -2
BITMAP
0900
0cc0
1040
17fc
2000
3410
5218
5210
9110
1120
1120
1020
1040
1ffe
1000
0000
ENDCHAR
STARTCHAR 4F4E
ENCODING 20302
SWIDTH 520 0
DWIDTH 16 0
BBX 16 16 0 -2
BITMAP
0818
0c7c
1ba0
1220
2220
6220
a3fe
2220
2220
2220
2210
2252
228a
2346
2222
0000
ENDCHAR
STARTCHAR 4F4F
ENCODING 20303
SWIDTH 520 0
DWIDTH 16 0
BBX 16 16 0 -2
BITMAP
0900
0880
1048
17fc
2040
6040
a040
2048
27fc
2040
2040
2040
2044
2ffe
2000
0000
ENDCHAR
STARTCHAR 4F50
ENCODING 20304
SWIDTH 520 0
DWIDTH 16 0
BBX 16 16 0 -2
BITMAP
1080
1880
1080
3ffe
2080
6080
6100
a1fc
2220
2220
2420
2820
3020
27fe
2000
0000
ENDCHAR
STARTCHAR 4F51
ENCODING 20305
SWIDTH 520 0
DWIDTH 16 0
BBX 16 16 0 -2
BITMAP
1080
1880
1080
2ffe
2080
6100
a100
23fc
2204
2604
2a04
3204
2204
23fc
2204
0000
ENDCHAR
STARTCHAR 4F53
ENCODING 20307
SWIDTH 520 0
DWIDTH 16 0
BBX 16 16 0 -2
BITMAP
1040
1840
1040
2040
37fc
60c0
a0e0
2160
2150
2248
244e
2bf4
2040
2040
2040
0000
ENDCHAR
STARTCHAR 4F55
ENCODING 20309
SWIDTH 520 0
DWIDTH 16 0
BBX 16 16 0 -2
BITMAP
0800
0c00
1bfe
1008
3008
27c8
6448
a448
2448
27c8
2448
2008
2008
2028
2010
0000
ENDCHAR
STARTCHAR 4F57
ENCODING 20311
SWIDTH 520 0
DWIDTH 16 0
BBX 16 16 0 -2
BITMAP
0880
0c44
1bfe
1204
3408
3100
5108
911c
1130
11c0
1100
1104
1104
1104
10fc
0000
ENDCHAR
STARTCHAR 4F58
ENCODING 20312
SWIDTH 520 0
DWIDTH 16 0
BBX 16 16 0 -2
BITMAP
0100
0100
0280
0460
0818
17ee
6004
0000
1ff8
0080
08a0
0c98
188c
1088
2280
0100
ENDCHAR
STARTCHAR 4F59
ENCODING 20313
SWIDTH 520 0
DWIDTH 16 0
BBX 16 16 0 -2
BITMAP
0100
0100
0280
0460
0810
3ffe
c104
0100
3ffc
0100
1140
1930
1118
2110
4500
0200
ENDCHAR
STARTCHAR 4F5A
ENCODING 20314
SWIDTH 520 0
DWIDTH 16 0
BBX 16 16 0 -2
BITMAP
1040
1a40
1248
13fc
2440
2440
6844
affe
2040
20a0
20a0
2110
2110
2208
240e
2804
ENDCHAR
STARTCHAR 4F5B
ENCODING 20315
SWIDTH 520 0
DWIDTH 16 0
BBX 16 16 0 -2
BITMAP
0890
0890
17fc
1094
3094
37fc
5490
9490
17fe
1092
1092
111a
1114
1210
1210
1410
ENDCHAR
STARTCHAR 4F5C
ENCODING 20316
SWIDTH 520 0
DWIDTH 16 0
BBX 16 16 0 -2
BITMAP
0880
0c80
0900
13fe
1280
3488
50fc
9080
1080
1084
10fe
1080
1080
1080
1080
1080
ENDCHAR
STARTCHAR 4F5D
ENCODING 20317
SWIDTH 520 0
DWIDTH 16 0
BBX 16 16 0 -2
BITMAP
1100
1904
11fe
3204
2204
6404
abe4
2224
2224
2224
23e4
2224
2004
2014
2008
0000
ENDCHAR
STARTCHAR 4F5E
ENCODING 20318
SWIDTH 520 0
DWIDTH 16 0
BBX 16 16 0 -2
BITMAP
0800
0bf8
1000
1004
27fe
6080
a084
2ffe
2108
2108
2310
20e0
2050
2188
2604
0000
ENDCHAR
STARTCHAR 4F5F
ENCODING 20319
SWIDTH 520 0
DWIDTH 16 0
BBX 16 16 0 -2
BITMAP
0900
0d00
19fc
1308
2510
6890
b040
20a0
2318
2c8e
2064
2020
2080
2060
2020
0000
ENDCHAR
STARTCHAR 4F60
ENCODING 20320
SWIDTH 520 0
DWIDTH 16 0
BBX 16 16 0 -2
BITMAP
0900
0980
1104
13fe
2204
3448
6840
a250
2348
2248
2444
2446
2844
2140
2080
0000
ENDCHAR
STARTCHAR 4F63
ENCODING 20323
SWIDTH 520 0
DWIDTH 16 0
BBX 16 16 0 -2
BITMAP
0800
0bfc
1244
1244
3244
33fc
5244
9244
13fc
1244
1244
1444
1444
1454
1848
0000
ENDCHAR
STARTCHAR 4F64
ENCODING 20324
SWIDTH 520 0
DWIDTH 16 0
BBX 16 16 0 -2
BITMAP
1000
1ffe
1100
1100
21f0
3110
5110
9290
1250
1250
1210
1252
1292
1712
120e
0000
ENDCHAR
STARTCHAR 4F65
ENCODING 20325
SWIDTH 520 0
DWIDTH 16 0
BBX 16 16 0 -2
BITMAP
0100
0100
0280
0440
0820
1018
2fee
4004
0210
1118
0990
0da0
0920
0040
7ffc
0000
ENDCHAR
STARTCHAR 4F67
ENCODING 20327
SWIDTH 520 0
DWIDTH 16 0
BBX 16 16 0 -2
BITMAP
0880
0c80
18fc
1080
3080
6080
affe
2080
20c0
20b0
2098
208c
2088
2080
2080
0000
ENDCHAR
STARTCHAR 4F69
ENCODING 20329
SWIDTH 520 0
DWIDTH 16 0
BBX 16 16 0 -2
BITMAP
1000
1ff8
1408
3408
27e8
6488
a7e8
26a8
26a8
26a8
2aa8
2aaa
2aea
3286
2082
0000
ENDCHAR
STARTCHAR 4F6C
ENCODING 20332
SWIDTH 520 0
DWIDTH 16 0
BBX 16 16 0 -2
BITMAP
0880
0c84
1886
17ec
3088
2090
6ffe
a040
2280
2310
2d38
31c4
2104
2106
20fc
0000
ENDCHAR
STARTCHAR 4F6F
ENCODING 20335
SWIDTH 520 0
DWIDTH 16 0
BBX 16 16 0 -2
BITMAP
1210
1910
1124
2ffe
2040
7048
a7fc
2040
2044
2ffe
2040
2040
2040
2040
2040
0000
ENDCHAR
STARTCHAR 4F70
ENCODING 20336
SWIDTH 520 0
DWIDTH 16 0
BBX 16 16 0 -2
BITMAP
1000
1bfe
1040
3040
2080
63fc
a204
2204
23fc
2204
2204
2204
23fc
2204
2204
0000
ENDCHAR
STARTCHAR 4F73
ENCODING 20339
SWIDTH 520 0
DWIDTH 16 0
BBX 16 16 0 -2
BITMAP
0840
0c40
1848
17fc
3040
6044
affe
2040
2040
2048
27fc
2040
2040
2044
2ffe
2000
ENDCHAR
STARTCHAR 4F74
ENCODING 20340
SWIDTH 520 0
DWIDTH 16 0
BBX 16 16 0 -2
BITMAP
0800
0ffe
1a10
1210
33f0
2210
6210
a3f0
2210
2210
2210
2ffe
2010
2010
2010
0000
ENDCHAR
STARTCHAR 4F76
ENCODING 20342
SWIDTH 520 0
DWIDTH 16 0
BBX 16 16 0 -2
BITMAP
0840
0c40
1844
17fe
3040
3048
53fc
9000
1000
13f8
1208
1208
1208
13f8
1208
0000
ENDCHAR
STARTCHAR 4F7B
ENCODING 20347
SWIDTH 520 0
DWIDTH 16 0
BBX 16 16 0 -2
BITMAP
1120
1920
1120
1128
292c
2530
6520
a330
2528
2924
2120
2222
2222
241e
2800
0000
ENDCHAR
STARTCHAR 4F7C
ENCODING 20348
SWIDTH 520 0
DWIDTH 16 0
BBX 16 16 0 -2
BITMAP
1080
1860
1040
27fc
2220
6318
a20c
2514
2910
20a0
20a0
2040
20a0
2110
220e
2c04
ENDCHAR
STARTCHAR 4F7E
ENCODING 20350
SWIDTH 520 0
DWIDTH 16 0
BBX 16 16 0 -2
BITMAP
0920
0da0
0910
1218
320e
27fc
6a08
a3f8
2208
2208
23f8
2208
2208
2228
2210
0000
ENDCHAR
STARTCHAR 4F7F
ENCODING 20351
SWIDTH 520 0
DWIDTH 16 0
BBX 16 16 0 -2
BITMAP
0840
0c40
1bfe
1040
37fc
6444
a444
27fc
2444
2240
2180
2080
2170
221e
2c04
0000
ENDCHAR
STARTCHAR 4F83
ENCODING 20355
SWIDTH 520 0
DWIDTH 16 0
BBX 16 16 0 -2
BITMAP
0800
0ff8
1a08
1208
3208
23f8
6000
a248
2248
2248
2248
2448
244a
284a
3046
0000
ENDCHAR
STARTCHAR 4F84
ENCODING 20356
SWIDTH 520 0
DWIDTH 16 0
BBX 16 16 0 -2
BITMAP
1000
1bfc
1080
3090
2108
727c
a7c4
2040
2040
27fc
2040
2040
2040
2ffe
2000
0000
ENDCHAR
STARTCHAR 4F88
ENCODING 20360
SWIDTH 520 0
DWIDTH 16 0
BBX 16 16 0 -2
BITMAP
0880
0cfc
1984
1108
3290
3460
50c0
9340
14fe
1102
1284
1448
1050
1020
10c0
1700
ENDCHAR
STARTCHAR 4F89
ENCODING 20361
SWIDTH 520 0
DWIDTH 16 0
BBX 16 16 0 -2
BITMAP
1080
1880
17fe
3120
2218
65e6
b804
2000
27fc
2100
2100
21f8
2008
2008
2028
2010
ENDCHAR
STARTCHAR 4F8B
ENCODING 20363
SWIDTH 520 0
DWIDTH 16 0
BBX 16 16 0 -2
BITMAP
1002
1be2
1102
2112
21d2
6252
a252
2452
2a92
3292
2112
2102
2202
2202
240a
2804
ENDCHAR
STARTCHAR 4F8D
ENCODING 20365
SWIDTH 520 0
DWIDTH 16 0
BBX 16 16 0 -2
BITMAP
0840
0840
17fc
1040
2040
6ffe
a010
2010
27fe
2010
2210
2190
2110
2010
2050
2020
ENDCHAR
STARTCHAR 4F8F
ENCODING 20367
SWIDTH 520 0
DWIDTH 16 0
BBX 16 16 0 -2
BITMAP
0840
0c40
1a48
13fc
3240
2440
6044
a7fe
20e0
2160
2150
2248
2446
2844
2040
0000
ENDCHAR
STARTCHAR 4F91
ENCODING 20369
SWIDTH 520 0
DWIDTH 16 0
BBX 16 16 0 -2
BITMAP
1080
1880
1080
27fc
2100
63f8
a208
2608
27f8
2a08
3208
23f8
2208
2208
2228
2210
ENDCHAR
STARTCHAR 4F94
ENCODING 20372
SWIDTH 520 0
DWIDTH 16 0
BBX 16 16 0 -2
BITMAP
0880
0cc0
1988
123c
37e6
2244
6248
a7fc
2440
2844
2ffe
2040
2040
2040
2040
0000
ENDCHAR
STARTCHAR 4F97
ENCODING 20375
SWIDTH 520 0
DWIDTH 16 0
BBX 16 16 0 -2
BITMAP
1000
1ffe
1402
35fa
2402
6402
a5fa
250a
250a
250a
25fa
250a
2402
240a
2404
0000
ENDCHAR
STARTCHAR 4F9B
ENCODING 20379
SWIDTH 520 0
DWIDTH 16 0
BBX 16 16 0 -2
BITMAP
1000
1910
1110
2110
37fc
6110
a110
2110
2110
2ffe
2120
2310
2218
240c
2808
2000
ENDCHAR
STARTCHAR 4F9D
ENCODING 20381
SWIDTH 520 0
DWIDTH 16 0
BBX 16 16 0 -2
BITMAP
1100
18c0
1080
3ffe
3080
50c4
514e
9330
1320
1530
1910
1128
114e
1384
1100
0000
ENDCHAR
STARTCHAR 4FA0
ENCODING 20384
SWIDTH 520 0
DWIDTH 16 0
BBX 16 16 0 -2
BITMAP
0840
0c40
0840
17fc
1048
344c
5348
9250
1ffe
10a0
10a0
1110
1118
120e
1404
0000
ENDCHAR
STARTCHAR 4FA3
ENCODING 20387
SWIDTH 520 0
DWIDTH 16 0
BBX 16 16 0 -2
BITMAP
1000
1bf8
1208
3208
2208
63f8
a208
2000
27fc
2404
2404
2404
2404
27fc
2404
0000
ENDCHAR
STARTCHAR 4FA5
ENCODING 20389
SWIDTH 520 0
DWIDTH 16 0
BBX 16 16 0 -2
BITMAP
1080
1880
10fc
2f80
3090
6062
a1a2
2e1a
2004
2ffc
2120
2120
2222
2422
281e
0000
ENDCHAR
STARTCHAR 4FA6
ENCODING 20390
SWIDTH 520 0
DWIDTH 16 0
BBX 16 16 0 -2
BITMAP
0840
0c40
087e
1840
1040
33fc
5204
9244
1244
1244
1244
12a4
1090
110c
1204
1400
ENDCHAR
STARTCHAR 4FA7
ENCODING 20391
SWIDTH 520 0
DWIDTH 16 0
BBX 16 16 0 -2
BITMAP
1004
1fc4
1444
2454
3554
6554
a554
2554
2554
2554
2294
2244
2464
2854
3008
0000
ENDCHAR
STARTCHAR 4FA8
ENCODING 20392
SWIDTH 520 0
DWIDTH 16 0
BBX 16 16 0 -2
BITMAP
1038
1bc0
1080
2080
2ffe
61a0
a318
260e
2914
2110
2110
2210
2210
2410
2810
0000
ENDCHAR
STARTCHAR 4FA9
ENCODING 20393
SWIDTH 520 0
DWIDTH 16 0
BBX 16 16 0 -2
BITMAP
1080
1880
10c0
1120
2218
240e
6bf4
a000
2008
2ffc
2100
2120
2210
24f8
2f98
2010
ENDCHAR
STARTCHAR 4FAA
ENCODING 20394
SWIDTH 520 0
DWIDTH 16 0
BBX 16 16 0 -2
BITMAP
0880
0840
17fc
1210
2120
60c0
a0c0
2330
2c0c
2110
2110
2110
2210
2210
2410
2810
ENDCHAR
STARTCHAR 4FAC
ENCODING 20396
SWIDTH 520 0
DWIDTH 16 0
BBX 16 16 0 -2
BITMAP
1040
1840
1044
27fe
2484
68c8
a140
214c
2330
2520
2910
2108
216e
21c4
2100
0000
ENDCHAR
STARTCHAR 4FAE
ENCODING 20398
SWIDTH 520 0
DWIDTH 16 0
BBX 16 16 0 -2
BITMAP
1200
1a00
13fe
3400
2bf8
6288
a248
2248
2ffe
2288
2248
2248
23fe
2008
2028
2010
ENDCHAR
STARTCHAR 4FAF
ENCODING 20399
SWIDTH 520 0
DWIDTH 16 0
BBX 16 16 0 -2
BITMAP
1000
1bf0
1010
2010
2ffe
6200
a3fc
2240
2440
2ffe
2040
20a0
2120
2218
240e
2804
ENDCHAR
STARTCHAR 4FB5
ENCODING 20405
SWIDTH 520 0
DWIDTH 16 0
BBX 16 16 0 -2
BITMAP
1000
1bf8
1008
23f8
2008
73f8
a000
27fe
2802
2bf4
2110
2120
20c0
21b0
2e0e
0000
ENDCHAR
STARTCHAR 4FBF
ENCODING 20415
SWIDTH 520 0
DWIDTH 16 0
BBX 16 16 0 -2
BITMAP
0800
0ffe
1840
17fc
3444
67fc
a444
2444
27fc
2440
2240
2180
20c0
2130
220e
2c04
ENDCHAR
STARTCHAR 4FC3
ENCODING 20419
SWIDTH 520 0
DWIDTH 16 0
BBX 16 16 0 -2
BITMAP
1000
1bf8
3208
2208
6208
a3f8
2248
2040
2248
227c
2240
2240
2540
28c0
303e
0000
ENDCHAR
STARTCHAR 4FC4
ENCODING 20420
SWIDTH 520 0
DWIDTH 16 0
BBX 16 16 0 -2
BITMAP
1020
19a8
1624
2224
3ffe
6220
a224
22a6
232c
2628
2a10
2230
224a
2e8a
2404
0000
ENDCHAR
STARTCHAR 4FC5
ENCODING 20421
SWIDTH 520 0
DWIDTH 16 0
BBX 16 16 0 -2
BITMAP
1040
1850
1048
37fe
2040
6448
a24c
2350
2260
20d0
2348
2e46
2444
2140
2080
0000
ENDCHAR
STARTCHAR 4FCA
ENCODING 20426
SWIDTH 520 0
DWIDTH 16 0
BBX 16 16 0 -2
BITMAP
0880
0cc0
0988
123c
17e6
3114
5208
9504
19f8
1110
1290
14a0
1060
1198
1606
0000
ENDCHAR
STARTCHAR 4FCE
ENCODING 20430
SWIDTH 520 0
DWIDTH 16 0
BBX 16 16 0 -2
BITMAP
1000
11f8
1108
2908
2508
45f8
8108
1108
1108
11f8
2908
2508
4508
83fe
0000
0000
ENDCHAR
STARTCHAR 4FCF
ENCODING 20431
SWIDTH 520 0
DWIDTH 16 0
BBX 16 16 0 -2
BITMAP
0840
0c48
1a4c
1150
33fc
3204
5204
93fc
1204
1204
13fc
1204
1204
1214
1208
0000
ENDCHAR
STARTCHAR 4FD0
ENCODING 20432
SWIDTH 520 0
DWIDTH 16 0
BBX 16 16 0 -2
BITMAP
1084
19c4
1604
3214
2214
6fd4
a314
2694
26d4
2a94
2a14
3204
2204
223c
2208
0000
ENDCHAR
STARTCHAR 4FD1
ENCODING 20433
SWIDTH 520 0
DWIDTH 16 0
BBX 16 16 0 -2
BITMAP
1008
17fc
1090
2060
27fc
6444
a444
27fc
2444
2444
27fc
2444
2444
2454
2448
0000
ENDCHAR
STARTCHAR 4FD7
ENCODING 20439
SWIDTH 520 0
DWIDTH 16 0
BBX 16 16 0 -2
BITMAP
1120
1918
124c
3448
2840
60a0
a118
220e
2404
2bf8
2208
2208
2208
23f8
2208
0000
ENDCHAR
STARTCHAR 4FD8
ENCODING 20440
SWIDTH 520 0
DWIDTH 16 0
BBX 16 16 0 -2
BITMAP
107c
1fc0
1488
324c
2250
67fc
a008
2030
2040
2ffe
2040
2040
2040
2140
2080
0000
ENDCHAR
STARTCHAR 4FDA
ENCODING 20442
SWIDTH 520 0
DWIDTH 16 0
BBX 16 16 0 -2
BITMAP
1000
1bf8
1248
2248
33f8
6248
a248
23f8
2040
2040
27fc
2040
2040
2040
2ffe
2000
ENDCHAR
STARTCHAR 4FDC
ENCODING 20444
SWIDTH 520 0
DWIDTH 16 0
BBX 16 16 0 -2
BITMAP
1040
1840
13f8
2248
23f8
7248
a3f8
2000
2ffe
2100
23f8
2108
2008
2008
2028
2010
ENDCHAR
STARTCHAR 4FDD
ENCODING 20445
SWIDTH 520 0
DWIDTH 16 0
BBX 16 16 0 -2
BITMAP
1000
1bf8
1208
2208
3208
63f8
a040
2ffe
20e0
2160
2150
2258
244e
2844
2040
0000
ENDCHAR
STARTCHAR 4FDE
ENCODING 20446
SWIDTH 520 0
DWIDTH 16 0
BBX 16 16 0 -2
BITMAP
0100
0280
0440
0820
3ff8
c00e
3e04
2248
3e48
2248
2248
3e48
2208
2a28
2410
0000
ENDCHAR
STARTCHAR 4FDF
ENCODING 20447
SWIDTH 520 0
DWIDTH 16 0
BBX 16 16 0 -2
BITMAP
0900
0d90
1a08
17fc
3008
2200
63f8
a240
2440
2ffe
2040
20a0
2110
2218
240c
2808
ENDCHAR
STARTCHAR 4FE1
ENCODING 20449
SWIDTH 520 0
DWIDTH 16 0
BBX 16 16 0 -2
BITMAP
0880
0c60
1840
17fe
3000
33f8
5000
93f8
1000
13f8
1208
1208
1208
13f8
1208
0000
ENDCHAR
STARTCHAR 4FE3
ENCODING 20451
SWIDTH 520 0
DWIDTH 16 0
BBX 16 16 0 -2
BITMAP
0800
0ff8
1a08
1208
33f8
6000
a7fc
2040
2044
2ffe
20a0
20b0
2118
220e
2c04
0000
ENDCHAR
STARTCHAR 4FE6
ENCODING 20454
SWIDTH 520 0
DWIDTH 16 0
BBX 16 16 0 -2
BITMAP
1040
1840
17fc
2040
27fc
4080
affe
2110
2110
23fe
2290
2450
2850
3010
2050
2020
ENDCHAR
STARTCHAR 4FE8
ENCODING 20456
SWIDTH 520 0
DWIDTH 16 0
BBX 16 16 0 -2
BITMAP
1000
1ffe
10a8
34ac
22a8
62b0
a7fe
2400
2400
2400
2400
2400
2800
2800
3000
0000
ENDCHAR
STARTCHAR 4FE9
ENCODING 20457
SWIDTH 520 0
DWIDTH 16 0
BBX 16 16 0 -2
BITMAP
1000
1ffe
1090
2090
27fe
6492
a492
2492
2492
256a
252a
2646
2482
240a
2404
0000
ENDCHAR
STARTCHAR 4FEA
ENCODING 20458
SWIDTH 520 0
DWIDTH 16 0
BBX 16 16 0 -2
BITMAP
1000
1ffe
1000
3000
27bc
74a4
a4a4
26b4
25ac
25ac
24a4
24a4
24a4
26b4
2528
0000
ENDCHAR
STARTCHAR 4FED
ENCODING 20461
SWIDTH 520 0
DWIDTH 16 0
BBX 16 16 0 -2
BITMAP
0840
0c40
18a0
1110
320c
6426
abf4
2000
2110
2498
22d0
22a0
2020
2ffe
2000
0000
ENDCHAR
STARTCHAR 4FEE
ENCODING 20462
SWIDTH 520 0
DWIDTH 16 0
BBX 16 16 0 -2
BITMAP
1100
1900
31f8
2308
6a90
ac60
2898
2b4e
28e4
2998
2660
218c
2630
20c0
2700
0000
ENDCHAR
STARTCHAR 4FEF
ENCODING 20463
SWIDTH 520 0
DWIDTH 16 0
BBX 16 16 0 -2
BITMAP
1080
1840
17fe
3488
24c8
6488
a57e
2508
2748
2528
2528
2508
2908
2928
3110
0000
ENDCHAR
STARTCHAR 4FF1
ENCODING 20465
SWIDTH 520 0
DWIDTH 16 0
BBX 16 16 0 -2
BITMAP
1000
1bf8
1208
23f8
3208
63f8
a208
23f8
2208
2208
2ffe
2110
2388
260c
3808
0000
ENDCHAR
STARTCHAR 4FF3
ENCODING 20467
SWIDTH 520 0
DWIDTH 16 0
BBX 16 16 0 -2
BITMAP
1120
1920
3120
2f3e
6120
a120
2f3c
2120
2120
2120
3f3e
2120
2120
2120
2120
0000
ENDCHAR
STARTCHAR 4FF8
ENCODING 20472
SWIDTH 520 0
DWIDTH 16 0
BBX 16 16 0 -2
BITMAP
1080
1880
17fc
2080
37f8
6080
affe
2110
2648
3bf6
2040
2040
27fc
2040
2040
2040
ENDCHAR
STARTCHAR 4FFA
ENCODING 20474
SWIDTH 520 0
DWIDTH 16 0
BBX 16 16 0 -2
BITMAP
1080
1880
17fc
2120
3210
6488
bff6
2490
27f0
2490
2490
27f0
2482
2082
207e
0000
ENDCHAR
STARTCHAR 4FFE
ENCODING 20478
SWIDTH 520 0
DWIDTH 16 0
BBX 16 16 0 -2
BITMAP
0840
0880
17fc
1444
37fc
5444
5484
97fc
1544
1240
1ffe
1040
1040
1040
1040
1040
ENDCHAR
STARTCHAR 500C
ENCODING 20492
SWIDTH 520 0
DWIDTH 16 0
BBX 16 16 0 -2
BITMAP
1080
1844
17fe
3404
2808
63f8
a208
23f8
2208
2200
23f8
2208
2208
23f8
2208
0000
ENDCHAR
STARTCHAR 500D
ENCODING 20493
SWIDTH 520 0
DWIDTH 16 0
BBX 16 16 0 -2
BITMAP
0880
0840
17fe
1210
3118
5190
1120
17fe
1000
13f8
1208
1208
1208
13f8
1208
0000
ENDCHAR
STARTCHAR 500F
ENCODING 20495
SWIDTH 520 0
DWIDTH 16 0
BBX 16 16 0 -2
BITMAP
1100
1900
31fc
2308
6c90
a860
299e
2e44
2850
2ffc
2840
28a0
2110
2208
2c06
0000
ENDCHAR
STARTCHAR 5012
ENCODING 20498
SWIDTH 520 0
DWIDTH 16 0
BBX 16 16 0 -2
BITMAP
1004
1fc4
1204
2204
3414
6894
afd4
2294
2214
2fd4
2214
2214
2204
23c4
2e14
2008
ENDCHAR
STARTCHAR 5014
ENCODING 20500
SWIDTH 520 0
DWIDTH 16 0
BBX 16 16 0 -2
BITMAP
1000
1bfc
1204
3204
23fc
6220
a2a4
22a4
22fc
22a4
2220
2524
2524
2524
29fc
3104
ENDCHAR
STARTCHAR 5018
ENCODING 20504
SWIDTH 520 0
DWIDTH 16 0
BBX 16 16 0 -2
BITMAP
1040
1848
124c
1148
2150
27fc
6404
a5f4
2514
2514
2514
25f4
2504
2414
2408
0000
ENDCHAR
STARTCHAR 5019
ENCODING 20505
SWIDTH 520 0
DWIDTH 16 0
BBX 16 16 0 -2
BITMAP
1000
1bf8
1010
27fe
2900
6900
a9fc
2940
2a40
2ffe
28a0
2890
2118
220e
2404
0000
ENDCHAR
STARTCHAR 501A
ENCODING 20506
SWIDTH 520 0
DWIDTH 16 0
BBX 16 16 0 -2
BITMAP
1040
1840
17fc
20a0
2110
6208
affe
2008
27c8
2448
2448
27c8
2448
2008
2028
2010
ENDCHAR
STARTCHAR 501C
ENCODING 20508
SWIDTH 520 0
DWIDTH 16 0
BBX 16 16 0 -2
BITMAP
1000
1ffc
1444
2444
35f4
6444
a5f4
2404
25f4
2514
2514
25f4
2904
2814
3008
0000
ENDCHAR
STARTCHAR 501F
ENCODING 20511
SWIDTH 520 0
DWIDTH 16 0
BBX 16 16 0 -2
BITMAP
1110
1910
1110
27fc
2110
6110
affe
2000
23f8
2208
2208
23f8
2208
2208
23f8
2208
ENDCHAR
STARTCHAR 5021
ENCODING 20513
SWIDTH 520 0
DWIDTH 16 0
BBX 16 16 0 -2
BITMAP
1000
1bfc
1204
33fc
2204
63fc
a204
2000
27fe
2402
27fe
2402
2402
27fe
2402
0000
ENDCHAR
STARTCHAR 5025
ENCODING 20517
SWIDTH 520 0
DWIDTH 16 0
BBX 16 16 0 -2
BITMAP
1080
1860
1044
27fe
2404
6910
a308
2404
2bf8
2040
2040
2040
2040
2040
27fc
0000
ENDCHAR
STARTCHAR 5026
ENCODING 20518
SWIDTH 520 0
DWIDTH 16 0
BBX 16 16 0 -2
BITMAP
1080
1890
1498
22a0
27fc
6080
affe
2120
23d8
262e
3a24
22a0
2248
2208
21f8
0000
ENDCHAR
STARTCHAR 5028
ENCODING 20520
SWIDTH 520 0
DWIDTH 16 0
BBX 16 16 0 -2
BITMAP
1000
1bfc
1204
2204
23fc
6220
a224
23fe
2220
2220
23fc
2504
2504
2504
29fc
2000
ENDCHAR
STARTCHAR 5029
ENCODING 20521
SWIDTH 520 0
DWIDTH 16 0
BBX 16 16 0 -2
BITMAP
1040
1040
1ffc
1040
23fc
3040
67fc
a000
23f8
2208
23f8
2208
23f8
2208
2228
2210
ENDCHAR
STARTCHAR 502A
ENCODING 20522
SWIDTH 520 0
DWIDTH 16 0
BBX 16 16 0 -2
BITMAP
1060
1b9c
1204
1204
23bc
2204
6204
a3fc
22a4
20a0
2120
2122
2222
2422
281e
0000
ENDCHAR
STARTCHAR 502C
ENCODING 20524
SWIDTH 520 0
DWIDTH 16 0
BBX 16 16 0 -2
BITMAP
1080
1880
10fc
2080
37f8
6408
a7f8
2408
27f8
2080
2080
2ffc
2080
2080
2080
2080
ENDCHAR
STARTCHAR 502D
ENCODING 20525
SWIDTH 520 0
DWIDTH 16 0
BBX 16 16 0 -2
BITMAP
1018
1be0
1040
27fc
2160
6350
a44e
2884
2100
3ffe
2210
21a0
2060
2198
2e0c
0000
ENDCHAR
STARTCHAR 502E
ENCODING 20526
SWIDTH 520 0
DWIDTH 16 0
BBX 16 16 0 -2
BITMAP
1000
1bf8
1248
23f8
3248
6248
a3f8
2040
2ffe
20c0
2160
2258
244e
2844
2040
0000
ENDCHAR
STARTCHAR 503A
ENCODING 20538
SWIDTH 520 0
DWIDTH 16 0
BBX 16 16 0 -2
BITMAP
1040
17fc
1040
23f8
2040
67fc
a000
23f8
2208
2248
2248
2248
20a0
2118
2608
0000
ENDCHAR
STARTCHAR 503C
ENCODING 20540
SWIDTH 520 0
DWIDTH 16 0
BBX 16 16 0 -2
BITMAP
1040
1860
17fc
1040
2080
33f8
6208
a3f8
2208
23f8
2208
23f8
2208
2208
2ffe
2000
ENDCHAR
STARTCHAR 503E
ENCODING 20542
SWIDTH 520 0
DWIDTH 16 0
BBX 16 16 0 -2
BITMAP
1000
19fe
1020
2840
68fc
ae84
28a4
28a4
28a4
28a4
2aa4
2c20
2850
208c
2104
2200
ENDCHAR
STARTCHAR 5043
ENCODING 20547
SWIDTH 520 0
DWIDTH 16 0
BBX 16 16 0 -2
BITMAP
1000
1ffe
1400
25f8
3508
65f8
a508
25f8
2440
27fe
2490
2460
2450
2588
27fe
0000
ENDCHAR
STARTCHAR 5047
ENCODING 20551
SWIDTH 520 0
DWIDTH 16 0
BBX 16 16 0 -2
BITMAP
1000
1fbc
1484
2484
27bc
6484
a400
27bc
2444
2428
27a8
2410
2438
244e
2584
0000
ENDCHAR
STARTCHAR 5048
ENCODING 20552
SWIDTH 520 0
DWIDTH 16 0
BBX 16 16 0 -2
BITMAP
1000
1bfc
1204
23fc
3204
63fc
a100
23fc
2644
2a44
22a4
2314
27f4
2204
2014
0008
ENDCHAR
STARTCHAR 504C
ENCODING 20556
SWIDTH 520 0
DWIDTH 16 0
BBX 16 16 0 -2
BITMAP
1110
1910
17fe
2110
2150
6040
affe
2080
2100
23f8
2608
2a08
2208
23f8
2208
0000
ENDCHAR
STARTCHAR 504E
ENCODING 20558
SWIDTH 520 0
DWIDTH 16 0
BBX 16 16 0 -2
BITMAP
1000
1bf8
3248
23f8
2248
6248
a3f8
2000
2ffe
2244
2246
2228
2230
2298
270e
2204
ENDCHAR
STARTCHAR 504F
ENCODING 20559
SWIDTH 520 0
DWIDTH 16 0
BBX 16 16 0 -2
BITMAP
1080
1840
17fc
2404
3404
67fc
a400
27fc
2694
2694
2bfc
2a94
2a94
3294
2284
220c
ENDCHAR
STARTCHAR 5055
ENCODING 20565
SWIDTH 520 0
DWIDTH 16 0
BBX 16 16 0 -2
BITMAP
1420
1c24
142e
27b0
2422
65a2
a65e
2080
23f8
2208
2208
23f8
2208
2208
23f8
2208
ENDCHAR
STARTCHAR 505A
ENCODING 20570
SWIDTH 520 0
DWIDTH 16 0
BBX 16 16 0 -2
BITMAP
1220
1a30
1220
2fa0
227e
6268
a2a8
2fa8
28a8
28a8
2890
2f90
28ac
2846
2184
0000
ENDCHAR
STARTCHAR 505C
ENCODING 20572
SWIDTH 520 0
DWIDTH 16 0
BBX 16 16 0 -2
BITMAP
0840
0c20
0bfe
1000
11f8
3108
51f8
9000
17fe
1402
11fc
1020
1020
1020
10a0
1040
ENDCHAR
STARTCHAR 5065
ENCODING 20581
SWIDTH 520 0
DWIDTH 16 0
BBX 16 16 0 -2
BITMAP
1020
1020
2df8
2428
65fe
a828
2ff8
2220
22f8
3220
2dfc
2420
2a20
31a0
20fc
0000
ENDCHAR
STARTCHAR 506C
ENCODING 20588
SWIDTH 520 0
DWIDTH 16 0
BBX 16 16 0 -2
BITMAP
1180
1904
33fe
24a4
2b24
7184
a664
2894
2338
2490
2048
2564
254a
250a
28f8
0000
ENDCHAR
STARTCHAR 5076
ENCODING 20598
SWIDTH 520 0
DWIDTH 16 0
BBX 16 16 0 -2
BITMAP
0000
13f8
1a48
1248
33f8
2248
6248
a3f8
2040
27fc
2444
2454
24fc
2784
2414
2408
ENDCHAR
STARTCHAR 5077
ENCODING 20599
SWIDTH 520 0
DWIDTH 16 0
BBX 16 16 0 -2
BITMAP
1080
1880
1160
2218
35ee
6804
a788
24a8
24a8
27a8
24a8
27a8
2488
26a8
2510
0000
ENDCHAR
STARTCHAR 507B
ENCODING 20603
SWIDTH 520 0
DWIDTH 16 0
BBX 16 16 0 -2
BITMAP
1040
1a48
1150
27fe
30e0
6158
624e
ad44
2100
2ffe
2110
2110
20e0
2198
2e08
0000
ENDCHAR
STARTCHAR 507E
ENCODING 20606
SWIDTH 520 0
DWIDTH 16 0
BBX 16 16 0 -2
BITMAP
1040
1ffc
1040
2248
2ffe
6208
a000
23f8
2248
2248
2248
22a8
2290
2118
220c
2408
ENDCHAR
STARTCHAR 507F
ENCODING 20607
SWIDTH 520 0
DWIDTH 16 0
BBX 16 16 0 -2
BITMAP
1040
1a48
114c
2150
27fe
7404
a000
23f8
2000
27fe
2080
2190
2208
27fc
2208
0000
ENDCHAR
STARTCHAR 5080
ENCODING 20608
SWIDTH 520 0
DWIDTH 16 0
BBX 16 16 0 -2
BITMAP
1080
1900
17f0
3490
27f0
6490
a490
27f0
2540
2150
2154
227c
2242
2442
283e
0000
ENDCHAR
STARTCHAR 5085
ENCODING 20613
SWIDTH 520 0
DWIDTH 16 0
BBX 16 16 0 -2
BITMAP
1050
1848
1ffc
1040
27f8
2448
77f8
a448
27f8
2448
2010
2ffe
2110
2110
2050
2020
ENDCHAR
STARTCHAR 5088
ENCODING 20616
SWIDTH 520 0
DWIDTH 16 0
BBX 16 16 0 -2
BITMAP
1000
1ffe
1090
27fc
3494
6494
a7fc
2444
2040
2ffe
20e0
21d8
234e
2644
2840
2040
ENDCHAR
STARTCHAR 508D
ENCODING 20621
SWIDTH 520 0
DWIDTH 16 0
BBX 16 16 0 -2
BITMAP
1080
1840
17fc
2210
2124
67fe
a484
2848
27fc
2100
21f8
2108
2208
2228
2410
0000
ENDCHAR
STARTCHAR 50A3
ENCODING 20643
SWIDTH 520 0
DWIDTH 16 0
BBX 16 16 0 -2
BITMAP
1080
1880
17fc
2080
27f8
6080
affe
2120
2258
2646
3954
20e0
2158
2648
20c0
0000
ENDCHAR
STARTCHAR 50A5
ENCODING 20645
SWIDTH 520 0
DWIDTH 16 0
BBX 16 16 0 -2
BITMAP
1040
1a48
114c
3450
27fe
6804
abf8
2210
2210
23f0
22a0
20a4
2124
2224
2c1c
0000
ENDCHAR
STARTCHAR 50A7
ENCODING 20647
SWIDTH 520 0
DWIDTH 16 0
BBX 16 16 0 -2
BITMAP
1080
1840
13fe
2404
2438
63c0
a200
23fc
2220
2224
2ffe
2120
2198
220c
2404
0000
ENDCHAR
STARTCHAR 50A8
ENCODING 20648
SWIDTH 520 0
DWIDTH 16 0
BBX 16 16 0 -2
BITMAP
1020
1824
15fe
2424
2028
5dfe
a420
2440
25fc
2684
24fc
2484
2584
2efc
2484
0000
ENDCHAR
STARTCHAR 50A9
ENCODING 20649
SWIDTH 520 0
DWIDTH 16 0
BBX 16 16 0 -2
BITMAP
10a0
18d0
1090
2efe
2390
7290
aafe
2a90
2490
2afe
2a90
3290
2090
20fe
2080
0000
ENDCHAR
STARTCHAR 50AC
ENCODING 20652
SWIDTH 520 0
DWIDTH 16 0
BBX 16 16 0 -2
BITMAP
1040
1c44
1444
27fc
2240
6224
a7fe
2a20
23fc
2220
23fc
2220
2224
23fe
2200
2200
ENDCHAR
STARTCHAR 50B2
ENCODING 20658
SWIDTH 520 0
DWIDTH 16 0
BBX 16 16 0 -2
BITMAP
1210
1a18
17d0
2210
27be
6224
afe4
2414
2414
2788
2488
2494
2894
2ba6
3144
0000
ENDCHAR
STARTCHAR 50BA
ENCODING 20666
SWIDTH 520 0
DWIDTH 16 0
BBX 16 16 0 -2
BITMAP
1200
1bbc
14a4
26a8
2a90
7510
a208
27fe
2804
37fc
2040
2250
2348
224c
2548
2080
ENDCHAR
STARTCHAR 50BB
ENCODING 20667
SWIDTH 520 0
DWIDTH 16 0
BBX 16 16 0 -2
BITMAP
1080
1bfc
1294
2264
3294
6204
a3fc
2408
2606
2bfc
2310
24a0
2840
21b0
2e0e
0000
ENDCHAR
STARTCHAR 50CF
ENCODING 20687
SWIDTH 520 0
DWIDTH 16 0
BBX 16 16 0 -2
BITMAP
1100
19f0
1220
27fc
3444
6444
a7fc
2488
219c
2e60
2350
2ca8
2326
2c24
20a0
2040
ENDCHAR
STARTCHAR 50D6
ENCODING 20694
SWIDTH 520 0
DWIDTH 16 0
BBX 16 16 0 -2
BITMAP
1040
1ffc
1040
37fc
2000
63f8
a208
23f8
2110
2ffe
2000
23f8
2208
23f8
2208
0000
ENDCHAR
STARTCHAR 50DA
ENCODING 20698
SWIDTH 520 0
DWIDTH 16 0
BBX 16 16 0 -2
BITMAP
1080
1880
17fe
28c8
352c
6210
a7fe
2a14
33f0
2210
23f0
2250
2348
244c
2948
2080
ENDCHAR
STARTCHAR 50E6
ENCODING 20710
SWIDTH 520 0
DWIDTH 16 0
BBX 16 16 0 -2
BITMAP
1020
1430
1228
2fac
2028
6f7c
a920
2920
2f50
2250
2b50
2ad0
3252
2a92
250e
0000
ENDCHAR
STARTCHAR 50E7
ENCODING 20711
SWIDTH 520 0
DWIDTH 16 0
BBX 16 16 0 -2
BITMAP
1210
1918
1120
27fc
3654
655c
a564
27fc
2404
23f8
2208
23f8
2208
2208
23f8
2208
ENDCHAR
STARTCHAR 50EC
ENCODING 20716
SWIDTH 520 0
DWIDTH 16 0
BBX 16 16 0 -2
BITMAP
1140
1920
13fc
2240
2640
6bfc
a240
23fc
2240
2240
23fc
2000
2548
24a4
28a4
0000
ENDCHAR
STARTCHAR 50ED
ENCODING 20717
SWIDTH 520 0
DWIDTH 16 0
BBX 16 16 0 -2
BITMAP
1000
1f7c
1210
2a50
2ffe
6518
a5aa
294e
3000
27f8
2408
27f8
2408
27f8
2408
0000
ENDCHAR
STARTCHAR 50EE
ENCODING 20718
SWIDTH 520 0
DWIDTH 16 0
BBX 16 16 0 -2
BITMAP
1080
1840
17fc
2110
2ffe
6000
a7f8
2448
27f8
2448
27f8
2040
2ffc
2040
3ffe
2000
ENDCHAR
STARTCHAR 50F3
ENCODING 20723
SWIDTH 520 0
DWIDTH 16 0
BBX 16 16 0 -2
BITMAP
1000
1ffe
10a0
27fc
34a4
64a4
a7fc
2248
2150
2ffe
20e0
2150
224c
2446
2844
2040
ENDCHAR
STARTCHAR 50F5
ENCODING 20725
SWIDTH 520 0
DWIDTH 16 0
BBX 16 16 0 -2
BITMAP
1000
1ffe
1000
37fc
2444
67fc
a444
2ffe
2000
27fc
2444
27fc
2444
27fc
2000
2ffe
ENDCHAR
STARTCHAR 50FB
ENCODING 20731
SWIDTH 520 0
DWIDTH 16 0
BBX 16 16 0 -2
BITMAP
1020
1f10
29fe
2904
6946
af24
2828
28fe
2f10
2d10
2d7e
3510
3710
2510
2410
0010
ENDCHAR
STARTCHAR 5106
ENCODING 20742
SWIDTH 520 0
DWIDTH 16 0
BBX 16 16 0 -2
BITMAP
1510
1518
2fd0
2520
653e
afc4
28a4
36a4
2aa8
2a88
2e90
2090
20a8
2546
2284
0000
ENDCHAR
STARTCHAR 5107
ENCODING 20743
SWIDTH 520 0
DWIDTH 16 0
BBX 16 16 0 -2
BITMAP
17fc
14a4
24a4
27fc
7000
affe
2000
23f8
2208
23f8
2144
2328
2d10
314e
2384
2100
ENDCHAR
STARTCHAR 510B
ENCODING 20747
SWIDTH 520 0
DWIDTH 16 0
BBX 16 16 0 -2
BITMAP
1100
19f8
1210
27fe
7490
a548
2624
25fe
2400
25fc
2400
25fc
2400
29fc
2904
31fc
ENDCHAR
STARTCHAR 5112
ENCODING 20754
SWIDTH 520 0
DWIDTH 16 0
BBX 16 16 0 -2
BITMAP
17f8
1840
17fe
2844
2778
6040
a738
2000
2ffe
2080
27fc
24a4
24a4
24a4
2494
2408
ENDCHAR
STARTCHAR 5121
ENCODING 20769
SWIDTH 520 0
DWIDTH 16 0
BBX 16 16 0 -2
BITMAP
1000
1bf8
1248
23f8
2248
63f8
a000
2fbe
2aaa
2aaa
2fbe
2aaa
2aaa
2fbe
28a2
0000
ENDCHAR
STARTCHAR 513F
ENCODING 20799
SWIDTH 520 0
DWIDTH 16 0
BBX 16 16 0 -2
BITMAP
0440
0440
0440
0440
0440
0440
0440
0440
0440
0440
0840
0842
1042
1042
203e
4000
ENDCHAR
STARTCHAR 5140
ENCODING 20800
SWIDTH 520 0
DWIDTH 16 0
BBX 16 16 0 -2
BITMAP
0000
7ffe
0440
0440
0440
0440
0440
0440
0440
0440
0840
0842
1042
203e
4000
0000
ENDCHAR
STARTCHAR 5141
ENCODING 20801
SWIDTH 520 0
DWIDTH 16 0
BBX 16 16 0 -2
BITMAP
0200
0200
0400
0410
0808
1ffc
0a48
0240
0240
0240
0440
0440
0842
1042
203e
4000
ENDCHAR
STARTCHAR 5143
ENCODING 20803
SWIDTH 520 0
DWIDTH 16 0
BBX 16 16 0 -2
BITMAP
0000
1ff8
0000
0000
0000
7ffe
0440
0440
0440
0440
0840
0840
1042
2042
403e
0000
ENDCHAR
STARTCHAR 5144
ENCODING 20804
SWIDTH 520 0
DWIDTH 16 0
BBX 16 16 0 -2
BITMAP
0000
1ff0
1010
1010
1010
1010
1ff0
1450
0440
0440
0440
0842
0842
1042
203e
4000
ENDCHAR
STARTCHAR 5145
ENCODING 20805
SWIDTH 520 0
DWIDTH 16 0
BBX 16 16 0 -2
BITMAP
0200
0100
7ffc
0200
0740
0c20
1010
3ff8
0490
0480
0480
0880
0884
1084
207c
4000
ENDCHAR
STARTCHAR 5146
ENCODING 20806
SWIDTH 520 0
DWIDTH 16 0
BBX 16 16 0 -2
BITMAP
0440
0440
0448
444c
3450
2460
0440
0460
1450
e44c
4448
0840
0842
1042
203e
4000
ENDCHAR
STARTCHAR 5148
ENCODING 20808
SWIDTH 520 0
DWIDTH 16 0
BBX 16 16 0 -2
BITMAP
0100
1100
1100
1ff8
1100
2100
2100
7ffc
0440
0440
0440
0840
0842
1042
203e
4000
ENDCHAR
STARTCHAR 5149
ENCODING 20809
SWIDTH 520 0
DWIDTH 16 0
BBX 16 16 0 -2
BITMAP
0100
2110
1918
0d10
0920
0104
7ffe
0440
0440
0440
0440
0842
0842
1042
203e
4000
ENDCHAR
STARTCHAR 514B
ENCODING 20811
SWIDTH 520 0
DWIDTH 16 0
BBX 16 16 0 -2
BITMAP
0100
0100
7ffc
0100
0100
1ff0
1010
1010
1ff0
1450
0440
0440
0842
0842
103e
2000
ENDCHAR
STARTCHAR 514D
ENCODING 20813
SWIDTH 520 0
DWIDTH 16 0
BBX 16 16 0 -2
BITMAP
0400
0400
0ff0
1020
2040
5ff8
1108
1108
1ff8
1248
0240
0440
0442
0842
103e
2000
ENDCHAR
STARTCHAR 5151
ENCODING 20817
SWIDTH 520 0
DWIDTH 16 0
BBX 16 16 0 -2
BITMAP
1040
0c60
0480
1ff0
1010
1010
1010
1010
1ff0
0440
0440
0444
0844
0844
103c
2000
ENDCHAR
STARTCHAR 5154
ENCODING 20820
SWIDTH 520 0
DWIDTH 16 0
BBX 16 16 0 -2
BITMAP
0400
07f0
0820
1040
3ff8
5108
9108
1108
1ff8
02a0
0290
0498
0492
0882
10fe
2000
ENDCHAR
STARTCHAR 5155
ENCODING 20821
SWIDTH 520 0
DWIDTH 16 0
BBX 16 16 0 -2
BITMAP
0000
3e7c
2244
2244
2244
23c4
2004
3ffc
2444
0440
0440
0840
0842
1042
203e
4000
ENDCHAR
STARTCHAR 5156
ENCODING 20822
SWIDTH 520 0
DWIDTH 16 0
BBX 16 16 0 -2
BITMAP
0200
0180
7ffe
0820
0c18
120c
6328
0410
1ff8
0a50
0240
0444
0444
0844
103c
2000
ENDCHAR
STARTCHAR 515A
ENCODING 20826
SWIDTH 520 0
DWIDTH 16 0
BBX 16 16 0 -2
BITMAP
0100
1110
0920
3ffe
2004
4008
0fe0
0820
0820
0fe0
0440
0444
0844
0844
103c
6000
ENDCHAR
STARTCHAR 515C
ENCODING 20828
SWIDTH 520 0
DWIDTH 16 0
BBX 16 16 0 -2
BITMAP
1100
321c
47c4
4444
47c4
4444
4444
77dc
0000
0840
0840
0840
1044
1044
203c
4000
ENDCHAR
STARTCHAR 5162
ENCODING 20834
SWIDTH 520 0
DWIDTH 16 0
BBX 16 16 0 -2
BITMAP
1020
1020
fefe
1020
1020
7efc
4284
4284
7efc
2850
2850
2952
2a52
5c92
8b0e
0000
ENDCHAR
STARTCHAR 5165
ENCODING 20837
SWIDTH 520 0
DWIDTH 16 0
BBX 16 16 0 -2
BITMAP
0c00
0600
0200
0100
0300
0280
0280
0440
0420
0820
0810
1008
200e
4004
8000
0000
ENDCHAR
STARTCHAR 5168
ENCODING 20840
SWIDTH 520 0
DWIDTH 16 0
BBX 16 16 0 -2
BITMAP
0100
0100
0280
0440
0830
101c
3ff8
4100
0100
0110
1ff8
0100
0100
0104
7ffe
0000
ENDCHAR
STARTCHAR 516B
ENCODING 20843
SWIDTH 520 0
DWIDTH 16 0
BBX 16 16 0 -2
BITMAP
0000
0040
0460
0640
0440
0440
0440
0820
0820
1010
1010
2008
400e
8004
0000
0000
ENDCHAR
STARTCHAR 516C
ENCODING 20844
SWIDTH 520 0
DWIDTH 16 0
BBX 16 16 0 -2
BITMAP
0000
0440
0640
0440
0820
0810
1018
220e
4304
0200
0420
0810
11f8
3f18
1010
0000
ENDCHAR
STARTCHAR 516D
ENCODING 20845
SWIDTH 520 0
DWIDTH 16 0
BBX 16 16 0 -2
BITMAP
0400
0300
0180
0100
fffe
0000
0000
0480
0640
0420
0810
0818
100c
200c
4008
0000
ENDCHAR
STARTCHAR 516E
ENCODING 20846
SWIDTH 520 0
DWIDTH 16 0
BBX 16 16 0 -2
BITMAP
04c0
0680
0c40
0820
1010
200e
5ff4
8400
0820
1ff0
0820
0020
0020
0220
0140
0080
ENDCHAR
STARTCHAR 5170
ENCODING 20848
SWIDTH 520 0
DWIDTH 16 0
BBX 16 16 0 -2
BITMAP
0020
1030
0820
0440
0080
7ffc
0000
0000
0000
3ff8
0000
0000
0000
fffe
0000
0000
ENDCHAR
STARTCHAR 5171
ENCODING 20849
SWIDTH 520 0
DWIDTH 16 0
BBX 16 16 0 -2
BITMAP
0000
0420
0420
0420
7ffc
0420
0420
0420
0420
fffe
0440
0620
0c10
0818
100c
2008
ENDCHAR
STARTCHAR 5173
ENCODING 20851
SWIDTH 520 0
DWIDTH 16 0
BBX 16 16 0 -2
BITMAP
0820
0430
0620
0448
7ffc
0100
0100
0100
fffe
0100
0280
0440
0820
1030
201c
4008
ENDCHAR
STARTCHAR 5174
ENCODING 20852
SWIDTH 520 0
DWIDTH 16 0
BBX 16 16 0 -2
BITMAP
0000
4408
220c
3308
1998
1110
0020
7ffe
0000
0840
0c20
1810
3018
400c
8008
0000
ENDCHAR
STARTCHAR 5175
ENCODING 20853
SWIDTH 520 0
DWIDTH 16 0
BBX 16 16 0 -2
BITMAP
0070
0f80
0800
0800
0ffc
0840
0840
0840
0840
fffe
0420
0610
0c08
180c
3006
4004
ENDCHAR
STARTCHAR 5176
ENCODING 20854
SWIDTH 520 0
DWIDTH 16 0
BBX 16 16 0 -2
BITMAP
0820
0820
7ffc
0820
0820
0fe0
0820
0fe0
0820
0820
fffe
0840
0c20
1810
3018
4010
ENDCHAR
STARTCHAR 5177
ENCODING 20855
SWIDTH 520 0
DWIDTH 16 0
BBX 16 16 0 -2
BITMAP
0000
0ff0
0810
0ff0
0810
0ff0
0810
0ff0
0810
0810
fffe
0400
0620
0c10
1018
2008
ENDCHAR
STARTCHAR 5178
ENCODING 20856
SWIDTH 520 0
DWIDTH 16 0
BBX 16 16 0 -2
BITMAP
0240
0240
0240
1ff8
1248
1248
1ff8
1248
1248
1248
7ffe
0420
0610
0c18
180c
2008
ENDCHAR
STARTCHAR 5179
ENCODING 20857
SWIDTH 520 0
DWIDTH 16 0
BBX 16 16 0 -2
BITMAP
1020
0c30
0444
fffe
0820
0820
1228
234c
7ef8
0450
0810
1020
2444
7efe
0204
0000
ENDCHAR
STARTCHAR 517B
ENCODING 20859
SWIDTH 520 0
DWIDTH 16 0
BBX 16 16 0 -2
BITMAP
0820
0448
3ffc
0100
1ff8
0104
7ffe
0340
0620
0c18
342e
c424
0820
0820
1020
2020
ENDCHAR
STARTCHAR 517C
ENCODING 20860
SWIDTH 520 0
DWIDTH 16 0
BBX 16 16 0 -2
BITMAP
0820
0440
7ffc
0440
1ff8
0448
7ffe
0448
3ff8
0c48
0c60
1450
2448
444e
8444
0440
ENDCHAR
STARTCHAR 517D
ENCODING 20861
SWIDTH 520 0
DWIDTH 16 0
BBX 16 16 0 -2
BITMAP
0820
0440
3ff8
2108
3ff8
2108
2108
3ff8
0000
fffe
0000
1ff0
1010
1010
1ff0
1010
ENDCHAR
STARTCHAR 5180
ENCODING 20864
SWIDTH 520 0
DWIDTH 16 0
BBX 16 16 0 -2
BITMAP
0440
7c7c
0440
7c3e
1ff0
1110
1ff0
1110
1ff0
0440
7ffc
0440
fffe
0640
1830
6010
ENDCHAR
STARTCHAR 5181
ENCODING 20865
SWIDTH 520 0
DWIDTH 16 0
BBX 16 16 0 -2
BITMAP
4400
25fc
2904
7dfc
5554
7d50
55fc
5550
7dfe
1164
fd6c
1250
1248
14e6
1844
1000
ENDCHAR
STARTCHAR 5182
ENCODING 20866
SWIDTH 520 0
DWIDTH 16 0
BBX 16 16 0 -2
BITMAP
0000
3ffc
2004
2004
2004
2004
2004
2004
2004
2004
2004
2004
2004
203c
2008
0000
ENDCHAR
STARTCHAR 5185
ENCODING 20869
SWIDTH 520 0
DWIDTH 16 0
BBX 16 16 0 -2
BITMAP
0100
0100
0100
3ffc
2104
2104
2184
2244
2224
2414
2814
3004
2004
2004
2014
2008
ENDCHAR
STARTCHAR 5188
ENCODING 20872
SWIDTH 520 0
DWIDTH 16 0
BBX 16 16 0 -2
BITMAP
0000
3ffc
2004
2044
2864
2444
2284
2104
22c4
2464
2834
3014
2004
2014
2008
0000
ENDCHAR
STARTCHAR 5189
ENCODING 20873
SWIDTH 520 0
DWIDTH 16 0
BBX 16 16 0 -2
BITMAP
0100
0100
3ff8
2108
2108
3ff8
2108
2108
2108
fffe
2008
2008
2008
2008
2028
2010
ENDCHAR
STARTCHAR 518C
ENCODING 20876
SWIDTH 520 0
DWIDTH 16 0
BBX 16 16 0 -2
BITMAP
3c78
2448
2448
2448
2448
2448
fffe
2448
2448
2448
2448
2488
4488
5528
8a10
0000
ENDCHAR
STARTCHAR 518D
ENCODING 20877
SWIDTH 520 0
DWIDTH 16 0
BBX 16 16 0 -2
BITMAP
7ffc
0100
0100
1ff0
1110
1110
1ff0
1110
1110
1110
fffe
1010
1010
1010
1050
1020
ENDCHAR
STARTCHAR 5192
ENCODING 20882
SWIDTH 520 0
DWIDTH 16 0
BBX 16 16 0 -2
BITMAP
3ffc
2004
2ff4
2004
2ff4
0004
1ff8
1008
1ff8
1008
1008
1ff8
1008
1008
1ff8
1008
ENDCHAR
STARTCHAR 5195
ENCODING 20885
SWIDTH 520 0
DWIDTH 16 0
BBX 16 16 0 -2
BITMAP
3ff8
2008
2fe8
2008
2fe8
1000
1fe0
3040
5ff0
1210
1ff0
0280
0482
0882
107e
2000
ENDCHAR
STARTCHAR 5196
ENCODING 20886
SWIDTH 520 0
DWIDTH 16 0
BBX 16 16 0 -2
BITMAP
4004
7ffe
4004
8008
0000
0000
0000
0000
0000
0000
0000
0000
0000
0000
0000
0000
ENDCHAR
STARTCHAR 5197
ENCODING 20887
SWIDTH 520 0
DWIDTH 16 0
BBX 16 16 0 -2
BITMAP
0000
7ffe
4004
8008
07e0
0420
0420
0420
0420
0420
0820
0822
1022
201e
c000
0000
ENDCHAR
STARTCHAR 5199
ENCODING 20889
SWIDTH 520 0
DWIDTH 16 0
BBX 16 16 0 -2
BITMAP
0000
3ffe
2004
4808
0ffc
0800
0800
1ffc
0804
0024
7ff4
0004
0004
0008
0028
0010
ENDCHAR
STARTCHAR 519B
ENCODING 20891
SWIDTH 520 0
DWIDTH 16 0
BBX 16 16 0 -2
BITMAP
0000
3ffe
2202
4304
4410
3ff8
0400
0900
0910
1ff8
0100
0104
7ffe
0100
0100
0100
ENDCHAR
STARTCHAR 519C
ENCODING 20892
SWIDTH 520 0
DWIDTH 16 0
BBX 16 16 0 -2
BITMAP
0200
0300
0204
3ffe
2204
4508
0510
0cb8
18a0
2840
4820
8830
0918
0a0e
1c08
0800
ENDCHAR
STARTCHAR 51A0
ENCODING 20896
SWIDTH 520 0
DWIDTH 16 0
BBX 16 16 0 -2
BITMAP
0000
3ffe
2004
4000
3e08
0008
00fe
7f08
1248
1228
1208
2228
2212
4202
81fe
0000
ENDCHAR
STARTCHAR 51A2
ENCODING 20898
SWIDTH 520 0
DWIDTH 16 0
BBX 16 16 0 -2
BITMAP
0004
7ffe
4004
8008
3ff8
0400
0a08
1310
34a0
49c0
16c0
24a0
4890
108e
2284
0100
ENDCHAR
STARTCHAR 51A4
ENCODING 20900
SWIDTH 520 0
DWIDTH 16 0
BBX 16 16 0 -2
BITMAP
0000
3ffe
2404
47e8
0820
1040
1ff8
1108
1ff8
1148
0250
024a
044a
183e
6000
0000
ENDCHAR
STARTCHAR 51A5
ENCODING 20901
SWIDTH 520 0
DWIDTH 16 0
BBX 16 16 0 -2
BITMAP
0004
3ffe
2004
5ff0
1010
1ff0
1010
1ff0
0200
0104
fffe
0840
0c30
1818
300c
4008
ENDCHAR
STARTCHAR 51AB
ENCODING 20907
SWIDTH 520 0
DWIDTH 16 0
BBX 16 16 0 -2
BITMAP
8000
4000
3000
1400
0400
0400
0800
0800
1000
f000
2000
2000
2000
2000
2000
0000
ENDCHAR
STARTCHAR 51AC
ENCODING 20908
SWIDTH 520 0
DWIDTH 16 0
BBX 16 16 0 -2
BITMAP
0400
0400
0bf0
1420
6240
0180
0380
0c60
321e
c104
00c0
0880
0600
0180
00e0
0040
ENDCHAR
STARTCHAR 51AF
ENCODING 20911
SWIDTH 520 0
DWIDTH 16 0
BBX 16 16 0 -2
BITMAP
0000
47f8
2008
2908
0910
0910
1110
13fc
2104
e004
2ff4
2004
2004
2004
2028
2010
ENDCHAR
STARTCHAR 51B0
ENCODING 20912
SWIDTH 520 0
DWIDTH 16 0
BBX 16 16 0 -2
BITMAP
0040
4040
2040
2048
0f4c
0258
2260
2260
2450
c450
4848
4846
5044
6140
4080
0000
ENDCHAR
STARTCHAR 51B1
ENCODING 20913
SWIDTH 520 0
DWIDTH 16 0
BBX 16 16 0 -2
BITMAP
0000
4ffe
2100
2100
1108
11fc
1208
2208
2208
c7f0
4210
4010
4010
4014
5ffe
0000
ENDCHAR
STARTCHAR 51B2
ENCODING 20914
SWIDTH 520 0
DWIDTH 16 0
BBX 16 16 0 -2
BITMAP
0040
4040
2040
37fc
2444
0444
1444
1444
17fc
2444
e040
2040
2040
2040
2040
2040
ENDCHAR
STARTCHAR 51B3
ENCODING 20915
SWIDTH 520 0
DWIDTH 16 0
BBX 16 16 0 -2
BITMAP
0080
8080
4080
37f8
2088
0088
2088
2088
2ffe
c080
4140
4120
4218
440e
4804
5000
ENDCHAR
STARTCHAR 51B5
ENCODING 20917
SWIDTH 520 0
DWIDTH 16 0
BBX 16 16 0 -2
BITMAP
4000
23f8
3208
2a08
0a08
1208
13f8
20a0
20a0
c0a0
4120
4120
4222
4422
581e
0000
ENDCHAR
STARTCHAR 51B6
ENCODING 20918
SWIDTH 520 0
DWIDTH 16 0
BBX 16 16 0 -2
BITMAP
0080
40c0
2080
3110
2108
127c
1786
1004
23f8
e208
2208
2208
2208
23f8
2208
0000
ENDCHAR
STARTCHAR 51B7
ENCODING 20919
SWIDTH 520 0
DWIDTH 16 0
BBX 16 16 0 -2
BITMAP
0080
8080
4140
6120
5218
148e
2844
2040
2ff8
c010
4010
4120
40c0
4060
4040
0000
ENDCHAR
STARTCHAR 51BB
ENCODING 20923
SWIDTH 520 0
DWIDTH 16 0
BBX 16 16 0 -2
BITMAP
0080
8080
6ffe
2100
1140
1240
2448
2ffc
2040
c250
4348
424c
4446
4844
5140
4080
ENDCHAR
STARTCHAR 51BC
ENCODING 20924
SWIDTH 520 0
DWIDTH 16 0
BBX 16 16 0 -2
BITMAP
0040
0240
4240
23fc
3440
2840
0044
17fe
1120
1120
e120
2222
2222
6422
281e
0000
ENDCHAR
STARTCHAR 51BD
ENCODING 20925
SWIDTH 520 0
DWIDTH 16 0
BBX 16 16 0 -2
BITMAP
0004
0fc4
0204
2214
1394
1494
0494
2894
2494
c314
4114
4204
4404
0814
1008
0000
ENDCHAR
STARTCHAR 51C0
ENCODING 20928
SWIDTH 520 0
DWIDTH 16 0
BBX 16 16 0 -2
BITMAP
0100
41f8
2210
3220
27f8
0848
2048
2ffe
2048
2048
c7f8
4040
4040
4040
4140
4080
ENDCHAR
STARTCHAR 51C4
ENCODING 20932
SWIDTH 520 0
DWIDTH 16 0
BBX 16 16 0 -2
BITMAP
0080
8ffe
6080
2ff0
0090
1ffe
2090
2ff0
2104
dffe
4210
4420
4240
4180
4670
580c
ENDCHAR
STARTCHAR 51C6
ENCODING 20934
SWIDTH 520 0
DWIDTH 16 0
BBX 16 16 0 -2
BITMAP
0240
4320
2224
33fe
2620
0a28
13fc
1220
1228
e3fc
2220
2220
2224
23fe
2200
0000
ENDCHAR
STARTCHAR 51C7
ENCODING 20935
SWIDTH 520 0
DWIDTH 16 0
BBX 16 16 0 -2
BITMAP
0400
8408
4428
6428
4f28
2444
2e44
4da2
54b2
d520
6440
4448
4484
45fc
4484
0000
ENDCHAR
STARTCHAR 51C9
ENCODING 20937
SWIDTH 520 0
DWIDTH 16 0
BBX 16 16 0 -2
BITMAP
0080
4040
2ffe
3000
2000
13f8
1208
2208
23f8
c040
4450
4648
444c
4846
5144
4080
ENDCHAR
STARTCHAR 51CB
ENCODING 20939
SWIDTH 520 0
DWIDTH 16 0
BBX 16 16 0 -2
BITMAP
4000
27fc
3444
25f4
0444
1444
17f4
2404
25f4
e514
2514
25f4
2914
6804
3014
2008
ENDCHAR
STARTCHAR 51CC
ENCODING 20940
SWIDTH 520 0
DWIDTH 16 0
BBX 16 16 0 -2
BITMAP
0040
4040
23f8
3040
2ffe
01b0
2308
2484
29f8
c310
4ca0
4040
40b0
430e
1c04
0000
ENDCHAR
STARTCHAR 51CF
ENCODING 20943
SWIDTH 520 0
DWIDTH 16 0
BBX 16 16 0 -2
BITMAP
0020
4028
2024
2ffe
0820
2fe4
2826
282c
4ba8
caa8
4a90
5392
52aa
2046
4182
0000
ENDCHAR
STARTCHAR 51D1
ENCODING 20945
SWIDTH 520 0
DWIDTH 16 0
BBX 16 16 0 -2
BITMAP
0080
4080
2ffc
3100
27f8
0100
3ffe
2210
27e8
d884
6ffe
4080
4140
4230
441c
5808
ENDCHAR
STARTCHAR 51DB
ENCODING 20955
SWIDTH 520 0
DWIDTH 16 0
BBX 16 16 0 -2
BITMAP
0080
4ffe
2000
27fc
15e4
1524
25e4
27fc
2000
c7f8
4000
5ffe
4450
4448
494c
5088
ENDCHAR
STARTCHAR 51DD
ENCODING 20957
SWIDTH 520 0
DWIDTH 16 0
BBX 16 16 0 -2
BITMAP
0800
897e
4e0c
6830
4910
27fe
2812
4f14
5410
dfdc
4450
4c50
4a50
5370
629e
4100
ENDCHAR
STARTCHAR 51E0
ENCODING 20960
SWIDTH 520 0
DWIDTH 16 0
BBX 16 16 0 -2
BITMAP
0000
0fe0
0820
0820
0820
0820
0820
0820
0820
0820
0822
1022
1022
201e
4000
0000
ENDCHAR
STARTCHAR 51E1
ENCODING 20961
SWIDTH 520 0
DWIDTH 16 0
BBX 16 16 0 -2
BITMAP
0000
0fe0
0820
0820
0820
0a20
0920
08a0
08a0
0820
0822
0822
1022
201e
4000
0000
ENDCHAR
STARTCHAR 51E4
ENCODING 20964
SWIDTH 520 0
DWIDTH 16 0
BBX 16 16 0 -2
BITMAP
0000
1ff0
1010
1010
1fd0
1050
1490
1290
1110
1290
2448
286a
500a
4006
8002
0000
ENDCHAR
STARTCHAR 51EB
ENCODING 20971
SWIDTH 520 0
DWIDTH 16 0
BBX 16 16 0 -2
BITMAP
0100
0200
1ff0
1210
1190
10a0
1000
1ffc
0004
07d4
0448
0440
0844
0844
103c
2000
ENDCHAR
STARTCHAR 51ED
ENCODING 20973
SWIDTH 520 0
DWIDTH 16 0
BBX 16 16 0 -2
BITMAP
1018
1be0
1040
3040
5ffe
9040
1040
17fc
1000
07e0
0420
0420
0822
0822
101e
2000
ENDCHAR
STARTCHAR 51EF
ENCODING 20975
SWIDTH 520 0
DWIDTH 16 0
BBX 16 16 0 -2
BITMAP
1000
92f8
9288
9288
fe88
0088
fe88
0288
7e88
4088
4288
4508
590a
e20a
4406
0000
ENDCHAR
STARTCHAR 51F0
ENCODING 20976
SWIDTH 520 0
DWIDTH 16 0
BBX 16 16 0 -2
BITMAP
0000
3ff8
2308
2208
2fe8
2828
2fe8
2828
2fe8
2008
2fe8
2108
2fea
410a
5ff6
8002
ENDCHAR
STARTCHAR 51F3
ENCODING 20979
SWIDTH 520 0
DWIDTH 16 0
BBX 16 16 0 -2
BITMAP
3e90
4460
282c
17d0
600e
8fe4
0820
0fe0
0440
fffe
0000
0fc0
0842
0842
103e
6000
ENDCHAR
STARTCHAR 51F5
ENCODING 20981
SWIDTH 520 0
DWIDTH 16 0
BBX 16 16 0 -2
BITMAP
0000
2004
2004
2004
2004
2004
2004
2004
2004
2004
2004
2004
2004
7ffc
2004
0000
ENDCHAR
STARTCHAR 51F6
ENCODING 20982
SWIDTH 520 0
DWIDTH 16 0
BBX 16 16 0 -2
BITMAP
0000
1020
0830
2424
2244
2284
2184
2284
2244
2464
2824
3004
2004
7ffc
2004
0000
ENDCHAR
STARTCHAR 51F8
ENCODING 20984
SWIDTH 520 0
DWIDTH 16 0
BBX 16 16 0 -2
BITMAP
07e0
0420
0420
0420
0420
0420
3c7c
2424
2004
2004
2004
2004
2004
3ffc
2004
0000
ENDCHAR
STARTCHAR 51F9
ENCODING 20985
SWIDTH 520 0
DWIDTH 16 0
BBX 16 16 0 -2
BITMAP
0000
7c7c
4444
4444
4444
4444
4444
47c4
4004
4004
4004
4004
7ffc
4004
4004
0000
ENDCHAR
STARTCHAR 51FA
ENCODING 20986
SWIDTH 520 0
DWIDTH 16 0
BBX 16 16 0 -2
BITMAP
0100
0100
2104
2104
2104
2104
3ffc
2104
0100
2104
2104
2104
2104
3ffc
2004
0000
ENDCHAR
STARTCHAR 51FB
ENCODING 20987
SWIDTH 520 0
DWIDTH 16 0
BBX 16 16 0 -2
BITMAP
0100
0100
0100
3ff8
0100
0100
0104
7ffe
0100
1108
1108
1108
1108
1ff8
1008
0000
ENDCHAR
STARTCHAR 51FC
ENCODING 20988
SWIDTH 520 0
DWIDTH 16 0
BBX 16 16 0 -2
BITMAP
0100
0100
0100
4124
5f34
4344
4384
4544
4524
4914
511c
6514
4204
7ffc
4004
0000
ENDCHAR
STARTCHAR 51FD
ENCODING 20989
SWIDTH 520 0
DWIDTH 16 0
BBX 16 16 0 -2
BITMAP
0010
3ff8
0030
0040
1180
4924
4d34
4944
4384
4544
5934
4514
4204
7ffc
4004
0000
ENDCHAR
STARTCHAR 51FF
ENCODING 20991
SWIDTH 520 0
DWIDTH 16 0
BBX 16 16 0 -2
BITMAP
0240
2248
124c
0a50
fffe
0420
2248
2fe8
2108
2108
3ff8
2108
2108
3ff8
2008
0000
ENDCHAR
STARTCHAR 5200
ENCODING 20992
SWIDTH 520 0
DWIDTH 16 0
BBX 16 16 0 -2
BITMAP
0000
3ff8
0208
0208
0208
0208
0208
0208
0408
0408
0808
0808
1008
20f0
4020
0000
ENDCHAR
STARTCHAR 5201
ENCODING 20993
SWIDTH 520 0
DWIDTH 16 0
BBX 16 16 0 -2
BITMAP
0000
3ff8
0008
0008
0008
0028
00c8
0308
0c08
3808
1008
0008
0008
0038
0010
0000
ENDCHAR
STARTCHAR 5202
ENCODING 20994
SWIDTH 520 0
DWIDTH 16 0
BBX 16 16 0 -2
BITMAP
0008
0008
0088
0088
0088
0088
0088
0088
0088
0088
0088
0008
0008
0008
0028
0010
ENDCHAR
STARTCHAR 5203
ENCODING 20995
SWIDTH 520 0
DWIDTH 16 0
BBX 16 16 0 -2
BITMAP
0000
3ffc
0104
0104
0104
0904
0904
1904
3104
0204
0204
0404
0804
3038
c010
0000
ENDCHAR
STARTCHAR 5206
ENCODING 20998
SWIDTH 520 0
DWIDTH 16 0
BBX 16 16 0 -2
BITMAP
0880
0c80
0840
1020
1030
2018
400e
9fe4
0420
0420
0420
0420
0820
10a0
2040
4000
ENDCHAR
STARTCHAR 5207
ENCODING 20999
SWIDTH 520 0
DWIDTH 16 0
BBX 16 16 0 -2
BITMAP
1000
1000
13fc
1044
1044
1e44
f044
1044
1044
1284
1484
1904
1104
0214
0408
0000
ENDCHAR
STARTCHAR 5208
ENCODING 21000
SWIDTH 520 0
DWIDTH 16 0
BBX 16 16 0 -2
BITMAP
0004
0204
8344
4244
2444
1444
0844
0844
1444
1644
2244
4344
8204
0004
0014
0008
ENDCHAR
STARTCHAR 520A
ENCODING 21002
SWIDTH 520 0
DWIDTH 16 0
BBX 16 16 0 -2
BITMAP
0004
7f04
0844
0844
0844
0844
ff44
0844
0844
0844
0844
0844
0804
0814
0808
0000
ENDCHAR
STARTCHAR 520D
ENCODING 21005
SWIDTH 520 0
DWIDTH 16 0
BBX 16 16 0 -2
BITMAP
0400
0600
0ff0
0820
1040
2080
7ffc
8004
0004
1ffc
0004
0004
0004
3ffc
0004
0000
ENDCHAR
STARTCHAR 520E
ENCODING 21006
SWIDTH 520 0
DWIDTH 16 0
BBX 16 16 0 -2
BITMAP
1002
1802
1092
1fd2
2a92
4a92
8a92
1292
1292
2492
c492
0892
3082
c702
020a
0004
ENDCHAR
STARTCHAR 5211
ENCODING 21009
SWIDTH 520 0
DWIDTH 16 0
BBX 16 16 0 -2
BITMAP
0004
7f84
1224
1224
1224
1224
ffa4
1224
1224
1224
1224
2204
2204
4214
8208
0000
ENDCHAR
STARTCHAR 5212
ENCODING 21010
SWIDTH 520 0
DWIDTH 16 0
BBX 16 16 0 -2
BITMAP
1004
1404
1204
1024
ffa4
1224
1324
1224
1424
0c24
1824
3524
6504
8314
0108
0000
ENDCHAR
STARTCHAR 5216
ENCODING 21014
SWIDTH 520 0
DWIDTH 16 0
BBX 16 16 0 -2
BITMAP
0004
3e04
2224
2224
3e24
2224
2224
2224
3e24
2224
2224
2204
4204
4a14
8408
0000
ENDCHAR
STARTCHAR 5217
ENCODING 21015
SWIDTH 520 0
DWIDTH 16 0
BBX 16 16 0 -2
BITMAP
0004
ff84
0804
1124
1fa4
1124
2124
5224
8a24
0424
0424
0804
1004
2014
c008
0000
ENDCHAR
STARTCHAR 5218
ENCODING 21016
SWIDTH 520 0
DWIDTH 16 0
BBX 16 16 0 -2
BITMAP
1004
0804
0404
7fa4
0124
2124
1224
0a24
0424
0624
0a24
1104
2184
4114
8008
0000
ENDCHAR
STARTCHAR 5219
ENCODING 21017
SWIDTH 520 0
DWIDTH 16 0
BBX 16 16 0 -2
BITMAP
0004
7f04
4124
4924
4924
4924
4924
4924
4924
4924
1824
1424
2204
4194
8108
0000
ENDCHAR
STARTCHAR 521A
ENCODING 21018
SWIDTH 520 0
DWIDTH 16 0
BBX 16 16 0 -2
BITMAP
0004
7f04
4124
6324
5524
5524
4924
4924
5524
5524
6324
4124
4104
4714
4208
0000
ENDCHAR
STARTCHAR 521B
ENCODING 21019
SWIDTH 520 0
DWIDTH 16 0
BBX 16 16 0 -2
BITMAP
0802
0802
1412
1312
21d2
4092
bf12
2112
2112
2512
2212
2082
2082
208a
1f84
0000
ENDCHAR
STARTCHAR 521D
ENCODING 21021
SWIDTH 520 0
DWIDTH 16 0
BBX 16 16 0 -2
BITMAP
1000
0800
0804
7efe
0424
0824
1224
3424
5824
9424
1244
1044
1084
1114
1208
0000
ENDCHAR
STARTCHAR 5220
ENCODING 21024
SWIDTH 520 0
DWIDTH 16 0
BBX 16 16 0 -2
BITMAP
0002
3b82
2a92
2a92
2a92
2a92
fff2
2a92
2a92
2a92
2a92
4a92
4a82
ba82
958e
0004
ENDCHAR
STARTCHAR 5224
ENCODING 21028
SWIDTH 520 0
DWIDTH 16 0
BBX 16 16 0 -2
BITMAP
0804
0804
4904
29a4
2a24
7fa4
0824
0824
0924
ffa4
0824
1024
1004
2004
4014
8008
ENDCHAR
STARTCHAR 5228
ENCODING 21032
SWIDTH 520 0
DWIDTH 16 0
BBX 16 16 0 -2
BITMAP
1004
1004
3f24
2124
4124
bd24
2524
2524
3d24
2124
2724
2204
2084
2094
1f88
0000
ENDCHAR
STARTCHAR 5229
ENCODING 21033
SWIDTH 520 0
DWIDTH 16 0
BBX 16 16 0 -2
BITMAP
0002
0382
3c02
0422
0422
7fa2
0c22
0c22
1622
1522
25a2
4522
8402
0412
040a
0404
ENDCHAR
STARTCHAR 522B
ENCODING 21035
SWIDTH 520 0
DWIDTH 16 0
BBX 16 16 0 -2
BITMAP
0004
3f04
2124
2124
2124
3f24
2924
0824
7f24
0924
1124
1104
2104
2704
421c
8008
ENDCHAR
STARTCHAR 522D
ENCODING 21037
SWIDTH 520 0
DWIDTH 16 0
BBX 16 16 0 -2
BITMAP
0004
7f04
0204
0424
0a24
11a4
60a4
bf24
0824
0824
0824
09a4
0e04
f004
4014
0008
ENDCHAR
STARTCHAR 522E
ENCODING 21038
SWIDTH 520 0
DWIDTH 16 0
BBX 16 16 0 -2
BITMAP
0004
0f84
7404
0424
0424
7fa4
0424
0424
3f24
2124
2124
2104
2104
3f04
2114
0008
ENDCHAR
STARTCHAR 5230
ENCODING 21040
SWIDTH 520 0
DWIDTH 16 0
BBX 16 16 0 -2
BITMAP
0004
7f84
0804
1224
2124
7fa4
2524
0424
0424
7fa4
0424
0424
0584
0e04
7014
2008
ENDCHAR
STARTCHAR 5233
ENCODING 21043
SWIDTH 520 0
DWIDTH 16 0
BBX 16 16 0 -2
BITMAP
0404
0404
7fa4
0a24
1124
20a4
5f24
8024
7fa4
0824
0824
1f24
0104
0104
0514
0208
ENDCHAR
STARTCHAR 5236
ENCODING 21046
SWIDTH 520 0
DWIDTH 16 0
BBX 16 16 0 -2
BITMAP
2404
3404
2424
3fa4
4424
0424
7fa4
0424
3fa4
24a4
24a4
24a4
2484
2784
0514
0408
ENDCHAR
STARTCHAR 5237
ENCODING 21047
SWIDTH 520 0
DWIDTH 16 0
BBX 16 16 0 -2
BITMAP
3f82
2082
2092
2092
3f92
2212
2212
5fd2
5252
5252
5252
5252
5242
93c2
028a
0204
ENDCHAR
STARTCHAR 5238
ENCODING 21048
SWIDTH 520 0
DWIDTH 16 0
BBX 16 16 0 -2
BITMAP
1110
0d18
0920
3ffc
0100
0200
fffe
0c20
1818
2ffe
c214
0210
0410
0810
1050
2020
ENDCHAR
STARTCHAR 5239
ENCODING 21049
SWIDTH 520 0
DWIDTH 16 0
BBX 16 16 0 -2
BITMAP
2104
1204
0c24
1a24
31a4
4524
0424
7fa4
0424
2624
3524
64a4
8484
1404
0814
0008
ENDCHAR
STARTCHAR 523A
ENCODING 21050
SWIDTH 520 0
DWIDTH 16 0
BBX 16 16 0 -2
BITMAP
0802
0802
7f22
0822
0822
7f22
4922
4922
4922
5d22
2a22
2922
4882
888a
0804
0800
ENDCHAR
STARTCHAR 523B
ENCODING 21051
SWIDTH 520 0
DWIDTH 16 0
BBX 16 16 0 -2
BITMAP
0804
0604
0404
7fa4
1024
2224
7f24
2624
0ca4
19e4
3324
c604
0904
3184
c114
0008
ENDCHAR
STARTCHAR 523D
ENCODING 21053
SWIDTH 520 0
DWIDTH 16 0
BBX 16 16 0 -2
BITMAP
0404
0404
0a04
1124
20e4
5fa4
8024
0024
7fa4
0824
0924
1084
27c4
7c94
2008
0000
ENDCHAR
STARTCHAR 523F
ENCODING 21055
SWIDTH 520 0
DWIDTH 16 0
BBX 16 16 0 -2
BITMAP
0404
2484
24a4
24a4
3fa4
1024
1f24
1124
2124
5124
8a24
0604
0404
1814
6008
0000
ENDCHAR
STARTCHAR 5240
ENCODING 21056
SWIDTH 520 0
DWIDTH 16 0
BBX 16 16 0 -2
BITMAP
0804
4904
4904
4924
7f24
0024
7f24
0124
0124
3f24
2024
2024
2104
2604
7814
2008
ENDCHAR
STARTCHAR 5241
ENCODING 21057
SWIDTH 520 0
DWIDTH 16 0
BBX 16 16 0 -2
BITMAP
0004
3e04
2224
2224
2224
23a4
4824
0824
ffa4
1c24
2a24
2904
4904
8824
0814
0808
ENDCHAR
STARTCHAR 5242
ENCODING 21058
SWIDTH 520 0
DWIDTH 16 0
BBX 16 16 0 -2
BITMAP
0802
0402
ffd2
0112
3212
0e12
1992
20d2
d112
1112
1112
1112
2102
2102
411e
8104
ENDCHAR
STARTCHAR 5243
ENCODING 21059
SWIDTH 520 0
DWIDTH 16 0
BBX 16 16 0 -2
BITMAP
2102
1202
7f82
0492
0492
7f92
4492
4412
7fd2
0c52
1452
25c2
4482
8402
040a
0404
ENDCHAR
STARTCHAR 524A
ENCODING 21066
SWIDTH 520 0
DWIDTH 16 0
BBX 16 16 0 -2
BITMAP
0804
0904
4984
2924
2a24
7f24
4124
7f24
4124
4124
7f24
4124
4104
4714
4208
0000
ENDCHAR
STARTCHAR 524C
ENCODING 21068
SWIDTH 520 0
DWIDTH 16 0
BBX 16 16 0 -2
BITMAP
0804
0904
ff84
0824
0824
7f24
4924
4924
7f24
5924
1c24
2a04
2904
4904
8814
0808
ENDCHAR
STARTCHAR 524D
ENCODING 21069
SWIDTH 520 0
DWIDTH 16 0
BBX 16 16 0 -2
BITMAP
0810
0618
0420
fffe
0000
3e08
2248
3e48
2248
2248
3e48
2248
2248
2a08
2428
0010
ENDCHAR
STARTCHAR 5250
ENCODING 21072
SWIDTH 520 0
DWIDTH 16 0
BBX 16 16 0 -2
BITMAP
0004
3f04
2104
2124
3f24
2924
0824
7fa4
48a4
54a4
52a4
6284
4084
4294
4108
0000
ENDCHAR
STARTCHAR 5251
ENCODING 21073
SWIDTH 520 0
DWIDTH 16 0
BBX 16 16 0 -2
BITMAP
0804
0804
1424
1224
2124
7fa4
8024
1124
49a4
2524
1524
1224
0784
7804
0014
0008
ENDCHAR
STARTCHAR 5254
ENCODING 21076
SWIDTH 520 0
DWIDTH 16 0
BBX 16 16 0 -2
BITMAP
0004
3f04
2124
3f24
2124
3f24
2024
3fa4
4aa4
92a4
14a4
2484
c884
1094
6388
0100
ENDCHAR
STARTCHAR 5256
ENCODING 21078
SWIDTH 520 0
DWIDTH 16 0
BBX 16 16 0 -2
BITMAP
0804
0404
7f84
2124
1224
1224
7fa4
0024
0024
3f24
2124
2124
2104
3f04
2114
0008
ENDCHAR
STARTCHAR 525C
ENCODING 21084
SWIDTH 520 0
DWIDTH 16 0
BBX 16 16 0 -2
BITMAP
0804
0444
7fe4
4044
a094
3bd4
2a54
2a54
4a54
abd4
1a94
1244
1284
2714
c208
0000
ENDCHAR
STARTCHAR 525E
ENCODING 21086
SWIDTH 520 0
DWIDTH 16 0
BBX 16 16 0 -2
BITMAP
0804
0804
7fa4
0c24
1224
2124
ffa4
0124
3d24
2524
2524
3d24
2104
0104
0514
0208
ENDCHAR
STARTCHAR 5261
ENCODING 21089
SWIDTH 520 0
DWIDTH 16 0
BBX 16 16 0 -2
BITMAP
0804
0904
2a24
2824
4c24
1324
2224
4524
2524
2624
2424
4a04
1184
20d4
4088
0000
ENDCHAR
STARTCHAR 5265
ENCODING 21093
SWIDTH 520 0
DWIDTH 16 0
BBX 16 16 0 -2
BITMAP
0004
7f04
0104
3f24
0124
ffa4
0424
24a4
1524
0e24
1524
e4a4
4484
0404
1414
0808
ENDCHAR
STARTCHAR 5267
ENCODING 21095
SWIDTH 520 0
DWIDTH 16 0
BBX 16 16 0 -2
BITMAP
0002
3f82
2082
2092
3f92
2212
2212
3fd2
2212
2212
2f92
2892
4882
4882
8f8a
0004
ENDCHAR
STARTCHAR 5269
ENCODING 21097
SWIDTH 520 0
DWIDTH 16 0
BBX 16 16 0 -2
BITMAP
0382
7c02
0402
ffd2
1512
7552
1592
3552
d4d2
0e12
1512
24c2
4482
840a
0404
0000
ENDCHAR
STARTCHAR 526A
ENCODING 21098
SWIDTH 520 0
DWIDTH 16 0
BBX 16 16 0 -2
BITMAP
0810
0420
7ffe
0000
3f04
2124
3f24
2124
3f04
2514
2208
7ffc
0204
0404
0814
3008
ENDCHAR
STARTCHAR 526F
ENCODING 21103
SWIDTH 520 0
DWIDTH 16 0
BBX 16 16 0 -2
BITMAP
0002
7fc2
0012
3f92
2092
2092
3f92
0012
7fd2
4452
7fd2
4452
4442
7fca
4044
0000
ENDCHAR
STARTCHAR 5272
ENCODING 21106
SWIDTH 520 0
DWIDTH 16 0
BBX 16 16 0 -2
BITMAP
0804
0404
7f84
48a4
3f24
0824
3f24
0824
7fa4
0024
3f24
2104
2104
3f14
2108
0000
ENDCHAR
STARTCHAR 527D
ENCODING 21117
SWIDTH 520 0
DWIDTH 16 0
BBX 16 16 0 -2
BITMAP
0002
7fc2
0a12
7f92
4a92
4a92
7f92
4092
3f12
0012
7fd2
2412
3502
44c2
948a
0804
ENDCHAR
STARTCHAR 527F
ENCODING 21119
SWIDTH 520 0
DWIDTH 16 0
BBX 16 16 0 -2
BITMAP
1484
2484
4914
2494
3f94
2494
3f94
2494
3f94
0414
7fd4
0e14
1504
24c4
4494
0408
ENDCHAR
STARTCHAR 5281
ENCODING 21121
SWIDTH 520 0
DWIDTH 16 0
BBX 16 16 0 -2
BITMAP
2402
3202
2212
7fd2
a412
3f92
2412
3f92
2412
2412
3fd2
0012
5482
4a42
8a4a
0004
ENDCHAR
STARTCHAR 5282
ENCODING 21122
SWIDTH 520 0
DWIDTH 16 0
BBX 16 16 0 -2
BITMAP
0004
7fc4
6214
5494
7e94
49f4
4a54
6a94
6a94
7e94
4894
4954
5264
a444
c814
0008
ENDCHAR
STARTCHAR 5288
ENCODING 21128
SWIDTH 520 0
DWIDTH 16 0
BBX 16 16 0 -2
BITMAP
0010
3efe
2244
3e28
21fe
3e10
52fe
5210
9e10
0010
3ff8
0208
0208
0408
0828
1010
ENDCHAR
STARTCHAR 5290
ENCODING 21136
SWIDTH 520 0
DWIDTH 16 0
BBX 16 16 0 -2
BITMAP
1106
ffe2
1512
2212
7fd2
a212
3fd2
2212
3fd2
2212
3fd2
1092
0902
0602
198a
6084
ENDCHAR
STARTCHAR 5293
ENCODING 21139
SWIDTH 520 0
DWIDTH 16 0
BBX 16 16 0 -2
BITMAP
0804
7f04
4124
7924
4724
4124
7f24
0024
7f24
4924
7f24
4904
ffc4
2214
2208
4200
ENDCHAR
STARTCHAR 529B
ENCODING 21147
SWIDTH 520 0
DWIDTH 16 0
BBX 16 16 0 -2
BITMAP
0100
0100
0100
0100
7ffc
0104
0104
0104
0104
0204
0204
0404
0404
0804
1028
2010
ENDCHAR
STARTCHAR 529D
ENCODING 21149
SWIDTH 520 0
DWIDTH 16 0
BBX 16 16 0 -2
BITMAP
0020
0020
7e20
0220
43fe
2422
1422
0822
0c22
1442
1242
2282
4082
011c
0208
0400
ENDCHAR
STARTCHAR 529E
ENCODING 21150
SWIDTH 520 0
DWIDTH 16 0
BBX 16 16 0 -2
BITMAP
0200
0200
0220
7ff0
0220
0220
2230
2428
2424
4426
8824
0820
1020
20a0
4040
0000
ENDCHAR
STARTCHAR 529F
ENCODING 21151
SWIDTH 520 0
DWIDTH 16 0
BBX 16 16 0 -2
BITMAP
0020
0020
7f20
0820
0bfc
0824
0824
0844
0944
0e44
f084
4084
0104
0278
0410
0000
ENDCHAR
STARTCHAR 52A0
ENCODING 21152
SWIDTH 520 0
DWIDTH 16 0
BBX 16 16 0 -2
BITMAP
0800
0800
0800
7f7c
0944
0944
0944
0944
1144
1144
1144
2144
217c
4544
8240
0000
ENDCHAR
STARTCHAR 52A1
ENCODING 21153
SWIDTH 520 0
DWIDTH 16 0
BBX 16 16 0 -2
BITMAP
0400
07f0
0c10
1420
6240
8180
0660
191e
6104
1ff0
0210
0210
0410
0810
3050
c020
ENDCHAR
STARTCHAR 52A2
ENCODING 21154
SWIDTH 520 0
DWIDTH 16 0
BBX 16 16 0 -2
BITMAP
0020
ffa0
1020
1020
1efe
1222
1222
1222
1222
2242
2242
4242
4a84
8494
0108
0000
ENDCHAR
STARTCHAR 52A3
ENCODING 21155
SWIDTH 520 0
DWIDTH 16 0
BBX 16 16 0 -2
BITMAP
0100
0920
0d18
112c
2174
c1c0
0300
0d00
7100
0ff8
0108
0208
0208
0408
1828
6010
ENDCHAR
STARTCHAR 52A8
ENCODING 21160
SWIDTH 520 0
DWIDTH 16 0
BBX 16 16 0 -2
BITMAP
0020
0020
7e20
0020
00fc
ff24
1024
1024
2424
2224
4f44
fa44
4084
0114
0208
0000
ENDCHAR
STARTCHAR 52A9
ENCODING 21161
SWIDTH 520 0
DWIDTH 16 0
BBX 16 16 0 -2
BITMAP
0020
3e20
2220
2220
22fc
3e24
2224
2224
3e24
2224
2244
2744
f884
0114
0208
0000
ENDCHAR
STARTCHAR 52AA
ENCODING 21162
SWIDTH 520 0
DWIDTH 16 0
BBX 16 16 0 -2
BITMAP
1000
10fc
7e44
2244
2228
1410
0c28
3246
c100
3ff8
0108
0208
0208
0408
0828
1010
ENDCHAR
STARTCHAR 52AB
ENCODING 21163
SWIDTH 520 0
DWIDTH 16 0
BBX 16 16 0 -2
BITMAP
0820
0820
0820
7f20
08fe
0822
ffa2
1022
1022
1422
2222
4f22
fa42
404e
0084
0000
ENDCHAR
STARTCHAR 52AC
ENCODING 21164
SWIDTH 520 0
DWIDTH 16 0
BBX 16 16 0 -2
BITMAP
2020
3020
4020
7e20
82fc
7a24
4a24
4a24
4a24
7a44
4a44
0244
1284
0a9c
0508
0000
ENDCHAR
STARTCHAR 52AD
ENCODING 21165
SWIDTH 520 0
DWIDTH 16 0
BBX 16 16 0 -2
BITMAP
0020
7f20
1120
1120
117c
2524
2224
7f24
a124
2124
2124
3f44
2144
2094
0108
0000
ENDCHAR
STARTCHAR 52B1
ENCODING 21169
SWIDTH 520 0
DWIDTH 16 0
BBX 16 16 0 -2
BITMAP
0010
3f90
2010
2010
3f7e
2812
2812
2f12
2912
2922
2922
5122
5542
a24e
4084
0000
ENDCHAR
STARTCHAR 52B2
ENCODING 21170
SWIDTH 520 0
DWIDTH 16 0
BBX 16 16 0 -2
BITMAP
0020
7e20
0220
0420
09fc
1424
2324
c124
7f24
0844
0844
0884
0e84
f114
4208
0000
ENDCHAR
STARTCHAR 52B3
ENCODING 21171
SWIDTH 520 0
DWIDTH 16 0
BBX 16 16 0 -2
BITMAP
0420
0420
fffe
0420
0000
7ffe
4204
0200
3ff0
0210
0210
0410
0410
0810
1050
2020
ENDCHAR
STARTCHAR 52BE
ENCODING 21182
SWIDTH 520 0
DWIDTH 16 0
BBX 16 16 0 -2
BITMAP
0820
0420
7fa0
0820
10fc
2224
7f24
2424
0924
3224
c444
0b44
1284
2114
c208
0000
ENDCHAR
STARTCHAR 52BF
ENCODING 21183
SWIDTH 520 0
DWIDTH 16 0
BBX 16 16 0 -2
BITMAP
0840
0840
7df0
0890
0d90
38d0
094a
2a0a
1504
0110
3ff8
0210
0210
0410
0850
1020
ENDCHAR
STARTCHAR 52C3
ENCODING 21187
SWIDTH 520 0
DWIDTH 16 0
BBX 16 16 0 -2
BITMAP
0820
0820
7f20
0820
7f7c
4124
8224
7e24
0424
0b24
1c44
e844
0884
0894
2908
1000
ENDCHAR
STARTCHAR 52C7
ENCODING 21191
SWIDTH 520 0
DWIDTH 16 0
BBX 16 16 0 -2
BITMAP
3ff0
0260
0180
3ff8
2108
3ff8
2108
3ff8
2108
0200
7ff8
0208
0408
0808
1028
2010
ENDCHAR
STARTCHAR 52C9
ENCODING 21193
SWIDTH 520 0
DWIDTH 16 0
BBX 16 16 0 -2
BITMAP
1020
1020
3f20
22fc
4424
7f24
4924
4924
7f44
1444
1494
1508
2402
4402
83fe
0000
ENDCHAR
STARTCHAR 52CB
ENCODING 21195
SWIDTH 520 0
DWIDTH 16 0
BBX 16 16 0 -2
BITMAP
0020
7f20
4120
4120
7ffc
0024
7f24
4124
4924
4924
4924
4924
1444
2354
c288
0000
ENDCHAR
STARTCHAR 52D0
ENCODING 21200
SWIDTH 520 0
DWIDTH 16 0
BBX 16 16 0 -2
BITMAP
0020
7e20
0420
0820
ff7c
0824
2824
1024
7f24
5524
5524
5524
5fc4
f054
0088
0000
ENDCHAR
STARTCHAR 52D2
ENCODING 21202
SWIDTH 520 0
DWIDTH 16 0
BBX 16 16 0 -2
BITMAP
2220
2220
ffa0
2220
3efc
0824
7f24
4924
4924
7f24
0824
ff44
0844
0894
0908
0800
ENDCHAR
STARTCHAR 52D6
ENCODING 21206
SWIDTH 520 0
DWIDTH 16 0
BBX 16 16 0 -2
BITMAP
7f20
4120
5d20
4120
5dfc
0024
7e24
4224
7e24
4224
7e44
4244
4284
7e94
4308
0000
ENDCHAR
STARTCHAR 52D8
ENCODING 21208
SWIDTH 520 0
DWIDTH 16 0
BBX 16 16 0 -2
BITMAP
2220
2220
7fa0
2220
3efc
2224
3e24
2224
ffa4
5424
5a24
5324
6244
ff54
4088
0000
ENDCHAR
STARTCHAR 52DF
ENCODING 21215
SWIDTH 520 0
DWIDTH 16 0
BBX 16 16 0 -2
BITMAP
0440
fffe
0440
1ff0
1210
1110
1ff0
0400
fffe
0920
1118
2fee
c224
0420
08a0
1040
ENDCHAR
STARTCHAR 52E4
ENCODING 21220
SWIDTH 520 0
DWIDTH 16 0
BBX 16 16 0 -2
BITMAP
1110
1110
ffd0
1110
1f7e
0412
3f92
2492
3f92
0412
3fa2
0422
3fa2
044e
0744
7880
ENDCHAR
STARTCHAR 52F0
ENCODING 21232
SWIDTH 520 0
DWIDTH 16 0
BBX 16 16 0 -2
BITMAP
1000
10fe
7e92
1292
12fe
2a92
c492
28fe
ff20
5590
5554
5542
594a
b548
2238
0000
ENDCHAR
STARTCHAR 52F9
ENCODING 21241
SWIDTH 520 0
DWIDTH 16 0
BBX 16 16 0 -2
BITMAP
0000
0800
0800
0ffc
1004
2004
4004
0004
0004
0004
0004
0004
0004
0014
0008
0000
ENDCHAR
STARTCHAR 52FA
ENCODING 21242
SWIDTH 520 0
DWIDTH 16 0
BBX 16 16 0 -2
BITMAP
0800
0800
0ffc
1004
1004
2004
4404
8204
0104
0184
0104
0004
0004
0048
0028
0010
ENDCHAR
STARTCHAR 52FE
ENCODING 21246
SWIDTH 520 0
DWIDTH 16 0
BBX 16 16 0 -2
BITMAP
0800
0800
0ffc
0804
1204
2304
4204
0484
0444
0824
13f4
1c24
0004
0024
0014
0008
ENDCHAR
STARTCHAR 52FF
ENCODING 21247
SWIDTH 520 0
DWIDTH 16 0
BBX 16 16 0 -2
BITMAP
0800
0c00
0800
0ffc
1124
1124
2224
4244
8444
0884
1104
2204
0404
0844
3028
0010
ENDCHAR
STARTCHAR 5300
ENCODING 21248
SWIDTH 520 0
DWIDTH 16 0
BBX 16 16 0 -2
BITMAP
0800
0804
0ffe
1004
1004
2604
4184
0084
0004
00e4
0704
3804
0004
0028
0010
0000
ENDCHAR
STARTCHAR 5305
ENCODING 21253
SWIDTH 520 0
DWIDTH 16 0
BBX 16 16 0 -2
BITMAP
0800
0c00
0808
1ffc
1008
2008
5fc8
9048
1048
1fc8
1008
1028
1012
1002
0ffe
0000
ENDCHAR
STARTCHAR 5306
ENCODING 21254
SWIDTH 520 0
DWIDTH 16 0
BBX 16 16 0 -2
BITMAP
0800
0c00
0804
1ffe
1124
2924
4624
8344
04c4
08e4
10b4
6124
0204
0c04
7014
0008
ENDCHAR
STARTCHAR 5308
ENCODING 21256
SWIDTH 520 0
DWIDTH 16 0
BBX 16 16 0 -2
BITMAP
0800
0800
1ffc
1004
2084
48a4
a524
2224
2524
28a4
30a4
3fe4
2024
0004
0028
0010
ENDCHAR
STARTCHAR 530D
ENCODING 21261
SWIDTH 520 0
DWIDTH 16 0
BBX 16 16 0 -2
BITMAP
1000
1000
1ffc
2244
5ff4
8204
1fe4
1224
1fe4
1224
1fe4
1224
12a4
1244
0014
0008
ENDCHAR
STARTCHAR 530F
ENCODING 21263
SWIDTH 520 0
DWIDTH 16 0
BBX 16 16 0 -2
BITMAP
1040
1060
7e80
10fc
2904
45f4
be94
0094
fe94
20f4
7c94
2488
0482
0482
147e
0800
ENDCHAR
STARTCHAR 5310
ENCODING 21264
SWIDTH 520 0
DWIDTH 16 0
BBX 16 16 0 -2
BITMAP
0800
0800
1ffc
1004
2fe4
4004
9fe4
1024
1fe4
0004
3fe4
2224
3fe4
2224
3ff4
0008
ENDCHAR
STARTCHAR 5315
ENCODING 21269
SWIDTH 520 0
DWIDTH 16 0
BBX 16 16 0 -2
BITMAP
0000
1000
1000
1010
1038
10c0
1300
1c00
1000
1000
1000
1008
1008
1008
0ff8
0000
ENDCHAR
STARTCHAR 5316
ENCODING 21270
SWIDTH 520 0
DWIDTH 16 0
BBX 16 16 0 -2
BITMAP
0880
0c80
0888
108c
1098
30b0
50e0
90c0
1180
1280
1480
1084
1084
1084
107c
0000
ENDCHAR
STARTCHAR 5317
ENCODING 21271
SWIDTH 520 0
DWIDTH 16 0
BBX 16 16 0 -2
BITMAP
0440
0440
0440
0444
044e
7c58
0460
0440
0440
0440
0c40
3442
e442
4442
043e
0000
ENDCHAR
STARTCHAR 5319
ENCODING 21273
SWIDTH 520 0
DWIDTH 16 0
BBX 16 16 0 -2
BITMAP
0000
3f20
2120
3f20
2124
3f38
0020
ffa0
0424
2424
2724
241c
5400
4c00
83fe
0000
ENDCHAR
STARTCHAR 531A
ENCODING 21274
SWIDTH 520 0
DWIDTH 16 0
BBX 16 16 0 -2
BITMAP
0000
7ffc
4000
4000
4000
4000
4000
4000
4000
4000
4000
4000
4000
7ffc
0000
0000
ENDCHAR
STARTCHAR 531D
ENCODING 21277
SWIDTH 520 0
DWIDTH 16 0
BBX 16 16 0 -2
BITMAP
0000
7ffc
4080
4080
4ff8
4888
4888
4888
4888
4888
48a8
4890
4080
4080
7ffe
0000
ENDCHAR
STARTCHAR 5320
ENCODING 21280
SWIDTH 520 0
DWIDTH 16 0
BBX 16 16 0 -2
BITMAP
0000
7ffe
4000
47e0
4400
4410
47f8
4440
4440
4440
4840
4840
5040
4000
7ffe
0000
ENDCHAR
STARTCHAR 5321
ENCODING 21281
SWIDTH 520 0
DWIDTH 16 0
BBX 16 16 0 -2
BITMAP
0000
7ffe
4000
4000
5ff8
4080
4080
4ff8
4080
4080
4080
5ffc
4000
4000
7ffe
0000
ENDCHAR
STARTCHAR 5323
ENCODING 21283
SWIDTH 520 0
DWIDTH 16 0
BBX 16 16 0 -2
BITMAP
0000
7ffe
4000
4ff8
4888
4888
4ff8
4888
4888
4ff8
4080
4080
4080
4080
7ffe
0000
ENDCHAR
STARTCHAR 5326
ENCODING 21286
SWIDTH 520 0
DWIDTH 16 0
BBX 16 16 0 -2
BITMAP
0000
7ffe
4820
4820
7f78
4828
5428
5f28
4428
4748
7c4a
4486
4500
4000
7ffe
0000
ENDCHAR
STARTCHAR 532A
ENCODING 21290
SWIDTH 520 0
DWIDTH 16 0
BBX 16 16 0 -2
BITMAP
0000
7ffe
4240
4240
5e7c
4240
4240
5e7c
4240
4240
7e7c
4240
4240
4240
7ffe
0000
ENDCHAR
STARTCHAR 532E
ENCODING 21294
SWIDTH 520 0
DWIDTH 16 0
BBX 16 16 0 -2
BITMAP
7ffc
4100
4fe0
4920
4fe0
4100
7ff8
4000
4fe0
4920
4920
4aa0
4440
4820
7ffc
0000
ENDCHAR
STARTCHAR 5339
ENCODING 21305
SWIDTH 520 0
DWIDTH 16 0
BBX 16 16 0 -2
BITMAP
0000
7ffc
4440
4440
4440
4440
4440
4444
4444
4846
503c
6000
4000
7ffe
0000
0000
ENDCHAR
STARTCHAR 533A
ENCODING 21306
SWIDTH 520 0
DWIDTH 16 0
BBX 16 16 0 -2
BITMAP
0000
7ffc
4020
4030
4820
4640
4140
4080
4140
4220
4430
4818
5010
7ffc
0000
0000
ENDCHAR
STARTCHAR 533B
ENCODING 21307
SWIDTH 520 0
DWIDTH 16 0
BBX 16 16 0 -2
BITMAP
0000
7ffc
4800
4800
4ff8
5080
6088
5ffc
4140
4120
4210
4418
4810
4000
7ffe
0000
ENDCHAR
STARTCHAR 533E
ENCODING 21310
SWIDTH 520 0
DWIDTH 16 0
BBX 16 16 0 -2
BITMAP
7ffc
4080
4ff8
4808
4ff8
4800
4ff8
4d28
57f8
5528
6528
6528
4418
4000
7ffe
0000
ENDCHAR
STARTCHAR 533F
ENCODING 21311
SWIDTH 520 0
DWIDTH 16 0
BBX 16 16 0 -2
BITMAP
7ffc
4000
4420
5ff8
4420
4100
5ffc
4200
47f0
4c10
5410
67f0
4410
4004
7ffe
0000
ENDCHAR
STARTCHAR 5341
ENCODING 21313
SWIDTH 520 0
DWIDTH 16 0
BBX 16 16 0 -2
BITMAP
0100
0100
0100
0100
0100
0100
fffe
0100
0100
0100
0100
0100
0100
0100
0100
0000
ENDCHAR
STARTCHAR 5343
ENCODING 21315
SWIDTH 520 0
DWIDTH 16 0
BBX 16 16 0 -2
BITMAP
0010
00f8
3f00
0100
0100
0104
fffe
0100
0100
0100
0100
0100
0100
0100
0100
0000
ENDCHAR
STARTCHAR 5345
ENCODING 21317
SWIDTH 520 0
DWIDTH 16 0
BBX 16 16 0 -2
BITMAP
1110
1110
1110
1110
1110
1110
fffe
1110
1110
1110
1110
2110
2110
4110
8010
0000
ENDCHAR
STARTCHAR 5347
ENCODING 21319
SWIDTH 520 0
DWIDTH 16 0
BBX 16 16 0 -2
BITMAP
0000
0720
3c20
0420
0420
0424
7ffe
0420
0420
0420
0820
0820
1020
2020
4020
0000
ENDCHAR
STARTCHAR 5348
ENCODING 21320
SWIDTH 520 0
DWIDTH 16 0
BBX 16 16 0 -2
BITMAP
0800
0800
1ff8
1100
2100
2100
4104
fffe
0100
0100
0100
0100
0100
0100
0100
0000
ENDCHAR
STARTCHAR 5349
ENCODING 21321
SWIDTH 520 0
DWIDTH 16 0
BBX 16 16 0 -2
BITMAP
0100
0110
3ff8
0100
0100
0910
0910
0810
fffe
0810
0810
1010
1010
2010
4010
0000
ENDCHAR
STARTCHAR 534A
ENCODING 21322
SWIDTH 520 0
DWIDTH 16 0
BBX 16 16 0 -2
BITMAP
0100
2110
1918
0d20
0940
0108
3ffc
0100
0100
0104
7ffe
0100
0100
0100
0100
0100
ENDCHAR
STARTCHAR 534E
ENCODING 21326
SWIDTH 520 0
DWIDTH 16 0
BBX 16 16 0 -2
BITMAP
0880
0c88
109c
30e0
5380
9084
1084
107c
1100
0100
7ffe
0100
0100
0100
0100
0100
ENDCHAR
STARTCHAR 534F
ENCODING 21327
SWIDTH 520 0
DWIDTH 16 0
BBX 16 16 0 -2
BITMAP
2040
2040
2040
23f8
fc48
2048
2248
224c
248a
248a
2088
2108
2108
2228
2410
0000
ENDCHAR
STARTCHAR 5351
ENCODING 21329
SWIDTH 520 0
DWIDTH 16 0
BBX 16 16 0 -2
BITMAP
0100
0200
3ff8
2108
3ff8
2108
2108
3ff8
2208
0c80
fffe
0080
0080
0080
0080
0080
ENDCHAR
STARTCHAR 5352
ENCODING 21330
SWIDTH 520 0
DWIDTH 16 0
BBX 16 16 0 -2
BITMAP
0200
0100
7ffc
0820
0820
0820
1450
2248
4288
0100
fffe
0100
0100
0100
0100
0100
ENDCHAR
STARTCHAR 5353
ENCODING 21331
SWIDTH 520 0
DWIDTH 16 0
BBX 16 16 0 -2
BITMAP
0200
0200
03f8
0200
3ff0
2010
3ff0
2010
3ff0
2110
0100
fffe
0100
0100
0100
0100
ENDCHAR
STARTCHAR 5355
ENCODING 21333
SWIDTH 520 0
DWIDTH 16 0
BBX 16 16 0 -2
BITMAP
0820
0630
0440
3ff8
2108
3ff8
2108
2108
3ff8
2108
0100
fffe
0100
0100
0100
0100
ENDCHAR
STARTCHAR 5356
ENCODING 21334
SWIDTH 520 0
DWIDTH 16 0
BBX 16 16 0 -2
BITMAP
0080
0088
3ffc
0080
0080
7ffe
048c
0290
1280
0900
7ffe
0140
0220
0430
0818
3010
ENDCHAR
STARTCHAR 5357
ENCODING 21335
SWIDTH 520 0
DWIDTH 16 0
BBX 16 16 0 -2
BITMAP
0100
0104
fffe
0100
0200
3ffc
2424
2244
2ff4
2104
3ffc
2104
2104
2114
2108
0000
ENDCHAR
STARTCHAR 535A
ENCODING 21338
SWIDTH 520 0
DWIDTH 16 0
BBX 16 16 0 -2
BITMAP
2050
2048
27fc
2040
23f8
fa48
23f8
2248
23f8
2258
2ffe
2210
2190
2110
2050
2020
ENDCHAR
STARTCHAR 535C
ENCODING 21340
SWIDTH 520 0
DWIDTH 16 0
BBX 16 16 0 -2
BITMAP
0200
0200
0200
0200
0200
0300
02c0
0230
0218
0208
0200
0200
0200
0200
0200
0200
ENDCHAR
STARTCHAR 535E
ENCODING 21342
SWIDTH 520 0
DWIDTH 16 0
BBX 16 16 0 -2
BITMAP
0200
0180
0100
fffe
0100
0100
0100
0140
0120
0110
0118
0110
0100
0100
0100
0100
ENDCHAR
STARTCHAR 535F
ENCODING 21343
SWIDTH 520 0
DWIDTH 16 0
BBX 16 16 0 -2
BITMAP
0040
0040
7c40
4440
4460
4450
4448
444c
4446
7c44
4440
4040
0040
0040
0040
0040
ENDCHAR
STARTCHAR 5360
ENCODING 21344
SWIDTH 520 0
DWIDTH 16 0
BBX 16 16 0 -2
BITMAP
0200
0200
0200
03fc
0200
0200
0200
3ff0
2010
2010
2010
2010
2010
3ff0
2010
0000
ENDCHAR
STARTCHAR 5361
ENCODING 21345
SWIDTH 520 0
DWIDTH 16 0
BBX 16 16 0 -2
BITMAP
0100
0100
01fc
0100
0100
0100
7ffe
0100
0100
0140
0130
0118
010c
0108
0100
0100
ENDCHAR
STARTCHAR 5362
ENCODING 21346
SWIDTH 520 0
DWIDTH 16 0
BBX 16 16 0 -2
BITMAP
0080
0080
00fe
0080
0080
1ffc
1004
1004
1ffc
1004
1000
1000
1000
2000
2000
4000
ENDCHAR
STARTCHAR 5363
ENCODING 21347
SWIDTH 520 0
DWIDTH 16 0
BBX 16 16 0 -2
BITMAP
0100
0108
01fc
0100
0100
7ffc
4004
4004
7fc4
4044
4044
7fc4
4004
4004
7ffc
4004
ENDCHAR
STARTCHAR 5364
ENCODING 21348
SWIDTH 520 0
DWIDTH 16 0
BBX 16 16 0 -2
BITMAP
0100
0104
01fe
0100
3ffc
2044
2864
24c4
2284
2104
2284
2464
2824
3ffc
2004
0000
ENDCHAR
STARTCHAR 5366
ENCODING 21350
SWIDTH 520 0
DWIDTH 16 0
BBX 16 16 0 -2
BITMAP
0820
0820
0820
7fa0
0820
0830
ffa8
0824
0826
7fa4
0820
0820
0820
0fa0
f020
0020
ENDCHAR
STARTCHAR 5367
ENCODING 21351
SWIDTH 520 0
DWIDTH 16 0
BBX 16 16 0 -2
BITMAP
0040
7f40
4840
4840
4840
7f60
4150
414c
7f46
4842
4840
4840
4840
7f40
0040
0000
ENDCHAR
STARTCHAR 5369
ENCODING 21353
SWIDTH 520 0
DWIDTH 16 0
BBX 16 16 0 -2
BITMAP
0000
07e0
0420
0420
0420
0420
0420
0420
0420
0420
04e0
0440
0400
0400
0400
0400
ENDCHAR
STARTCHAR 536B
ENCODING 21355
SWIDTH 520 0
DWIDTH 16 0
BBX 16 16 0 -2
BITMAP
0000
3ff8
0108
0108
0108
0108
0108
0108
0108
0138
0110
0100
0100
0100
7ffe
0000
ENDCHAR
STARTCHAR 536E
ENCODING 21358
SWIDTH 520 0
DWIDTH 16 0
BBX 16 16 0 -2
BITMAP
0078
1f80
1000
1000
1ffe
1000
1000
17f0
1410
1410
2450
2422
4402
4402
83fe
0000
ENDCHAR
STARTCHAR 536F
ENCODING 21359
SWIDTH 520 0
DWIDTH 16 0
BBX 16 16 0 -2
BITMAP
0000
0380
3c7c
2244
2244
2244
2244
2244
2244
2a44
745c
2448
0840
1040
6040
0000
ENDCHAR
STARTCHAR 5370
ENCODING 21360
SWIDTH 520 0
DWIDTH 16 0
BBX 16 16 0 -2
BITMAP
0000
0efc
7084
4084
4084
4084
7e84
4084
4084
4484
5894
e088
4080
0080
0080
0080
ENDCHAR
STARTCHAR 5371
ENCODING 21361
SWIDTH 520 0
DWIDTH 16 0
BBX 16 16 0 -2
BITMAP
0400
07f0
0820
1040
3ffe
5000
9000
13f0
1210
1210
1250
2224
2204
4206
81fc
0000
ENDCHAR
STARTCHAR 5373
ENCODING 21363
SWIDTH 520 0
DWIDTH 16 0
BBX 16 16 0 -2
BITMAP
0000
3e7c
2244
2244
3e44
2244
2244
3e44
2244
2444
2254
2748
7a40
2040
0040
0040
ENDCHAR
STARTCHAR 5374
ENCODING 21364
SWIDTH 520 0
DWIDTH 16 0
BBX 16 16 0 -2
BITMAP
0800
087c
0844
7f44
0844
0844
0844
ff44
1044
1244
2144
27d4
7948
2040
0040
0040
ENDCHAR
STARTCHAR 5375
ENCODING 21365
SWIDTH 520 0
DWIDTH 16 0
BBX 16 16 0 -2
BITMAP
0300
3c7c
2244
2244
3264
2a54
2e5c
2a54
2644
7a54
2448
0440
0840
3040
c040
0040
ENDCHAR
STARTCHAR 5377
ENCODING 21367
SWIDTH 520 0
DWIDTH 16 0
BBX 16 16 0 -2
BITMAP
0110
1118
0920
3ffc
0100
0200
fffe
0420
0fd8
144e
2444
8540
0490
0410
03f0
0000
ENDCHAR
STARTCHAR 5378
ENCODING 21368
SWIDTH 520 0
DWIDTH 16 0
BBX 16 16 0 -2
BITMAP
2000
207c
3f44
4444
0444
7f44
0444
2444
2744
2444
2444
275c
f848
4040
0040
0000
ENDCHAR
STARTCHAR 537A
ENCODING 21370
SWIDTH 520 0
DWIDTH 16 0
BBX 16 16 0 -2
BITMAP
1fe0
0040
0090
3d38
05c0
0960
1518
0206
5ff8
0000
0ff0
0810
0850
0824
0804
07fc
ENDCHAR
STARTCHAR 537F
ENCODING 21375
SWIDTH 520 0
DWIDTH 16 0
BBX 16 16 0 -2
BITMAP
0c00
73de
4252
4a52
4bd2
4a52
4a52
4bd2
5a12
6a9a
12d4
1350
2210
4010
8010
0000
ENDCHAR
STARTCHAR 5382
ENCODING 21378
SWIDTH 520 0
DWIDTH 16 0
BBX 16 16 0 -2
BITMAP
0000
3ffe
2000
2000
2000
2000
2000
2000
2000
2000
2000
2000
4000
4000
8000
0000
ENDCHAR
STARTCHAR 5384
ENCODING 21380
SWIDTH 520 0
DWIDTH 16 0
BBX 16 16 0 -2
BITMAP
0000
3ffe
2000
2000
27f0
2410
2410
2410
2410
2450
2420
4404
4404
8404
83fc
0000
ENDCHAR
STARTCHAR 5385
ENCODING 21381
SWIDTH 520 0
DWIDTH 16 0
BBX 16 16 0 -2
BITMAP
0000
3ffe
2000
2000
2000
2ffc
2040
2040
2040
2040
2040
2040
4040
4140
8080
0000
ENDCHAR
STARTCHAR 5386
ENCODING 21382
SWIDTH 520 0
DWIDTH 16 0
BBX 16 16 0 -2
BITMAP
0000
3ffe
2000
2080
2080
2ff8
2088
2088
2088
2108
2108
2208
4208
4438
8810
0000
ENDCHAR
STARTCHAR 5389
ENCODING 21385
SWIDTH 520 0
DWIDTH 16 0
BBX 16 16 0 -2
BITMAP
0000
3ffe
2000
2000
2ffc
2100
2100
21f8
2108
2108
2208
2208
4408
4828
9010
0000
ENDCHAR
STARTCHAR 538B
ENCODING 21387
SWIDTH 520 0
DWIDTH 16 0
BBX 16 16 0 -2
BITMAP
0000
3ffe
2000
2080
2080
2088
2ffc
2080
20a0
2090
2098
4090
4080
bffe
0000
0000
ENDCHAR
STARTCHAR 538C
ENCODING 21388
SWIDTH 520 0
DWIDTH 16 0
BBX 16 16 0 -2
BITMAP
0000
3ffe
2100
2140
2130
2120
3ffc
2100
2100
2280
2240
2460
4438
481c
9008
0000
ENDCHAR
STARTCHAR 538D
ENCODING 21389
SWIDTH 520 0
DWIDTH 16 0
BBX 16 16 0 -2
BITMAP
0000
3ffe
2100
2100
2ffc
2240
2440
2ffc
2440
2040
2ffe
2040
4040
4040
8040
0000
ENDCHAR
STARTCHAR 5395
ENCODING 21397
SWIDTH 520 0
DWIDTH 16 0
BBX 16 16 0 -2
BITMAP
0000
3ffe
2004
2f84
2894
2a94
2a94
2a94
2a94
2a94
2a94
4204
4504
88d4
9088
0000
ENDCHAR
STARTCHAR 5398
ENCODING 21400
SWIDTH 520 0
DWIDTH 16 0
BBX 16 16 0 -2
BITMAP
0000
3ffe
2000
2ff8
2888
2ff8
2888
2888
2ff8
2888
4080
4ffc
4080
8080
bffe
0000
ENDCHAR
STARTCHAR 539A
ENCODING 21402
SWIDTH 520 0
DWIDTH 16 0
BBX 16 16 0 -2
BITMAP
3ffc
2000
2ff8
2808
2ff8
2808
2ff8
2000
2ff8
2030
20c0
2ffc
4080
4080
8280
0100
ENDCHAR
STARTCHAR 539D
ENCODING 21405
SWIDTH 520 0
DWIDTH 16 0
BBX 16 16 0 -2
BITMAP
3ffe
2220
2220
2ffc
2220
2220
3ffe
2000
27f0
2410
2410
47f0
4410
4410
87f0
0000
ENDCHAR
STARTCHAR 539F
ENCODING 21407
SWIDTH 520 0
DWIDTH 16 0
BBX 16 16 0 -2
BITMAP
0000
3ffc
2180
2100
27f0
2410
27f0
2410
2410
27f0
2080
24a0
4698
488c
9288
8100
ENDCHAR
STARTCHAR 53A2
ENCODING 21410
SWIDTH 520 0
DWIDTH 16 0
BBX 16 16 0 -2
BITMAP
0000
3ffe
2400
247c
2444
3f44
247c
2e44
2d44
2d7c
5444
5444
647c
8444
8440
0000
ENDCHAR
STARTCHAR 53A3
ENCODING 21411
SWIDTH 520 0
DWIDTH 16 0
BBX 16 16 0 -2
BITMAP
0000
7ffc
4120
4110
7ffc
4660
5818
6fee
4924
4fe0
4920
4fe0
4920
4100
4100
8100
ENDCHAR
STARTCHAR 53A5
ENCODING 21413
SWIDTH 520 0
DWIDTH 16 0
BBX 16 16 0 -2
BITMAP
0000
7ffe
5120
4a20
5fbe
4422
5554
5510
5510
5f10
5510
4428
4844
9086
a104
0000
ENDCHAR
STARTCHAR 53A6
ENCODING 21414
SWIDTH 520 0
DWIDTH 16 0
BBX 16 16 0 -2
BITMAP
3ffc
2000
3ff8
2200
2ff0
2810
2ff0
2810
2ff0
2400
27f0
2a20
4240
4180
867c
1810
ENDCHAR
STARTCHAR 53A8
ENCODING 21416
SWIDTH 520 0
DWIDTH 16 0
BBX 16 16 0 -2
BITMAP
0000
3ffe
2008
3f88
2008
2f7e
2908
2948
2f28
2038
3128
2a08
4788
5c28
8010
0000
ENDCHAR
STARTCHAR 53A9
ENCODING 21417
SWIDTH 520 0
DWIDTH 16 0
BBX 16 16 0 -2
BITMAP
0000
7ffe
4000
5f7c
5110
5f50
5150
51fe
5f10
5428
5228
5728
594a
904a
8086
0000
ENDCHAR
STARTCHAR 53AE
ENCODING 21422
SWIDTH 520 0
DWIDTH 16 0
BBX 16 16 0 -2
BITMAP
0000
7ffe
4a00
4a06
7fb8
4a20
4e3e
4a28
4e28
4a28
7fa8
4a48
4948
5088
a108
0000
ENDCHAR
STARTCHAR 53B6
ENCODING 21430
SWIDTH 520 0
DWIDTH 16 0
BBX 16 16 0 -2
BITMAP
0100
0180
0100
0100
0200
0200
0400
0400
0820
0810
1008
20fc
7f86
2004
0000
0000
ENDCHAR
STARTCHAR 53BB
ENCODING 21435
SWIDTH 520 0
DWIDTH 16 0
BBX 16 16 0 -2
BITMAP
0100
0100
0100
3ffc
0100
0100
0100
0100
7ffe
0200
0600
0820
1010
3ff8
1010
0000
ENDCHAR
STARTCHAR 53BF
ENCODING 21439
SWIDTH 520 0
DWIDTH 16 0
BBX 16 16 0 -2
BITMAP
0000
0ff0
0810
0ff0
0810
0810
0ff0
0810
0810
fffe
0240
0420
0810
1ff8
0810
0000
ENDCHAR
STARTCHAR 53C1
ENCODING 21441
SWIDTH 520 0
DWIDTH 16 0
BBX 16 16 0 -2
BITMAP
0200
0440
0820
1ff0
0a20
0404
7ffe
0820
1018
2fee
c004
0fe0
0000
0000
3ff8
0000
ENDCHAR
STARTCHAR 53C2
ENCODING 21442
SWIDTH 520 0
DWIDTH 16 0
BBX 16 16 0 -2
BITMAP
0400
0c20
11f0
3f10
0200
fffc
0440
0920
3218
cc6e
3184
0618
1860
0380
7c00
0000
ENDCHAR
STARTCHAR 53C8
ENCODING 21448
SWIDTH 520 0
DWIDTH 16 0
BBX 16 16 0 -2
BITMAP
0000
3ff8
1008
0810
0810
0420
0420
0240
0240
0180
0180
0240
0c30
300e
c004
0000
ENDCHAR
STARTCHAR 53C9
ENCODING 21449
SWIDTH 520 0
DWIDTH 16 0
BBX 16 16 0 -2
BITMAP
0000
1ff8
0810
0a10
0910
05a0
0520
0440
0240
0180
0180
0240
0c30
300e
c004
0000
ENDCHAR
STARTCHAR 53CA
ENCODING 21450
SWIDTH 520 0
DWIDTH 16 0
BBX 16 16 0 -2
BITMAP
0000
3fe0
0420
0420
0440
0440
04f8
0a50
0a10
0920
1120
10c0
2120
4218
8c0e
3004
ENDCHAR
STARTCHAR 53CB
ENCODING 21451
SWIDTH 520 0
DWIDTH 16 0
BBX 16 16 0 -2
BITMAP
0200
0200
0200
fffe
0200
0200
07f0
0410
0620
0920
08c0
10c0
2120
4218
8c0e
3004
ENDCHAR
STARTCHAR 53CC
ENCODING 21452
SWIDTH 520 0
DWIDTH 16 0
BBX 16 16 0 -2
BITMAP
0000
7efc
0284
0284
4284
2448
1448
0848
0c50
1620
1320
2250
4088
8106
0204
0000
ENDCHAR
STARTCHAR 53CD
ENCODING 21453
SWIDTH 520 0
DWIDTH 16 0
BBX 16 16 0 -2
BITMAP
0078
3f80
2000
2000
3ff0
2810
2810
2420
2420
2240
2180
2180
4260
4c1c
b008
0000
ENDCHAR
STARTCHAR 53D1
ENCODING 21457
SWIDTH 520 0
DWIDTH 16 0
BBX 16 16 0 -2
BITMAP
0200
2240
2230
2210
7ffe
2400
0400
07e0
0c20
0a20
0a20
1140
2080
4160
861c
1808
ENDCHAR
STARTCHAR 53D4
ENCODING 21460
SWIDTH 520 0
DWIDTH 16 0
BBX 16 16 0 -2
BITMAP
0800
0800
08fc
0e88
0888
0888
ff48
0848
2c50
2a30
4920
4950
8888
2906
1204
0000
ENDCHAR
STARTCHAR 53D6
ENCODING 21462
SWIDTH 520 0
DWIDTH 16 0
BBX 16 16 0 -2
BITMAP
0000
ff80
227e
2244
3e44
2244
2244
3e28
2228
2290
2710
3a28
c246
0284
0200
0200
ENDCHAR
STARTCHAR 53D7
ENCODING 21463
SWIDTH 520 0
DWIDTH 16 0
BBX 16 16 0 -2
BITMAP
00f8
7f90
2218
1190
0920
7ffe
4004
8008
1fe0
0820
0440
0240
0180
0660
181c
6008
ENDCHAR
STARTCHAR 53D8
ENCODING 21464
SWIDTH 520 0
DWIDTH 16 0
BBX 16 16 0 -2
BITMAP
0200
0180
7ffe
0240
1250
1a4c
2246
4244
9ff0
0420
0420
0240
0180
0660
181e
e008
ENDCHAR
STARTCHAR 53D9
ENCODING 21465
SWIDTH 520 0
DWIDTH 16 0
BBX 16 16 0 -2
BITMAP
0800
0c00
127e
11c4
2144
7e44
8844
0844
7f28
0828
4a10
6930
4948
b886
1104
0200
ENDCHAR
STARTCHAR 53DB
ENCODING 21467
SWIDTH 520 0
DWIDTH 16 0
BBX 16 16 0 -2
BITMAP
1000
143c
97c0
5500
5900
fdfc
1188
1188
ff48
1150
1130
2220
2250
448e
8904
0200
ENDCHAR
STARTCHAR 53DF
ENCODING 21471
SWIDTH 520 0
DWIDTH 16 0
BBX 16 16 0 -2
BITMAP
0d00
3178
2108
3d78
2108
2108
3ff8
0100
3ff0
0810
0420
0240
0180
0660
181c
6008
ENDCHAR
STARTCHAR 53E0
ENCODING 21472
SWIDTH 520 0
DWIDTH 16 0
BBX 16 16 0 -2
BITMAP
1ff0
0420
0240
0180
3e7c
1448
0830
1448
7ffe
4002
0ff0
0810
0f10
08f0
0810
7ffe
ENDCHAR
STARTCHAR 53E3
ENCODING 21475
SWIDTH 520 0
DWIDTH 16 0
BBX 16 16 0 -2
BITMAP
0000
0000
3ff8
2008
2008
2008
2008
2008
2008
2008
2008
3ff8
2008
2008
0000
0000
ENDCHAR
STARTCHAR 53E4
ENCODING 21476
SWIDTH 520 0
DWIDTH 16 0
BBX 16 16 0 -2
BITMAP
0100
0100
0100
fffe
0100
0100
0100
0100
1ff0
1010
1010
1010
1010
1ff0
1010
0000
ENDCHAR
ENDFONT
